%TF.GenerationSoftware,KiCad,Pcbnew,(5.1.7)-1*%
%TF.CreationDate,2021-02-23T20:46:47-05:00*%
%TF.ProjectId,Overall Schematics,4f766572-616c-46c2-9053-6368656d6174,rev?*%
%TF.SameCoordinates,Original*%
%TF.FileFunction,Legend,Bot*%
%TF.FilePolarity,Positive*%
%FSLAX46Y46*%
G04 Gerber Fmt 4.6, Leading zero omitted, Abs format (unit mm)*
G04 Created by KiCad (PCBNEW (5.1.7)-1) date 2021-02-23 20:46:47*
%MOMM*%
%LPD*%
G01*
G04 APERTURE LIST*
%ADD10C,0.120000*%
%ADD11C,0.150000*%
G04 APERTURE END LIST*
D10*
X495581809Y-333597047D02*
X496081809Y-333597047D01*
X496081809Y-333406571D01*
X496058000Y-333358952D01*
X496034190Y-333335142D01*
X495986571Y-333311333D01*
X495915142Y-333311333D01*
X495867523Y-333335142D01*
X495843714Y-333358952D01*
X495819904Y-333406571D01*
X495819904Y-333597047D01*
X496081809Y-333144666D02*
X495581809Y-333025619D01*
X495938952Y-332930380D01*
X495581809Y-332835142D01*
X496081809Y-332716095D01*
X495581809Y-332239904D02*
X495819904Y-332406571D01*
X495581809Y-332525619D02*
X496081809Y-332525619D01*
X496081809Y-332335142D01*
X496058000Y-332287523D01*
X496034190Y-332263714D01*
X495986571Y-332239904D01*
X495915142Y-332239904D01*
X495867523Y-332263714D01*
X495843714Y-332287523D01*
X495819904Y-332335142D01*
X495819904Y-332525619D01*
X495534190Y-332144666D02*
X495534190Y-331763714D01*
X496058000Y-331382761D02*
X496081809Y-331430380D01*
X496081809Y-331501809D01*
X496058000Y-331573238D01*
X496010380Y-331620857D01*
X495962761Y-331644666D01*
X495867523Y-331668476D01*
X495796095Y-331668476D01*
X495700857Y-331644666D01*
X495653238Y-331620857D01*
X495605619Y-331573238D01*
X495581809Y-331501809D01*
X495581809Y-331454190D01*
X495605619Y-331382761D01*
X495629428Y-331358952D01*
X495796095Y-331358952D01*
X495796095Y-331454190D01*
X495581809Y-331144666D02*
X496081809Y-331144666D01*
X495581809Y-330858952D01*
X496081809Y-330858952D01*
X495581809Y-330620857D02*
X496081809Y-330620857D01*
X496081809Y-330501809D01*
X496058000Y-330430380D01*
X496010380Y-330382761D01*
X495962761Y-330358952D01*
X495867523Y-330335142D01*
X495796095Y-330335142D01*
X495700857Y-330358952D01*
X495653238Y-330382761D01*
X495605619Y-330430380D01*
X495581809Y-330501809D01*
X495581809Y-330620857D01*
X543333809Y-331819047D02*
X543833809Y-331819047D01*
X543833809Y-331628571D01*
X543810000Y-331580952D01*
X543786190Y-331557142D01*
X543738571Y-331533333D01*
X543667142Y-331533333D01*
X543619523Y-331557142D01*
X543595714Y-331580952D01*
X543571904Y-331628571D01*
X543571904Y-331819047D01*
X543833809Y-331366666D02*
X543333809Y-331247619D01*
X543690952Y-331152380D01*
X543333809Y-331057142D01*
X543833809Y-330938095D01*
X543333809Y-330461904D02*
X543571904Y-330628571D01*
X543333809Y-330747619D02*
X543833809Y-330747619D01*
X543833809Y-330557142D01*
X543810000Y-330509523D01*
X543786190Y-330485714D01*
X543738571Y-330461904D01*
X543667142Y-330461904D01*
X543619523Y-330485714D01*
X543595714Y-330509523D01*
X543571904Y-330557142D01*
X543571904Y-330747619D01*
X543286190Y-330366666D02*
X543286190Y-329985714D01*
X543810000Y-329604761D02*
X543833809Y-329652380D01*
X543833809Y-329723809D01*
X543810000Y-329795238D01*
X543762380Y-329842857D01*
X543714761Y-329866666D01*
X543619523Y-329890476D01*
X543548095Y-329890476D01*
X543452857Y-329866666D01*
X543405238Y-329842857D01*
X543357619Y-329795238D01*
X543333809Y-329723809D01*
X543333809Y-329676190D01*
X543357619Y-329604761D01*
X543381428Y-329580952D01*
X543548095Y-329580952D01*
X543548095Y-329676190D01*
X543333809Y-329366666D02*
X543833809Y-329366666D01*
X543333809Y-329080952D01*
X543833809Y-329080952D01*
X543333809Y-328842857D02*
X543833809Y-328842857D01*
X543833809Y-328723809D01*
X543810000Y-328652380D01*
X543762380Y-328604761D01*
X543714761Y-328580952D01*
X543619523Y-328557142D01*
X543548095Y-328557142D01*
X543452857Y-328580952D01*
X543405238Y-328604761D01*
X543357619Y-328652380D01*
X543333809Y-328723809D01*
X543333809Y-328842857D01*
X573881047Y-428470190D02*
X573881047Y-427970190D01*
X573690571Y-427970190D01*
X573642952Y-427994000D01*
X573619142Y-428017809D01*
X573595333Y-428065428D01*
X573595333Y-428136857D01*
X573619142Y-428184476D01*
X573642952Y-428208285D01*
X573690571Y-428232095D01*
X573881047Y-428232095D01*
X573428666Y-427970190D02*
X573309619Y-428470190D01*
X573214380Y-428113047D01*
X573119142Y-428470190D01*
X573000095Y-427970190D01*
X572523904Y-428470190D02*
X572690571Y-428232095D01*
X572809619Y-428470190D02*
X572809619Y-427970190D01*
X572619142Y-427970190D01*
X572571523Y-427994000D01*
X572547714Y-428017809D01*
X572523904Y-428065428D01*
X572523904Y-428136857D01*
X572547714Y-428184476D01*
X572571523Y-428208285D01*
X572619142Y-428232095D01*
X572809619Y-428232095D01*
X572428666Y-428517809D02*
X572047714Y-428517809D01*
X571666761Y-427994000D02*
X571714380Y-427970190D01*
X571785809Y-427970190D01*
X571857238Y-427994000D01*
X571904857Y-428041619D01*
X571928666Y-428089238D01*
X571952476Y-428184476D01*
X571952476Y-428255904D01*
X571928666Y-428351142D01*
X571904857Y-428398761D01*
X571857238Y-428446380D01*
X571785809Y-428470190D01*
X571738190Y-428470190D01*
X571666761Y-428446380D01*
X571642952Y-428422571D01*
X571642952Y-428255904D01*
X571738190Y-428255904D01*
X571428666Y-428470190D02*
X571428666Y-427970190D01*
X571142952Y-428470190D01*
X571142952Y-427970190D01*
X570904857Y-428470190D02*
X570904857Y-427970190D01*
X570785809Y-427970190D01*
X570714380Y-427994000D01*
X570666761Y-428041619D01*
X570642952Y-428089238D01*
X570619142Y-428184476D01*
X570619142Y-428255904D01*
X570642952Y-428351142D01*
X570666761Y-428398761D01*
X570714380Y-428446380D01*
X570785809Y-428470190D01*
X570904857Y-428470190D01*
X536797238Y-464038190D02*
X537035333Y-464038190D01*
X537059142Y-464276285D01*
X537035333Y-464252476D01*
X536987714Y-464228666D01*
X536868666Y-464228666D01*
X536821047Y-464252476D01*
X536797238Y-464276285D01*
X536773428Y-464323904D01*
X536773428Y-464442952D01*
X536797238Y-464490571D01*
X536821047Y-464514380D01*
X536868666Y-464538190D01*
X536987714Y-464538190D01*
X537035333Y-464514380D01*
X537059142Y-464490571D01*
X536630571Y-464038190D02*
X536463904Y-464538190D01*
X536297238Y-464038190D01*
X525875238Y-464038190D02*
X526113333Y-464038190D01*
X526137142Y-464276285D01*
X526113333Y-464252476D01*
X526065714Y-464228666D01*
X525946666Y-464228666D01*
X525899047Y-464252476D01*
X525875238Y-464276285D01*
X525851428Y-464323904D01*
X525851428Y-464442952D01*
X525875238Y-464490571D01*
X525899047Y-464514380D01*
X525946666Y-464538190D01*
X526065714Y-464538190D01*
X526113333Y-464514380D01*
X526137142Y-464490571D01*
X525708571Y-464038190D02*
X525541904Y-464538190D01*
X525375238Y-464038190D01*
X534288952Y-460125000D02*
X534336571Y-460101190D01*
X534408000Y-460101190D01*
X534479428Y-460125000D01*
X534527047Y-460172619D01*
X534550857Y-460220238D01*
X534574666Y-460315476D01*
X534574666Y-460386904D01*
X534550857Y-460482142D01*
X534527047Y-460529761D01*
X534479428Y-460577380D01*
X534408000Y-460601190D01*
X534360380Y-460601190D01*
X534288952Y-460577380D01*
X534265142Y-460553571D01*
X534265142Y-460386904D01*
X534360380Y-460386904D01*
X534050857Y-460601190D02*
X534050857Y-460101190D01*
X533765142Y-460601190D01*
X533765142Y-460101190D01*
X533527047Y-460601190D02*
X533527047Y-460101190D01*
X533408000Y-460101190D01*
X533336571Y-460125000D01*
X533288952Y-460172619D01*
X533265142Y-460220238D01*
X533241333Y-460315476D01*
X533241333Y-460386904D01*
X533265142Y-460482142D01*
X533288952Y-460529761D01*
X533336571Y-460577380D01*
X533408000Y-460601190D01*
X533527047Y-460601190D01*
X523747952Y-460125000D02*
X523795571Y-460101190D01*
X523867000Y-460101190D01*
X523938428Y-460125000D01*
X523986047Y-460172619D01*
X524009857Y-460220238D01*
X524033666Y-460315476D01*
X524033666Y-460386904D01*
X524009857Y-460482142D01*
X523986047Y-460529761D01*
X523938428Y-460577380D01*
X523867000Y-460601190D01*
X523819380Y-460601190D01*
X523747952Y-460577380D01*
X523724142Y-460553571D01*
X523724142Y-460386904D01*
X523819380Y-460386904D01*
X523509857Y-460601190D02*
X523509857Y-460101190D01*
X523224142Y-460601190D01*
X523224142Y-460101190D01*
X522986047Y-460601190D02*
X522986047Y-460101190D01*
X522867000Y-460101190D01*
X522795571Y-460125000D01*
X522747952Y-460172619D01*
X522724142Y-460220238D01*
X522700333Y-460315476D01*
X522700333Y-460386904D01*
X522724142Y-460482142D01*
X522747952Y-460529761D01*
X522795571Y-460577380D01*
X522867000Y-460601190D01*
X522986047Y-460601190D01*
X461517952Y-461776000D02*
X461565571Y-461752190D01*
X461637000Y-461752190D01*
X461708428Y-461776000D01*
X461756047Y-461823619D01*
X461779857Y-461871238D01*
X461803666Y-461966476D01*
X461803666Y-462037904D01*
X461779857Y-462133142D01*
X461756047Y-462180761D01*
X461708428Y-462228380D01*
X461637000Y-462252190D01*
X461589380Y-462252190D01*
X461517952Y-462228380D01*
X461494142Y-462204571D01*
X461494142Y-462037904D01*
X461589380Y-462037904D01*
X461279857Y-462252190D02*
X461279857Y-461752190D01*
X460994142Y-462252190D01*
X460994142Y-461752190D01*
X460756047Y-462252190D02*
X460756047Y-461752190D01*
X460637000Y-461752190D01*
X460565571Y-461776000D01*
X460517952Y-461823619D01*
X460494142Y-461871238D01*
X460470333Y-461966476D01*
X460470333Y-462037904D01*
X460494142Y-462133142D01*
X460517952Y-462180761D01*
X460565571Y-462228380D01*
X460637000Y-462252190D01*
X460756047Y-462252190D01*
X466597952Y-461903000D02*
X466645571Y-461879190D01*
X466717000Y-461879190D01*
X466788428Y-461903000D01*
X466836047Y-461950619D01*
X466859857Y-461998238D01*
X466883666Y-462093476D01*
X466883666Y-462164904D01*
X466859857Y-462260142D01*
X466836047Y-462307761D01*
X466788428Y-462355380D01*
X466717000Y-462379190D01*
X466669380Y-462379190D01*
X466597952Y-462355380D01*
X466574142Y-462331571D01*
X466574142Y-462164904D01*
X466669380Y-462164904D01*
X466359857Y-462379190D02*
X466359857Y-461879190D01*
X466074142Y-462379190D01*
X466074142Y-461879190D01*
X465836047Y-462379190D02*
X465836047Y-461879190D01*
X465717000Y-461879190D01*
X465645571Y-461903000D01*
X465597952Y-461950619D01*
X465574142Y-461998238D01*
X465550333Y-462093476D01*
X465550333Y-462164904D01*
X465574142Y-462260142D01*
X465597952Y-462307761D01*
X465645571Y-462355380D01*
X465717000Y-462379190D01*
X465836047Y-462379190D01*
X468098095Y-411206190D02*
X467788571Y-411206190D01*
X467955238Y-411396666D01*
X467883809Y-411396666D01*
X467836190Y-411420476D01*
X467812380Y-411444285D01*
X467788571Y-411491904D01*
X467788571Y-411610952D01*
X467812380Y-411658571D01*
X467836190Y-411682380D01*
X467883809Y-411706190D01*
X468026666Y-411706190D01*
X468074285Y-411682380D01*
X468098095Y-411658571D01*
X467574285Y-411658571D02*
X467550476Y-411682380D01*
X467574285Y-411706190D01*
X467598095Y-411682380D01*
X467574285Y-411658571D01*
X467574285Y-411706190D01*
X467383809Y-411206190D02*
X467074285Y-411206190D01*
X467240952Y-411396666D01*
X467169523Y-411396666D01*
X467121904Y-411420476D01*
X467098095Y-411444285D01*
X467074285Y-411491904D01*
X467074285Y-411610952D01*
X467098095Y-411658571D01*
X467121904Y-411682380D01*
X467169523Y-411706190D01*
X467312380Y-411706190D01*
X467360000Y-411682380D01*
X467383809Y-411658571D01*
X466931428Y-411206190D02*
X466764761Y-411706190D01*
X466598095Y-411206190D01*
X467740952Y-406150000D02*
X467788571Y-406126190D01*
X467860000Y-406126190D01*
X467931428Y-406150000D01*
X467979047Y-406197619D01*
X468002857Y-406245238D01*
X468026666Y-406340476D01*
X468026666Y-406411904D01*
X468002857Y-406507142D01*
X467979047Y-406554761D01*
X467931428Y-406602380D01*
X467860000Y-406626190D01*
X467812380Y-406626190D01*
X467740952Y-406602380D01*
X467717142Y-406578571D01*
X467717142Y-406411904D01*
X467812380Y-406411904D01*
X467502857Y-406626190D02*
X467502857Y-406126190D01*
X467217142Y-406626190D01*
X467217142Y-406126190D01*
X466979047Y-406626190D02*
X466979047Y-406126190D01*
X466860000Y-406126190D01*
X466788571Y-406150000D01*
X466740952Y-406197619D01*
X466717142Y-406245238D01*
X466693333Y-406340476D01*
X466693333Y-406411904D01*
X466717142Y-406507142D01*
X466740952Y-406554761D01*
X466788571Y-406602380D01*
X466860000Y-406626190D01*
X466979047Y-406626190D01*
X478436809Y-332775476D02*
X478436809Y-333013571D01*
X478936809Y-333013571D01*
X478436809Y-332608809D02*
X478936809Y-332608809D01*
X478436809Y-332370714D02*
X478936809Y-332370714D01*
X478436809Y-332085000D01*
X478936809Y-332085000D01*
X478389190Y-331965952D02*
X478389190Y-331585000D01*
X478460619Y-331489761D02*
X478436809Y-331418333D01*
X478436809Y-331299285D01*
X478460619Y-331251666D01*
X478484428Y-331227857D01*
X478532047Y-331204047D01*
X478579666Y-331204047D01*
X478627285Y-331227857D01*
X478651095Y-331251666D01*
X478674904Y-331299285D01*
X478698714Y-331394523D01*
X478722523Y-331442142D01*
X478746333Y-331465952D01*
X478793952Y-331489761D01*
X478841571Y-331489761D01*
X478889190Y-331465952D01*
X478913000Y-331442142D01*
X478936809Y-331394523D01*
X478936809Y-331275476D01*
X478913000Y-331204047D01*
X478436809Y-330989761D02*
X478936809Y-330989761D01*
X478913000Y-330489761D02*
X478936809Y-330537380D01*
X478936809Y-330608809D01*
X478913000Y-330680238D01*
X478865380Y-330727857D01*
X478817761Y-330751666D01*
X478722523Y-330775476D01*
X478651095Y-330775476D01*
X478555857Y-330751666D01*
X478508238Y-330727857D01*
X478460619Y-330680238D01*
X478436809Y-330608809D01*
X478436809Y-330561190D01*
X478460619Y-330489761D01*
X478484428Y-330465952D01*
X478651095Y-330465952D01*
X478651095Y-330561190D01*
X478436809Y-330251666D02*
X478936809Y-330251666D01*
X478436809Y-329965952D01*
X478936809Y-329965952D01*
X478579666Y-329751666D02*
X478579666Y-329513571D01*
X478436809Y-329799285D02*
X478936809Y-329632619D01*
X478436809Y-329465952D01*
X478436809Y-329061190D02*
X478436809Y-329299285D01*
X478936809Y-329299285D01*
X478936809Y-328942142D02*
X478936809Y-328632619D01*
X478746333Y-328799285D01*
X478746333Y-328727857D01*
X478722523Y-328680238D01*
X478698714Y-328656428D01*
X478651095Y-328632619D01*
X478532047Y-328632619D01*
X478484428Y-328656428D01*
X478460619Y-328680238D01*
X478436809Y-328727857D01*
X478436809Y-328870714D01*
X478460619Y-328918333D01*
X478484428Y-328942142D01*
X473856809Y-331573095D02*
X473856809Y-331263571D01*
X473666333Y-331430238D01*
X473666333Y-331358809D01*
X473642523Y-331311190D01*
X473618714Y-331287380D01*
X473571095Y-331263571D01*
X473452047Y-331263571D01*
X473404428Y-331287380D01*
X473380619Y-331311190D01*
X473356809Y-331358809D01*
X473356809Y-331501666D01*
X473380619Y-331549285D01*
X473404428Y-331573095D01*
X473404428Y-331049285D02*
X473380619Y-331025476D01*
X473356809Y-331049285D01*
X473380619Y-331073095D01*
X473404428Y-331049285D01*
X473356809Y-331049285D01*
X473856809Y-330858809D02*
X473856809Y-330549285D01*
X473666333Y-330715952D01*
X473666333Y-330644523D01*
X473642523Y-330596904D01*
X473618714Y-330573095D01*
X473571095Y-330549285D01*
X473452047Y-330549285D01*
X473404428Y-330573095D01*
X473380619Y-330596904D01*
X473356809Y-330644523D01*
X473356809Y-330787380D01*
X473380619Y-330835000D01*
X473404428Y-330858809D01*
X473856809Y-330406428D02*
X473356809Y-330239761D01*
X473856809Y-330073095D01*
X468880000Y-331342952D02*
X468903809Y-331390571D01*
X468903809Y-331462000D01*
X468880000Y-331533428D01*
X468832380Y-331581047D01*
X468784761Y-331604857D01*
X468689523Y-331628666D01*
X468618095Y-331628666D01*
X468522857Y-331604857D01*
X468475238Y-331581047D01*
X468427619Y-331533428D01*
X468403809Y-331462000D01*
X468403809Y-331414380D01*
X468427619Y-331342952D01*
X468451428Y-331319142D01*
X468618095Y-331319142D01*
X468618095Y-331414380D01*
X468403809Y-331104857D02*
X468903809Y-331104857D01*
X468403809Y-330819142D01*
X468903809Y-330819142D01*
X468403809Y-330581047D02*
X468903809Y-330581047D01*
X468903809Y-330462000D01*
X468880000Y-330390571D01*
X468832380Y-330342952D01*
X468784761Y-330319142D01*
X468689523Y-330295333D01*
X468618095Y-330295333D01*
X468522857Y-330319142D01*
X468475238Y-330342952D01*
X468427619Y-330390571D01*
X468403809Y-330462000D01*
X468403809Y-330581047D01*
X539924523Y-460577380D02*
X539853095Y-460601190D01*
X539734047Y-460601190D01*
X539686428Y-460577380D01*
X539662619Y-460553571D01*
X539638809Y-460505952D01*
X539638809Y-460458333D01*
X539662619Y-460410714D01*
X539686428Y-460386904D01*
X539734047Y-460363095D01*
X539829285Y-460339285D01*
X539876904Y-460315476D01*
X539900714Y-460291666D01*
X539924523Y-460244047D01*
X539924523Y-460196428D01*
X539900714Y-460148809D01*
X539876904Y-460125000D01*
X539829285Y-460101190D01*
X539710238Y-460101190D01*
X539638809Y-460125000D01*
X539448333Y-460577380D02*
X539376904Y-460601190D01*
X539257857Y-460601190D01*
X539210238Y-460577380D01*
X539186428Y-460553571D01*
X539162619Y-460505952D01*
X539162619Y-460458333D01*
X539186428Y-460410714D01*
X539210238Y-460386904D01*
X539257857Y-460363095D01*
X539353095Y-460339285D01*
X539400714Y-460315476D01*
X539424523Y-460291666D01*
X539448333Y-460244047D01*
X539448333Y-460196428D01*
X539424523Y-460148809D01*
X539400714Y-460125000D01*
X539353095Y-460101190D01*
X539234047Y-460101190D01*
X539162619Y-460125000D01*
X539067380Y-460648809D02*
X538686428Y-460648809D01*
X538591190Y-460148809D02*
X538567380Y-460125000D01*
X538519761Y-460101190D01*
X538400714Y-460101190D01*
X538353095Y-460125000D01*
X538329285Y-460148809D01*
X538305476Y-460196428D01*
X538305476Y-460244047D01*
X538329285Y-460315476D01*
X538615000Y-460601190D01*
X538305476Y-460601190D01*
X529129523Y-464514380D02*
X529058095Y-464538190D01*
X528939047Y-464538190D01*
X528891428Y-464514380D01*
X528867619Y-464490571D01*
X528843809Y-464442952D01*
X528843809Y-464395333D01*
X528867619Y-464347714D01*
X528891428Y-464323904D01*
X528939047Y-464300095D01*
X529034285Y-464276285D01*
X529081904Y-464252476D01*
X529105714Y-464228666D01*
X529129523Y-464181047D01*
X529129523Y-464133428D01*
X529105714Y-464085809D01*
X529081904Y-464062000D01*
X529034285Y-464038190D01*
X528915238Y-464038190D01*
X528843809Y-464062000D01*
X528653333Y-464514380D02*
X528581904Y-464538190D01*
X528462857Y-464538190D01*
X528415238Y-464514380D01*
X528391428Y-464490571D01*
X528367619Y-464442952D01*
X528367619Y-464395333D01*
X528391428Y-464347714D01*
X528415238Y-464323904D01*
X528462857Y-464300095D01*
X528558095Y-464276285D01*
X528605714Y-464252476D01*
X528629523Y-464228666D01*
X528653333Y-464181047D01*
X528653333Y-464133428D01*
X528629523Y-464085809D01*
X528605714Y-464062000D01*
X528558095Y-464038190D01*
X528439047Y-464038190D01*
X528367619Y-464062000D01*
X528272380Y-464585809D02*
X527891428Y-464585809D01*
X527510476Y-464538190D02*
X527796190Y-464538190D01*
X527653333Y-464538190D02*
X527653333Y-464038190D01*
X527700952Y-464109619D01*
X527748571Y-464157238D01*
X527796190Y-464181047D01*
X469300476Y-416786190D02*
X469538571Y-416786190D01*
X469538571Y-416286190D01*
X469133809Y-416786190D02*
X469133809Y-416286190D01*
X468895714Y-416786190D02*
X468895714Y-416286190D01*
X468610000Y-416786190D01*
X468610000Y-416286190D01*
X468490952Y-416833809D02*
X468110000Y-416833809D01*
X468014761Y-416762380D02*
X467943333Y-416786190D01*
X467824285Y-416786190D01*
X467776666Y-416762380D01*
X467752857Y-416738571D01*
X467729047Y-416690952D01*
X467729047Y-416643333D01*
X467752857Y-416595714D01*
X467776666Y-416571904D01*
X467824285Y-416548095D01*
X467919523Y-416524285D01*
X467967142Y-416500476D01*
X467990952Y-416476666D01*
X468014761Y-416429047D01*
X468014761Y-416381428D01*
X467990952Y-416333809D01*
X467967142Y-416310000D01*
X467919523Y-416286190D01*
X467800476Y-416286190D01*
X467729047Y-416310000D01*
X467514761Y-416786190D02*
X467514761Y-416286190D01*
X467014761Y-416310000D02*
X467062380Y-416286190D01*
X467133809Y-416286190D01*
X467205238Y-416310000D01*
X467252857Y-416357619D01*
X467276666Y-416405238D01*
X467300476Y-416500476D01*
X467300476Y-416571904D01*
X467276666Y-416667142D01*
X467252857Y-416714761D01*
X467205238Y-416762380D01*
X467133809Y-416786190D01*
X467086190Y-416786190D01*
X467014761Y-416762380D01*
X466990952Y-416738571D01*
X466990952Y-416571904D01*
X467086190Y-416571904D01*
X466776666Y-416786190D02*
X466776666Y-416286190D01*
X466490952Y-416786190D01*
X466490952Y-416286190D01*
X466276666Y-416643333D02*
X466038571Y-416643333D01*
X466324285Y-416786190D02*
X466157619Y-416286190D01*
X465990952Y-416786190D01*
X465586190Y-416786190D02*
X465824285Y-416786190D01*
X465824285Y-416286190D01*
X465157619Y-416786190D02*
X465443333Y-416786190D01*
X465300476Y-416786190D02*
X465300476Y-416286190D01*
X465348095Y-416357619D01*
X465395714Y-416405238D01*
X465443333Y-416429047D01*
X457997476Y-462252190D02*
X458235571Y-462252190D01*
X458235571Y-461752190D01*
X457830809Y-462252190D02*
X457830809Y-461752190D01*
X457592714Y-462252190D02*
X457592714Y-461752190D01*
X457307000Y-462252190D01*
X457307000Y-461752190D01*
X457187952Y-462299809D02*
X456807000Y-462299809D01*
X456711761Y-462228380D02*
X456640333Y-462252190D01*
X456521285Y-462252190D01*
X456473666Y-462228380D01*
X456449857Y-462204571D01*
X456426047Y-462156952D01*
X456426047Y-462109333D01*
X456449857Y-462061714D01*
X456473666Y-462037904D01*
X456521285Y-462014095D01*
X456616523Y-461990285D01*
X456664142Y-461966476D01*
X456687952Y-461942666D01*
X456711761Y-461895047D01*
X456711761Y-461847428D01*
X456687952Y-461799809D01*
X456664142Y-461776000D01*
X456616523Y-461752190D01*
X456497476Y-461752190D01*
X456426047Y-461776000D01*
X456211761Y-462252190D02*
X456211761Y-461752190D01*
X455711761Y-461776000D02*
X455759380Y-461752190D01*
X455830809Y-461752190D01*
X455902238Y-461776000D01*
X455949857Y-461823619D01*
X455973666Y-461871238D01*
X455997476Y-461966476D01*
X455997476Y-462037904D01*
X455973666Y-462133142D01*
X455949857Y-462180761D01*
X455902238Y-462228380D01*
X455830809Y-462252190D01*
X455783190Y-462252190D01*
X455711761Y-462228380D01*
X455687952Y-462204571D01*
X455687952Y-462037904D01*
X455783190Y-462037904D01*
X455473666Y-462252190D02*
X455473666Y-461752190D01*
X455187952Y-462252190D01*
X455187952Y-461752190D01*
X454973666Y-462109333D02*
X454735571Y-462109333D01*
X455021285Y-462252190D02*
X454854619Y-461752190D01*
X454687952Y-462252190D01*
X454283190Y-462252190D02*
X454521285Y-462252190D01*
X454521285Y-461752190D01*
X454140333Y-461799809D02*
X454116523Y-461776000D01*
X454068904Y-461752190D01*
X453949857Y-461752190D01*
X453902238Y-461776000D01*
X453878428Y-461799809D01*
X453854619Y-461847428D01*
X453854619Y-461895047D01*
X453878428Y-461966476D01*
X454164142Y-462252190D01*
X453854619Y-462252190D01*
X573186619Y-433415285D02*
X573115190Y-433439095D01*
X573091380Y-433462904D01*
X573067571Y-433510523D01*
X573067571Y-433581952D01*
X573091380Y-433629571D01*
X573115190Y-433653380D01*
X573162809Y-433677190D01*
X573353285Y-433677190D01*
X573353285Y-433177190D01*
X573186619Y-433177190D01*
X573139000Y-433201000D01*
X573115190Y-433224809D01*
X573091380Y-433272428D01*
X573091380Y-433320047D01*
X573115190Y-433367666D01*
X573139000Y-433391476D01*
X573186619Y-433415285D01*
X573353285Y-433415285D01*
X572877095Y-433534333D02*
X572639000Y-433534333D01*
X572924714Y-433677190D02*
X572758047Y-433177190D01*
X572591380Y-433677190D01*
X572496142Y-433177190D02*
X572210428Y-433177190D01*
X572353285Y-433677190D02*
X572353285Y-433177190D01*
X572115190Y-433177190D02*
X571829476Y-433177190D01*
X571972333Y-433677190D02*
X571972333Y-433177190D01*
X571400904Y-433677190D02*
X571686619Y-433677190D01*
X571543761Y-433677190D02*
X571543761Y-433177190D01*
X571591380Y-433248619D01*
X571639000Y-433296238D01*
X571686619Y-433320047D01*
X548604285Y-329402380D02*
X548628095Y-329473809D01*
X548651904Y-329497619D01*
X548699523Y-329521428D01*
X548770952Y-329521428D01*
X548818571Y-329497619D01*
X548842380Y-329473809D01*
X548866190Y-329426190D01*
X548866190Y-329235714D01*
X548366190Y-329235714D01*
X548366190Y-329402380D01*
X548390000Y-329450000D01*
X548413809Y-329473809D01*
X548461428Y-329497619D01*
X548509047Y-329497619D01*
X548556666Y-329473809D01*
X548580476Y-329450000D01*
X548604285Y-329402380D01*
X548604285Y-329235714D01*
X548723333Y-329711904D02*
X548723333Y-329950000D01*
X548866190Y-329664285D02*
X548366190Y-329830952D01*
X548866190Y-329997619D01*
X548366190Y-330092857D02*
X548366190Y-330378571D01*
X548866190Y-330235714D02*
X548366190Y-330235714D01*
X548366190Y-330473809D02*
X548366190Y-330759523D01*
X548866190Y-330616666D02*
X548366190Y-330616666D01*
X548866190Y-331188095D02*
X548866190Y-330902380D01*
X548866190Y-331045238D02*
X548366190Y-331045238D01*
X548437619Y-330997619D01*
X548485238Y-330950000D01*
X548509047Y-330902380D01*
X501360285Y-331180380D02*
X501384095Y-331251809D01*
X501407904Y-331275619D01*
X501455523Y-331299428D01*
X501526952Y-331299428D01*
X501574571Y-331275619D01*
X501598380Y-331251809D01*
X501622190Y-331204190D01*
X501622190Y-331013714D01*
X501122190Y-331013714D01*
X501122190Y-331180380D01*
X501146000Y-331228000D01*
X501169809Y-331251809D01*
X501217428Y-331275619D01*
X501265047Y-331275619D01*
X501312666Y-331251809D01*
X501336476Y-331228000D01*
X501360285Y-331180380D01*
X501360285Y-331013714D01*
X501479333Y-331489904D02*
X501479333Y-331728000D01*
X501622190Y-331442285D02*
X501122190Y-331608952D01*
X501622190Y-331775619D01*
X501122190Y-331870857D02*
X501122190Y-332156571D01*
X501622190Y-332013714D02*
X501122190Y-332013714D01*
X501122190Y-332251809D02*
X501122190Y-332537523D01*
X501622190Y-332394666D02*
X501122190Y-332394666D01*
X501622190Y-332966095D02*
X501622190Y-332680380D01*
X501622190Y-332823238D02*
X501122190Y-332823238D01*
X501193619Y-332775619D01*
X501241238Y-332728000D01*
X501265047Y-332680380D01*
X473058904Y-461752190D02*
X472963666Y-461752190D01*
X472916047Y-461776000D01*
X472868428Y-461823619D01*
X472844619Y-461918857D01*
X472844619Y-462085523D01*
X472868428Y-462180761D01*
X472916047Y-462228380D01*
X472963666Y-462252190D01*
X473058904Y-462252190D01*
X473106523Y-462228380D01*
X473154142Y-462180761D01*
X473177952Y-462085523D01*
X473177952Y-461918857D01*
X473154142Y-461823619D01*
X473106523Y-461776000D01*
X473058904Y-461752190D01*
X472630333Y-461752190D02*
X472630333Y-462156952D01*
X472606523Y-462204571D01*
X472582714Y-462228380D01*
X472535095Y-462252190D01*
X472439857Y-462252190D01*
X472392238Y-462228380D01*
X472368428Y-462204571D01*
X472344619Y-462156952D01*
X472344619Y-461752190D01*
X472177952Y-461752190D02*
X471892238Y-461752190D01*
X472035095Y-462252190D02*
X472035095Y-461752190D01*
X471558904Y-461990285D02*
X471487476Y-462014095D01*
X471463666Y-462037904D01*
X471439857Y-462085523D01*
X471439857Y-462156952D01*
X471463666Y-462204571D01*
X471487476Y-462228380D01*
X471535095Y-462252190D01*
X471725571Y-462252190D01*
X471725571Y-461752190D01*
X471558904Y-461752190D01*
X471511285Y-461776000D01*
X471487476Y-461799809D01*
X471463666Y-461847428D01*
X471463666Y-461895047D01*
X471487476Y-461942666D01*
X471511285Y-461966476D01*
X471558904Y-461990285D01*
X471725571Y-461990285D01*
X471249380Y-461799809D02*
X471225571Y-461776000D01*
X471177952Y-461752190D01*
X471058904Y-461752190D01*
X471011285Y-461776000D01*
X470987476Y-461799809D01*
X470963666Y-461847428D01*
X470963666Y-461895047D01*
X470987476Y-461966476D01*
X471273190Y-462252190D01*
X470963666Y-462252190D01*
X470868428Y-462299809D02*
X470487476Y-462299809D01*
X470130333Y-462252190D02*
X470368428Y-462252190D01*
X470368428Y-461752190D01*
X469963666Y-462252190D02*
X469963666Y-461752190D01*
X469725571Y-462252190D02*
X469725571Y-461752190D01*
X469439857Y-462252190D01*
X469439857Y-461752190D01*
X478103190Y-461752190D02*
X478007952Y-461752190D01*
X477960333Y-461776000D01*
X477912714Y-461823619D01*
X477888904Y-461918857D01*
X477888904Y-462085523D01*
X477912714Y-462180761D01*
X477960333Y-462228380D01*
X478007952Y-462252190D01*
X478103190Y-462252190D01*
X478150809Y-462228380D01*
X478198428Y-462180761D01*
X478222238Y-462085523D01*
X478222238Y-461918857D01*
X478198428Y-461823619D01*
X478150809Y-461776000D01*
X478103190Y-461752190D01*
X477674619Y-461752190D02*
X477674619Y-462156952D01*
X477650809Y-462204571D01*
X477627000Y-462228380D01*
X477579380Y-462252190D01*
X477484142Y-462252190D01*
X477436523Y-462228380D01*
X477412714Y-462204571D01*
X477388904Y-462156952D01*
X477388904Y-461752190D01*
X477222238Y-461752190D02*
X476936523Y-461752190D01*
X477079380Y-462252190D02*
X477079380Y-461752190D01*
X476793666Y-462109333D02*
X476555571Y-462109333D01*
X476841285Y-462252190D02*
X476674619Y-461752190D01*
X476507952Y-462252190D01*
X476365095Y-461799809D02*
X476341285Y-461776000D01*
X476293666Y-461752190D01*
X476174619Y-461752190D01*
X476127000Y-461776000D01*
X476103190Y-461799809D01*
X476079380Y-461847428D01*
X476079380Y-461895047D01*
X476103190Y-461966476D01*
X476388904Y-462252190D01*
X476079380Y-462252190D01*
X475984142Y-462299809D02*
X475603190Y-462299809D01*
X475246047Y-462252190D02*
X475484142Y-462252190D01*
X475484142Y-461752190D01*
X475079380Y-462252190D02*
X475079380Y-461752190D01*
X474841285Y-462252190D02*
X474841285Y-461752190D01*
X474555571Y-462252190D01*
X474555571Y-461752190D01*
X458235809Y-332688190D02*
X458235809Y-332592952D01*
X458212000Y-332545333D01*
X458164380Y-332497714D01*
X458069142Y-332473904D01*
X457902476Y-332473904D01*
X457807238Y-332497714D01*
X457759619Y-332545333D01*
X457735809Y-332592952D01*
X457735809Y-332688190D01*
X457759619Y-332735809D01*
X457807238Y-332783428D01*
X457902476Y-332807238D01*
X458069142Y-332807238D01*
X458164380Y-332783428D01*
X458212000Y-332735809D01*
X458235809Y-332688190D01*
X458235809Y-332259619D02*
X457831047Y-332259619D01*
X457783428Y-332235809D01*
X457759619Y-332212000D01*
X457735809Y-332164380D01*
X457735809Y-332069142D01*
X457759619Y-332021523D01*
X457783428Y-331997714D01*
X457831047Y-331973904D01*
X458235809Y-331973904D01*
X458235809Y-331807238D02*
X458235809Y-331521523D01*
X457735809Y-331664380D02*
X458235809Y-331664380D01*
X457878666Y-331378666D02*
X457878666Y-331140571D01*
X457735809Y-331426285D02*
X458235809Y-331259619D01*
X457735809Y-331092952D01*
X458235809Y-330973904D02*
X458235809Y-330664380D01*
X458045333Y-330831047D01*
X458045333Y-330759619D01*
X458021523Y-330712000D01*
X457997714Y-330688190D01*
X457950095Y-330664380D01*
X457831047Y-330664380D01*
X457783428Y-330688190D01*
X457759619Y-330712000D01*
X457735809Y-330759619D01*
X457735809Y-330902476D01*
X457759619Y-330950095D01*
X457783428Y-330973904D01*
X457688190Y-330569142D02*
X457688190Y-330188190D01*
X457735809Y-329831047D02*
X457735809Y-330069142D01*
X458235809Y-330069142D01*
X457735809Y-329664380D02*
X458235809Y-329664380D01*
X457735809Y-329426285D02*
X458235809Y-329426285D01*
X457735809Y-329140571D01*
X458235809Y-329140571D01*
X463823809Y-332723904D02*
X463823809Y-332628666D01*
X463800000Y-332581047D01*
X463752380Y-332533428D01*
X463657142Y-332509619D01*
X463490476Y-332509619D01*
X463395238Y-332533428D01*
X463347619Y-332581047D01*
X463323809Y-332628666D01*
X463323809Y-332723904D01*
X463347619Y-332771523D01*
X463395238Y-332819142D01*
X463490476Y-332842952D01*
X463657142Y-332842952D01*
X463752380Y-332819142D01*
X463800000Y-332771523D01*
X463823809Y-332723904D01*
X463823809Y-332295333D02*
X463419047Y-332295333D01*
X463371428Y-332271523D01*
X463347619Y-332247714D01*
X463323809Y-332200095D01*
X463323809Y-332104857D01*
X463347619Y-332057238D01*
X463371428Y-332033428D01*
X463419047Y-332009619D01*
X463823809Y-332009619D01*
X463823809Y-331842952D02*
X463823809Y-331557238D01*
X463323809Y-331700095D02*
X463823809Y-331700095D01*
X463585714Y-331223904D02*
X463561904Y-331152476D01*
X463538095Y-331128666D01*
X463490476Y-331104857D01*
X463419047Y-331104857D01*
X463371428Y-331128666D01*
X463347619Y-331152476D01*
X463323809Y-331200095D01*
X463323809Y-331390571D01*
X463823809Y-331390571D01*
X463823809Y-331223904D01*
X463800000Y-331176285D01*
X463776190Y-331152476D01*
X463728571Y-331128666D01*
X463680952Y-331128666D01*
X463633333Y-331152476D01*
X463609523Y-331176285D01*
X463585714Y-331223904D01*
X463585714Y-331390571D01*
X463823809Y-330938190D02*
X463823809Y-330628666D01*
X463633333Y-330795333D01*
X463633333Y-330723904D01*
X463609523Y-330676285D01*
X463585714Y-330652476D01*
X463538095Y-330628666D01*
X463419047Y-330628666D01*
X463371428Y-330652476D01*
X463347619Y-330676285D01*
X463323809Y-330723904D01*
X463323809Y-330866761D01*
X463347619Y-330914380D01*
X463371428Y-330938190D01*
X463276190Y-330533428D02*
X463276190Y-330152476D01*
X463323809Y-329795333D02*
X463323809Y-330033428D01*
X463823809Y-330033428D01*
X463323809Y-329628666D02*
X463823809Y-329628666D01*
X463323809Y-329390571D02*
X463823809Y-329390571D01*
X463323809Y-329104857D01*
X463823809Y-329104857D01*
X465633809Y-396513809D02*
X465729047Y-396513809D01*
X465776666Y-396490000D01*
X465824285Y-396442380D01*
X465848095Y-396347142D01*
X465848095Y-396180476D01*
X465824285Y-396085238D01*
X465776666Y-396037619D01*
X465729047Y-396013809D01*
X465633809Y-396013809D01*
X465586190Y-396037619D01*
X465538571Y-396085238D01*
X465514761Y-396180476D01*
X465514761Y-396347142D01*
X465538571Y-396442380D01*
X465586190Y-396490000D01*
X465633809Y-396513809D01*
X466062380Y-396513809D02*
X466062380Y-396109047D01*
X466086190Y-396061428D01*
X466110000Y-396037619D01*
X466157619Y-396013809D01*
X466252857Y-396013809D01*
X466300476Y-396037619D01*
X466324285Y-396061428D01*
X466348095Y-396109047D01*
X466348095Y-396513809D01*
X466514761Y-396513809D02*
X466800476Y-396513809D01*
X466657619Y-396013809D02*
X466657619Y-396513809D01*
X466943333Y-396156666D02*
X467181428Y-396156666D01*
X466895714Y-396013809D02*
X467062380Y-396513809D01*
X467229047Y-396013809D01*
X467657619Y-396013809D02*
X467371904Y-396013809D01*
X467514761Y-396013809D02*
X467514761Y-396513809D01*
X467467142Y-396442380D01*
X467419523Y-396394761D01*
X467371904Y-396370952D01*
X467752857Y-395966190D02*
X468133809Y-395966190D01*
X468490952Y-396013809D02*
X468252857Y-396013809D01*
X468252857Y-396513809D01*
X468657619Y-396013809D02*
X468657619Y-396513809D01*
X468895714Y-396013809D02*
X468895714Y-396513809D01*
X469181428Y-396013809D01*
X469181428Y-396513809D01*
X465598095Y-401593809D02*
X465693333Y-401593809D01*
X465740952Y-401570000D01*
X465788571Y-401522380D01*
X465812380Y-401427142D01*
X465812380Y-401260476D01*
X465788571Y-401165238D01*
X465740952Y-401117619D01*
X465693333Y-401093809D01*
X465598095Y-401093809D01*
X465550476Y-401117619D01*
X465502857Y-401165238D01*
X465479047Y-401260476D01*
X465479047Y-401427142D01*
X465502857Y-401522380D01*
X465550476Y-401570000D01*
X465598095Y-401593809D01*
X466026666Y-401593809D02*
X466026666Y-401189047D01*
X466050476Y-401141428D01*
X466074285Y-401117619D01*
X466121904Y-401093809D01*
X466217142Y-401093809D01*
X466264761Y-401117619D01*
X466288571Y-401141428D01*
X466312380Y-401189047D01*
X466312380Y-401593809D01*
X466479047Y-401593809D02*
X466764761Y-401593809D01*
X466621904Y-401093809D02*
X466621904Y-401593809D01*
X467098095Y-401355714D02*
X467169523Y-401331904D01*
X467193333Y-401308095D01*
X467217142Y-401260476D01*
X467217142Y-401189047D01*
X467193333Y-401141428D01*
X467169523Y-401117619D01*
X467121904Y-401093809D01*
X466931428Y-401093809D01*
X466931428Y-401593809D01*
X467098095Y-401593809D01*
X467145714Y-401570000D01*
X467169523Y-401546190D01*
X467193333Y-401498571D01*
X467193333Y-401450952D01*
X467169523Y-401403333D01*
X467145714Y-401379523D01*
X467098095Y-401355714D01*
X466931428Y-401355714D01*
X467693333Y-401093809D02*
X467407619Y-401093809D01*
X467550476Y-401093809D02*
X467550476Y-401593809D01*
X467502857Y-401522380D01*
X467455238Y-401474761D01*
X467407619Y-401450952D01*
X467788571Y-401046190D02*
X468169523Y-401046190D01*
X468526666Y-401093809D02*
X468288571Y-401093809D01*
X468288571Y-401593809D01*
X468693333Y-401093809D02*
X468693333Y-401593809D01*
X468931428Y-401093809D02*
X468931428Y-401593809D01*
X469217142Y-401093809D01*
X469217142Y-401593809D01*
X468756857Y-425684190D02*
X468661619Y-425684190D01*
X468614000Y-425708000D01*
X468566380Y-425755619D01*
X468542571Y-425850857D01*
X468542571Y-426017523D01*
X468566380Y-426112761D01*
X468614000Y-426160380D01*
X468661619Y-426184190D01*
X468756857Y-426184190D01*
X468804476Y-426160380D01*
X468852095Y-426112761D01*
X468875904Y-426017523D01*
X468875904Y-425850857D01*
X468852095Y-425755619D01*
X468804476Y-425708000D01*
X468756857Y-425684190D01*
X468328285Y-425684190D02*
X468328285Y-426088952D01*
X468304476Y-426136571D01*
X468280666Y-426160380D01*
X468233047Y-426184190D01*
X468137809Y-426184190D01*
X468090190Y-426160380D01*
X468066380Y-426136571D01*
X468042571Y-426088952D01*
X468042571Y-425684190D01*
X467875904Y-425684190D02*
X467590190Y-425684190D01*
X467733047Y-426184190D02*
X467733047Y-425684190D01*
X467447333Y-426041333D02*
X467209238Y-426041333D01*
X467494952Y-426184190D02*
X467328285Y-425684190D01*
X467161619Y-426184190D01*
X467114000Y-426231809D02*
X466733047Y-426231809D01*
X466661619Y-425684190D02*
X466352095Y-425684190D01*
X466518761Y-425874666D01*
X466447333Y-425874666D01*
X466399714Y-425898476D01*
X466375904Y-425922285D01*
X466352095Y-425969904D01*
X466352095Y-426088952D01*
X466375904Y-426136571D01*
X466399714Y-426160380D01*
X466447333Y-426184190D01*
X466590190Y-426184190D01*
X466637809Y-426160380D01*
X466661619Y-426136571D01*
X468284571Y-433304190D02*
X468189333Y-433304190D01*
X468141714Y-433328000D01*
X468094095Y-433375619D01*
X468070285Y-433470857D01*
X468070285Y-433637523D01*
X468094095Y-433732761D01*
X468141714Y-433780380D01*
X468189333Y-433804190D01*
X468284571Y-433804190D01*
X468332190Y-433780380D01*
X468379809Y-433732761D01*
X468403619Y-433637523D01*
X468403619Y-433470857D01*
X468379809Y-433375619D01*
X468332190Y-433328000D01*
X468284571Y-433304190D01*
X467856000Y-433304190D02*
X467856000Y-433708952D01*
X467832190Y-433756571D01*
X467808380Y-433780380D01*
X467760761Y-433804190D01*
X467665523Y-433804190D01*
X467617904Y-433780380D01*
X467594095Y-433756571D01*
X467570285Y-433708952D01*
X467570285Y-433304190D01*
X467403619Y-433304190D02*
X467117904Y-433304190D01*
X467260761Y-433804190D02*
X467260761Y-433304190D01*
X466784571Y-433542285D02*
X466713142Y-433566095D01*
X466689333Y-433589904D01*
X466665523Y-433637523D01*
X466665523Y-433708952D01*
X466689333Y-433756571D01*
X466713142Y-433780380D01*
X466760761Y-433804190D01*
X466951238Y-433804190D01*
X466951238Y-433304190D01*
X466784571Y-433304190D01*
X466736952Y-433328000D01*
X466713142Y-433351809D01*
X466689333Y-433399428D01*
X466689333Y-433447047D01*
X466713142Y-433494666D01*
X466736952Y-433518476D01*
X466784571Y-433542285D01*
X466951238Y-433542285D01*
X466570285Y-433851809D02*
X466189333Y-433851809D01*
X466117904Y-433304190D02*
X465808380Y-433304190D01*
X465975047Y-433494666D01*
X465903619Y-433494666D01*
X465856000Y-433518476D01*
X465832190Y-433542285D01*
X465808380Y-433589904D01*
X465808380Y-433708952D01*
X465832190Y-433756571D01*
X465856000Y-433780380D01*
X465903619Y-433804190D01*
X466046476Y-433804190D01*
X466094095Y-433780380D01*
X466117904Y-433756571D01*
X579119857Y-401427190D02*
X579024619Y-401427190D01*
X578977000Y-401451000D01*
X578929380Y-401498619D01*
X578905571Y-401593857D01*
X578905571Y-401760523D01*
X578929380Y-401855761D01*
X578977000Y-401903380D01*
X579024619Y-401927190D01*
X579119857Y-401927190D01*
X579167476Y-401903380D01*
X579215095Y-401855761D01*
X579238904Y-401760523D01*
X579238904Y-401593857D01*
X579215095Y-401498619D01*
X579167476Y-401451000D01*
X579119857Y-401427190D01*
X578691285Y-401427190D02*
X578691285Y-401831952D01*
X578667476Y-401879571D01*
X578643666Y-401903380D01*
X578596047Y-401927190D01*
X578500809Y-401927190D01*
X578453190Y-401903380D01*
X578429380Y-401879571D01*
X578405571Y-401831952D01*
X578405571Y-401427190D01*
X578238904Y-401427190D02*
X577953190Y-401427190D01*
X578096047Y-401927190D02*
X578096047Y-401427190D01*
X577810333Y-401784333D02*
X577572238Y-401784333D01*
X577857952Y-401927190D02*
X577691285Y-401427190D01*
X577524619Y-401927190D01*
X577477000Y-401974809D02*
X577096047Y-401974809D01*
X576762714Y-401593857D02*
X576762714Y-401927190D01*
X576881761Y-401403380D02*
X577000809Y-401760523D01*
X576691285Y-401760523D01*
X579028571Y-390124190D02*
X578933333Y-390124190D01*
X578885714Y-390148000D01*
X578838095Y-390195619D01*
X578814285Y-390290857D01*
X578814285Y-390457523D01*
X578838095Y-390552761D01*
X578885714Y-390600380D01*
X578933333Y-390624190D01*
X579028571Y-390624190D01*
X579076190Y-390600380D01*
X579123809Y-390552761D01*
X579147619Y-390457523D01*
X579147619Y-390290857D01*
X579123809Y-390195619D01*
X579076190Y-390148000D01*
X579028571Y-390124190D01*
X578600000Y-390124190D02*
X578600000Y-390528952D01*
X578576190Y-390576571D01*
X578552380Y-390600380D01*
X578504761Y-390624190D01*
X578409523Y-390624190D01*
X578361904Y-390600380D01*
X578338095Y-390576571D01*
X578314285Y-390528952D01*
X578314285Y-390124190D01*
X578147619Y-390124190D02*
X577861904Y-390124190D01*
X578004761Y-390624190D02*
X578004761Y-390124190D01*
X577528571Y-390362285D02*
X577457142Y-390386095D01*
X577433333Y-390409904D01*
X577409523Y-390457523D01*
X577409523Y-390528952D01*
X577433333Y-390576571D01*
X577457142Y-390600380D01*
X577504761Y-390624190D01*
X577695238Y-390624190D01*
X577695238Y-390124190D01*
X577528571Y-390124190D01*
X577480952Y-390148000D01*
X577457142Y-390171809D01*
X577433333Y-390219428D01*
X577433333Y-390267047D01*
X577457142Y-390314666D01*
X577480952Y-390338476D01*
X577528571Y-390362285D01*
X577695238Y-390362285D01*
X577314285Y-390671809D02*
X576933333Y-390671809D01*
X576600000Y-390290857D02*
X576600000Y-390624190D01*
X576719047Y-390100380D02*
X576838095Y-390457523D01*
X576528571Y-390457523D01*
X572896857Y-450830190D02*
X572801619Y-450830190D01*
X572754000Y-450854000D01*
X572706380Y-450901619D01*
X572682571Y-450996857D01*
X572682571Y-451163523D01*
X572706380Y-451258761D01*
X572754000Y-451306380D01*
X572801619Y-451330190D01*
X572896857Y-451330190D01*
X572944476Y-451306380D01*
X572992095Y-451258761D01*
X573015904Y-451163523D01*
X573015904Y-450996857D01*
X572992095Y-450901619D01*
X572944476Y-450854000D01*
X572896857Y-450830190D01*
X572468285Y-450830190D02*
X572468285Y-451234952D01*
X572444476Y-451282571D01*
X572420666Y-451306380D01*
X572373047Y-451330190D01*
X572277809Y-451330190D01*
X572230190Y-451306380D01*
X572206380Y-451282571D01*
X572182571Y-451234952D01*
X572182571Y-450830190D01*
X572015904Y-450830190D02*
X571730190Y-450830190D01*
X571873047Y-451330190D02*
X571873047Y-450830190D01*
X571587333Y-451187333D02*
X571349238Y-451187333D01*
X571634952Y-451330190D02*
X571468285Y-450830190D01*
X571301619Y-451330190D01*
X571254000Y-451377809D02*
X570873047Y-451377809D01*
X570777809Y-450877809D02*
X570754000Y-450854000D01*
X570706380Y-450830190D01*
X570587333Y-450830190D01*
X570539714Y-450854000D01*
X570515904Y-450877809D01*
X570492095Y-450925428D01*
X570492095Y-450973047D01*
X570515904Y-451044476D01*
X570801619Y-451330190D01*
X570492095Y-451330190D01*
X572932571Y-445242190D02*
X572837333Y-445242190D01*
X572789714Y-445266000D01*
X572742095Y-445313619D01*
X572718285Y-445408857D01*
X572718285Y-445575523D01*
X572742095Y-445670761D01*
X572789714Y-445718380D01*
X572837333Y-445742190D01*
X572932571Y-445742190D01*
X572980190Y-445718380D01*
X573027809Y-445670761D01*
X573051619Y-445575523D01*
X573051619Y-445408857D01*
X573027809Y-445313619D01*
X572980190Y-445266000D01*
X572932571Y-445242190D01*
X572504000Y-445242190D02*
X572504000Y-445646952D01*
X572480190Y-445694571D01*
X572456380Y-445718380D01*
X572408761Y-445742190D01*
X572313523Y-445742190D01*
X572265904Y-445718380D01*
X572242095Y-445694571D01*
X572218285Y-445646952D01*
X572218285Y-445242190D01*
X572051619Y-445242190D02*
X571765904Y-445242190D01*
X571908761Y-445742190D02*
X571908761Y-445242190D01*
X571432571Y-445480285D02*
X571361142Y-445504095D01*
X571337333Y-445527904D01*
X571313523Y-445575523D01*
X571313523Y-445646952D01*
X571337333Y-445694571D01*
X571361142Y-445718380D01*
X571408761Y-445742190D01*
X571599238Y-445742190D01*
X571599238Y-445242190D01*
X571432571Y-445242190D01*
X571384952Y-445266000D01*
X571361142Y-445289809D01*
X571337333Y-445337428D01*
X571337333Y-445385047D01*
X571361142Y-445432666D01*
X571384952Y-445456476D01*
X571432571Y-445480285D01*
X571599238Y-445480285D01*
X571218285Y-445789809D02*
X570837333Y-445789809D01*
X570742095Y-445289809D02*
X570718285Y-445266000D01*
X570670666Y-445242190D01*
X570551619Y-445242190D01*
X570504000Y-445266000D01*
X570480190Y-445289809D01*
X570456380Y-445337428D01*
X570456380Y-445385047D01*
X570480190Y-445456476D01*
X570765904Y-445742190D01*
X570456380Y-445742190D01*
X572678571Y-410190190D02*
X572583333Y-410190190D01*
X572535714Y-410214000D01*
X572488095Y-410261619D01*
X572464285Y-410356857D01*
X572464285Y-410523523D01*
X572488095Y-410618761D01*
X572535714Y-410666380D01*
X572583333Y-410690190D01*
X572678571Y-410690190D01*
X572726190Y-410666380D01*
X572773809Y-410618761D01*
X572797619Y-410523523D01*
X572797619Y-410356857D01*
X572773809Y-410261619D01*
X572726190Y-410214000D01*
X572678571Y-410190190D01*
X572250000Y-410190190D02*
X572250000Y-410594952D01*
X572226190Y-410642571D01*
X572202380Y-410666380D01*
X572154761Y-410690190D01*
X572059523Y-410690190D01*
X572011904Y-410666380D01*
X571988095Y-410642571D01*
X571964285Y-410594952D01*
X571964285Y-410190190D01*
X571797619Y-410190190D02*
X571511904Y-410190190D01*
X571654761Y-410690190D02*
X571654761Y-410190190D01*
X571178571Y-410428285D02*
X571107142Y-410452095D01*
X571083333Y-410475904D01*
X571059523Y-410523523D01*
X571059523Y-410594952D01*
X571083333Y-410642571D01*
X571107142Y-410666380D01*
X571154761Y-410690190D01*
X571345238Y-410690190D01*
X571345238Y-410190190D01*
X571178571Y-410190190D01*
X571130952Y-410214000D01*
X571107142Y-410237809D01*
X571083333Y-410285428D01*
X571083333Y-410333047D01*
X571107142Y-410380666D01*
X571130952Y-410404476D01*
X571178571Y-410428285D01*
X571345238Y-410428285D01*
X570964285Y-410737809D02*
X570583333Y-410737809D01*
X570202380Y-410690190D02*
X570488095Y-410690190D01*
X570345238Y-410690190D02*
X570345238Y-410190190D01*
X570392857Y-410261619D01*
X570440476Y-410309238D01*
X570488095Y-410333047D01*
X572896857Y-414889190D02*
X572801619Y-414889190D01*
X572754000Y-414913000D01*
X572706380Y-414960619D01*
X572682571Y-415055857D01*
X572682571Y-415222523D01*
X572706380Y-415317761D01*
X572754000Y-415365380D01*
X572801619Y-415389190D01*
X572896857Y-415389190D01*
X572944476Y-415365380D01*
X572992095Y-415317761D01*
X573015904Y-415222523D01*
X573015904Y-415055857D01*
X572992095Y-414960619D01*
X572944476Y-414913000D01*
X572896857Y-414889190D01*
X572468285Y-414889190D02*
X572468285Y-415293952D01*
X572444476Y-415341571D01*
X572420666Y-415365380D01*
X572373047Y-415389190D01*
X572277809Y-415389190D01*
X572230190Y-415365380D01*
X572206380Y-415341571D01*
X572182571Y-415293952D01*
X572182571Y-414889190D01*
X572015904Y-414889190D02*
X571730190Y-414889190D01*
X571873047Y-415389190D02*
X571873047Y-414889190D01*
X571587333Y-415246333D02*
X571349238Y-415246333D01*
X571634952Y-415389190D02*
X571468285Y-414889190D01*
X571301619Y-415389190D01*
X571254000Y-415436809D02*
X570873047Y-415436809D01*
X570492095Y-415389190D02*
X570777809Y-415389190D01*
X570634952Y-415389190D02*
X570634952Y-414889190D01*
X570682571Y-414960619D01*
X570730190Y-415008238D01*
X570777809Y-415032047D01*
X572464238Y-377281285D02*
X572392809Y-377305095D01*
X572369000Y-377328904D01*
X572345190Y-377376523D01*
X572345190Y-377447952D01*
X572369000Y-377495571D01*
X572392809Y-377519380D01*
X572440428Y-377543190D01*
X572630904Y-377543190D01*
X572630904Y-377043190D01*
X572464238Y-377043190D01*
X572416619Y-377067000D01*
X572392809Y-377090809D01*
X572369000Y-377138428D01*
X572369000Y-377186047D01*
X572392809Y-377233666D01*
X572416619Y-377257476D01*
X572464238Y-377281285D01*
X572630904Y-377281285D01*
X572035666Y-377043190D02*
X571940428Y-377043190D01*
X571892809Y-377067000D01*
X571845190Y-377114619D01*
X571821380Y-377209857D01*
X571821380Y-377376523D01*
X571845190Y-377471761D01*
X571892809Y-377519380D01*
X571940428Y-377543190D01*
X572035666Y-377543190D01*
X572083285Y-377519380D01*
X572130904Y-377471761D01*
X572154714Y-377376523D01*
X572154714Y-377209857D01*
X572130904Y-377114619D01*
X572083285Y-377067000D01*
X572035666Y-377043190D01*
X571607095Y-377043190D02*
X571607095Y-377447952D01*
X571583285Y-377495571D01*
X571559476Y-377519380D01*
X571511857Y-377543190D01*
X571416619Y-377543190D01*
X571369000Y-377519380D01*
X571345190Y-377495571D01*
X571321380Y-377447952D01*
X571321380Y-377043190D01*
X571154714Y-377043190D02*
X570869000Y-377043190D01*
X571011857Y-377543190D02*
X571011857Y-377043190D01*
X570440428Y-377543190D02*
X570726142Y-377543190D01*
X570583285Y-377543190D02*
X570583285Y-377043190D01*
X570630904Y-377114619D01*
X570678523Y-377162238D01*
X570726142Y-377186047D01*
X570345190Y-377590809D02*
X569964238Y-377590809D01*
X569869000Y-377090809D02*
X569845190Y-377067000D01*
X569797571Y-377043190D01*
X569678523Y-377043190D01*
X569630904Y-377067000D01*
X569607095Y-377090809D01*
X569583285Y-377138428D01*
X569583285Y-377186047D01*
X569607095Y-377257476D01*
X569892809Y-377543190D01*
X569583285Y-377543190D01*
X569492000Y-372066333D02*
X569730095Y-372066333D01*
X569444380Y-372209190D02*
X569611047Y-371709190D01*
X569777714Y-372209190D01*
X570039619Y-371709190D02*
X570134857Y-371709190D01*
X570182476Y-371733000D01*
X570230095Y-371780619D01*
X570253904Y-371875857D01*
X570253904Y-372042523D01*
X570230095Y-372137761D01*
X570182476Y-372185380D01*
X570134857Y-372209190D01*
X570039619Y-372209190D01*
X569992000Y-372185380D01*
X569944380Y-372137761D01*
X569920571Y-372042523D01*
X569920571Y-371875857D01*
X569944380Y-371780619D01*
X569992000Y-371733000D01*
X570039619Y-371709190D01*
X570468190Y-371709190D02*
X570468190Y-372113952D01*
X570492000Y-372161571D01*
X570515809Y-372185380D01*
X570563428Y-372209190D01*
X570658666Y-372209190D01*
X570706285Y-372185380D01*
X570730095Y-372161571D01*
X570753904Y-372113952D01*
X570753904Y-371709190D01*
X570920571Y-371709190D02*
X571206285Y-371709190D01*
X571063428Y-372209190D02*
X571063428Y-371709190D01*
X571349142Y-371756809D02*
X571372952Y-371733000D01*
X571420571Y-371709190D01*
X571539619Y-371709190D01*
X571587238Y-371733000D01*
X571611047Y-371756809D01*
X571634857Y-371804428D01*
X571634857Y-371852047D01*
X571611047Y-371923476D01*
X571325333Y-372209190D01*
X571634857Y-372209190D01*
X571730095Y-372256809D02*
X572111047Y-372256809D01*
X572206285Y-371756809D02*
X572230095Y-371733000D01*
X572277714Y-371709190D01*
X572396761Y-371709190D01*
X572444380Y-371733000D01*
X572468190Y-371756809D01*
X572492000Y-371804428D01*
X572492000Y-371852047D01*
X572468190Y-371923476D01*
X572182476Y-372209190D01*
X572492000Y-372209190D01*
X572337238Y-382107285D02*
X572265809Y-382131095D01*
X572242000Y-382154904D01*
X572218190Y-382202523D01*
X572218190Y-382273952D01*
X572242000Y-382321571D01*
X572265809Y-382345380D01*
X572313428Y-382369190D01*
X572503904Y-382369190D01*
X572503904Y-381869190D01*
X572337238Y-381869190D01*
X572289619Y-381893000D01*
X572265809Y-381916809D01*
X572242000Y-381964428D01*
X572242000Y-382012047D01*
X572265809Y-382059666D01*
X572289619Y-382083476D01*
X572337238Y-382107285D01*
X572503904Y-382107285D01*
X571908666Y-381869190D02*
X571813428Y-381869190D01*
X571765809Y-381893000D01*
X571718190Y-381940619D01*
X571694380Y-382035857D01*
X571694380Y-382202523D01*
X571718190Y-382297761D01*
X571765809Y-382345380D01*
X571813428Y-382369190D01*
X571908666Y-382369190D01*
X571956285Y-382345380D01*
X572003904Y-382297761D01*
X572027714Y-382202523D01*
X572027714Y-382035857D01*
X572003904Y-381940619D01*
X571956285Y-381893000D01*
X571908666Y-381869190D01*
X571480095Y-381869190D02*
X571480095Y-382273952D01*
X571456285Y-382321571D01*
X571432476Y-382345380D01*
X571384857Y-382369190D01*
X571289619Y-382369190D01*
X571242000Y-382345380D01*
X571218190Y-382321571D01*
X571194380Y-382273952D01*
X571194380Y-381869190D01*
X571027714Y-381869190D02*
X570742000Y-381869190D01*
X570884857Y-382369190D02*
X570884857Y-381869190D01*
X570599142Y-381916809D02*
X570575333Y-381893000D01*
X570527714Y-381869190D01*
X570408666Y-381869190D01*
X570361047Y-381893000D01*
X570337238Y-381916809D01*
X570313428Y-381964428D01*
X570313428Y-382012047D01*
X570337238Y-382083476D01*
X570622952Y-382369190D01*
X570313428Y-382369190D01*
X570218190Y-382416809D02*
X569837238Y-382416809D01*
X569742000Y-381916809D02*
X569718190Y-381893000D01*
X569670571Y-381869190D01*
X569551523Y-381869190D01*
X569503904Y-381893000D01*
X569480095Y-381916809D01*
X569456285Y-381964428D01*
X569456285Y-382012047D01*
X569480095Y-382083476D01*
X569765809Y-382369190D01*
X569456285Y-382369190D01*
X572365000Y-367113333D02*
X572126904Y-367113333D01*
X572412619Y-367256190D02*
X572245952Y-366756190D01*
X572079285Y-367256190D01*
X571817380Y-366756190D02*
X571722142Y-366756190D01*
X571674523Y-366780000D01*
X571626904Y-366827619D01*
X571603095Y-366922857D01*
X571603095Y-367089523D01*
X571626904Y-367184761D01*
X571674523Y-367232380D01*
X571722142Y-367256190D01*
X571817380Y-367256190D01*
X571865000Y-367232380D01*
X571912619Y-367184761D01*
X571936428Y-367089523D01*
X571936428Y-366922857D01*
X571912619Y-366827619D01*
X571865000Y-366780000D01*
X571817380Y-366756190D01*
X571388809Y-366756190D02*
X571388809Y-367160952D01*
X571365000Y-367208571D01*
X571341190Y-367232380D01*
X571293571Y-367256190D01*
X571198333Y-367256190D01*
X571150714Y-367232380D01*
X571126904Y-367208571D01*
X571103095Y-367160952D01*
X571103095Y-366756190D01*
X570936428Y-366756190D02*
X570650714Y-366756190D01*
X570793571Y-367256190D02*
X570793571Y-366756190D01*
X570222142Y-367256190D02*
X570507857Y-367256190D01*
X570365000Y-367256190D02*
X570365000Y-366756190D01*
X570412619Y-366827619D01*
X570460238Y-366875238D01*
X570507857Y-366899047D01*
X570126904Y-367303809D02*
X569745952Y-367303809D01*
X569650714Y-366803809D02*
X569626904Y-366780000D01*
X569579285Y-366756190D01*
X569460238Y-366756190D01*
X569412619Y-366780000D01*
X569388809Y-366803809D01*
X569365000Y-366851428D01*
X569365000Y-366899047D01*
X569388809Y-366970476D01*
X569674523Y-367256190D01*
X569365000Y-367256190D01*
X571730000Y-327997333D02*
X571491904Y-327997333D01*
X571777619Y-328140190D02*
X571610952Y-327640190D01*
X571444285Y-328140190D01*
X571182380Y-327640190D02*
X571087142Y-327640190D01*
X571039523Y-327664000D01*
X570991904Y-327711619D01*
X570968095Y-327806857D01*
X570968095Y-327973523D01*
X570991904Y-328068761D01*
X571039523Y-328116380D01*
X571087142Y-328140190D01*
X571182380Y-328140190D01*
X571230000Y-328116380D01*
X571277619Y-328068761D01*
X571301428Y-327973523D01*
X571301428Y-327806857D01*
X571277619Y-327711619D01*
X571230000Y-327664000D01*
X571182380Y-327640190D01*
X570753809Y-327640190D02*
X570753809Y-328044952D01*
X570730000Y-328092571D01*
X570706190Y-328116380D01*
X570658571Y-328140190D01*
X570563333Y-328140190D01*
X570515714Y-328116380D01*
X570491904Y-328092571D01*
X570468095Y-328044952D01*
X570468095Y-327640190D01*
X570301428Y-327640190D02*
X570015714Y-327640190D01*
X570158571Y-328140190D02*
X570158571Y-327640190D01*
X569587142Y-328140190D02*
X569872857Y-328140190D01*
X569730000Y-328140190D02*
X569730000Y-327640190D01*
X569777619Y-327711619D01*
X569825238Y-327759238D01*
X569872857Y-327783047D01*
X569491904Y-328187809D02*
X569110952Y-328187809D01*
X568730000Y-328140190D02*
X569015714Y-328140190D01*
X568872857Y-328140190D02*
X568872857Y-327640190D01*
X568920476Y-327711619D01*
X568968095Y-327759238D01*
X569015714Y-327783047D01*
X571575238Y-342991285D02*
X571503809Y-343015095D01*
X571480000Y-343038904D01*
X571456190Y-343086523D01*
X571456190Y-343157952D01*
X571480000Y-343205571D01*
X571503809Y-343229380D01*
X571551428Y-343253190D01*
X571741904Y-343253190D01*
X571741904Y-342753190D01*
X571575238Y-342753190D01*
X571527619Y-342777000D01*
X571503809Y-342800809D01*
X571480000Y-342848428D01*
X571480000Y-342896047D01*
X571503809Y-342943666D01*
X571527619Y-342967476D01*
X571575238Y-342991285D01*
X571741904Y-342991285D01*
X571146666Y-342753190D02*
X571051428Y-342753190D01*
X571003809Y-342777000D01*
X570956190Y-342824619D01*
X570932380Y-342919857D01*
X570932380Y-343086523D01*
X570956190Y-343181761D01*
X571003809Y-343229380D01*
X571051428Y-343253190D01*
X571146666Y-343253190D01*
X571194285Y-343229380D01*
X571241904Y-343181761D01*
X571265714Y-343086523D01*
X571265714Y-342919857D01*
X571241904Y-342824619D01*
X571194285Y-342777000D01*
X571146666Y-342753190D01*
X570718095Y-342753190D02*
X570718095Y-343157952D01*
X570694285Y-343205571D01*
X570670476Y-343229380D01*
X570622857Y-343253190D01*
X570527619Y-343253190D01*
X570480000Y-343229380D01*
X570456190Y-343205571D01*
X570432380Y-343157952D01*
X570432380Y-342753190D01*
X570265714Y-342753190D02*
X569980000Y-342753190D01*
X570122857Y-343253190D02*
X570122857Y-342753190D01*
X569837142Y-342800809D02*
X569813333Y-342777000D01*
X569765714Y-342753190D01*
X569646666Y-342753190D01*
X569599047Y-342777000D01*
X569575238Y-342800809D01*
X569551428Y-342848428D01*
X569551428Y-342896047D01*
X569575238Y-342967476D01*
X569860952Y-343253190D01*
X569551428Y-343253190D01*
X569456190Y-343300809D02*
X569075238Y-343300809D01*
X568694285Y-343253190D02*
X568980000Y-343253190D01*
X568837142Y-343253190D02*
X568837142Y-342753190D01*
X568884761Y-342824619D01*
X568932380Y-342872238D01*
X568980000Y-342896047D01*
X571730000Y-333077333D02*
X571491904Y-333077333D01*
X571777619Y-333220190D02*
X571610952Y-332720190D01*
X571444285Y-333220190D01*
X571182380Y-332720190D02*
X571087142Y-332720190D01*
X571039523Y-332744000D01*
X570991904Y-332791619D01*
X570968095Y-332886857D01*
X570968095Y-333053523D01*
X570991904Y-333148761D01*
X571039523Y-333196380D01*
X571087142Y-333220190D01*
X571182380Y-333220190D01*
X571230000Y-333196380D01*
X571277619Y-333148761D01*
X571301428Y-333053523D01*
X571301428Y-332886857D01*
X571277619Y-332791619D01*
X571230000Y-332744000D01*
X571182380Y-332720190D01*
X570753809Y-332720190D02*
X570753809Y-333124952D01*
X570730000Y-333172571D01*
X570706190Y-333196380D01*
X570658571Y-333220190D01*
X570563333Y-333220190D01*
X570515714Y-333196380D01*
X570491904Y-333172571D01*
X570468095Y-333124952D01*
X570468095Y-332720190D01*
X570301428Y-332720190D02*
X570015714Y-332720190D01*
X570158571Y-333220190D02*
X570158571Y-332720190D01*
X569872857Y-332767809D02*
X569849047Y-332744000D01*
X569801428Y-332720190D01*
X569682380Y-332720190D01*
X569634761Y-332744000D01*
X569610952Y-332767809D01*
X569587142Y-332815428D01*
X569587142Y-332863047D01*
X569610952Y-332934476D01*
X569896666Y-333220190D01*
X569587142Y-333220190D01*
X569491904Y-333267809D02*
X569110952Y-333267809D01*
X568730000Y-333220190D02*
X569015714Y-333220190D01*
X568872857Y-333220190D02*
X568872857Y-332720190D01*
X568920476Y-332791619D01*
X568968095Y-332839238D01*
X569015714Y-332863047D01*
X571575238Y-337784285D02*
X571503809Y-337808095D01*
X571480000Y-337831904D01*
X571456190Y-337879523D01*
X571456190Y-337950952D01*
X571480000Y-337998571D01*
X571503809Y-338022380D01*
X571551428Y-338046190D01*
X571741904Y-338046190D01*
X571741904Y-337546190D01*
X571575238Y-337546190D01*
X571527619Y-337570000D01*
X571503809Y-337593809D01*
X571480000Y-337641428D01*
X571480000Y-337689047D01*
X571503809Y-337736666D01*
X571527619Y-337760476D01*
X571575238Y-337784285D01*
X571741904Y-337784285D01*
X571146666Y-337546190D02*
X571051428Y-337546190D01*
X571003809Y-337570000D01*
X570956190Y-337617619D01*
X570932380Y-337712857D01*
X570932380Y-337879523D01*
X570956190Y-337974761D01*
X571003809Y-338022380D01*
X571051428Y-338046190D01*
X571146666Y-338046190D01*
X571194285Y-338022380D01*
X571241904Y-337974761D01*
X571265714Y-337879523D01*
X571265714Y-337712857D01*
X571241904Y-337617619D01*
X571194285Y-337570000D01*
X571146666Y-337546190D01*
X570718095Y-337546190D02*
X570718095Y-337950952D01*
X570694285Y-337998571D01*
X570670476Y-338022380D01*
X570622857Y-338046190D01*
X570527619Y-338046190D01*
X570480000Y-338022380D01*
X570456190Y-337998571D01*
X570432380Y-337950952D01*
X570432380Y-337546190D01*
X570265714Y-337546190D02*
X569980000Y-337546190D01*
X570122857Y-338046190D02*
X570122857Y-337546190D01*
X569551428Y-338046190D02*
X569837142Y-338046190D01*
X569694285Y-338046190D02*
X569694285Y-337546190D01*
X569741904Y-337617619D01*
X569789523Y-337665238D01*
X569837142Y-337689047D01*
X569456190Y-338093809D02*
X569075238Y-338093809D01*
X568694285Y-338046190D02*
X568980000Y-338046190D01*
X568837142Y-338046190D02*
X568837142Y-337546190D01*
X568884761Y-337617619D01*
X568932380Y-337665238D01*
X568980000Y-337689047D01*
X470229238Y-360390285D02*
X470157809Y-360414095D01*
X470134000Y-360437904D01*
X470110190Y-360485523D01*
X470110190Y-360556952D01*
X470134000Y-360604571D01*
X470157809Y-360628380D01*
X470205428Y-360652190D01*
X470395904Y-360652190D01*
X470395904Y-360152190D01*
X470229238Y-360152190D01*
X470181619Y-360176000D01*
X470157809Y-360199809D01*
X470134000Y-360247428D01*
X470134000Y-360295047D01*
X470157809Y-360342666D01*
X470181619Y-360366476D01*
X470229238Y-360390285D01*
X470395904Y-360390285D01*
X469800666Y-360152190D02*
X469705428Y-360152190D01*
X469657809Y-360176000D01*
X469610190Y-360223619D01*
X469586380Y-360318857D01*
X469586380Y-360485523D01*
X469610190Y-360580761D01*
X469657809Y-360628380D01*
X469705428Y-360652190D01*
X469800666Y-360652190D01*
X469848285Y-360628380D01*
X469895904Y-360580761D01*
X469919714Y-360485523D01*
X469919714Y-360318857D01*
X469895904Y-360223619D01*
X469848285Y-360176000D01*
X469800666Y-360152190D01*
X469372095Y-360152190D02*
X469372095Y-360556952D01*
X469348285Y-360604571D01*
X469324476Y-360628380D01*
X469276857Y-360652190D01*
X469181619Y-360652190D01*
X469134000Y-360628380D01*
X469110190Y-360604571D01*
X469086380Y-360556952D01*
X469086380Y-360152190D01*
X468919714Y-360152190D02*
X468634000Y-360152190D01*
X468776857Y-360652190D02*
X468776857Y-360152190D01*
X468491142Y-360199809D02*
X468467333Y-360176000D01*
X468419714Y-360152190D01*
X468300666Y-360152190D01*
X468253047Y-360176000D01*
X468229238Y-360199809D01*
X468205428Y-360247428D01*
X468205428Y-360295047D01*
X468229238Y-360366476D01*
X468514952Y-360652190D01*
X468205428Y-360652190D01*
X468110190Y-360699809D02*
X467729238Y-360699809D01*
X467657809Y-360152190D02*
X467348285Y-360152190D01*
X467514952Y-360342666D01*
X467443523Y-360342666D01*
X467395904Y-360366476D01*
X467372095Y-360390285D01*
X467348285Y-360437904D01*
X467348285Y-360556952D01*
X467372095Y-360604571D01*
X467395904Y-360628380D01*
X467443523Y-360652190D01*
X467586380Y-360652190D01*
X467634000Y-360628380D01*
X467657809Y-360604571D01*
X470229238Y-365470285D02*
X470157809Y-365494095D01*
X470134000Y-365517904D01*
X470110190Y-365565523D01*
X470110190Y-365636952D01*
X470134000Y-365684571D01*
X470157809Y-365708380D01*
X470205428Y-365732190D01*
X470395904Y-365732190D01*
X470395904Y-365232190D01*
X470229238Y-365232190D01*
X470181619Y-365256000D01*
X470157809Y-365279809D01*
X470134000Y-365327428D01*
X470134000Y-365375047D01*
X470157809Y-365422666D01*
X470181619Y-365446476D01*
X470229238Y-365470285D01*
X470395904Y-365470285D01*
X469800666Y-365232190D02*
X469705428Y-365232190D01*
X469657809Y-365256000D01*
X469610190Y-365303619D01*
X469586380Y-365398857D01*
X469586380Y-365565523D01*
X469610190Y-365660761D01*
X469657809Y-365708380D01*
X469705428Y-365732190D01*
X469800666Y-365732190D01*
X469848285Y-365708380D01*
X469895904Y-365660761D01*
X469919714Y-365565523D01*
X469919714Y-365398857D01*
X469895904Y-365303619D01*
X469848285Y-365256000D01*
X469800666Y-365232190D01*
X469372095Y-365232190D02*
X469372095Y-365636952D01*
X469348285Y-365684571D01*
X469324476Y-365708380D01*
X469276857Y-365732190D01*
X469181619Y-365732190D01*
X469134000Y-365708380D01*
X469110190Y-365684571D01*
X469086380Y-365636952D01*
X469086380Y-365232190D01*
X468919714Y-365232190D02*
X468634000Y-365232190D01*
X468776857Y-365732190D02*
X468776857Y-365232190D01*
X468205428Y-365732190D02*
X468491142Y-365732190D01*
X468348285Y-365732190D02*
X468348285Y-365232190D01*
X468395904Y-365303619D01*
X468443523Y-365351238D01*
X468491142Y-365375047D01*
X468110190Y-365779809D02*
X467729238Y-365779809D01*
X467657809Y-365232190D02*
X467348285Y-365232190D01*
X467514952Y-365422666D01*
X467443523Y-365422666D01*
X467395904Y-365446476D01*
X467372095Y-365470285D01*
X467348285Y-365517904D01*
X467348285Y-365636952D01*
X467372095Y-365684571D01*
X467395904Y-365708380D01*
X467443523Y-365732190D01*
X467586380Y-365732190D01*
X467634000Y-365708380D01*
X467657809Y-365684571D01*
X470384000Y-370669333D02*
X470145904Y-370669333D01*
X470431619Y-370812190D02*
X470264952Y-370312190D01*
X470098285Y-370812190D01*
X469836380Y-370312190D02*
X469741142Y-370312190D01*
X469693523Y-370336000D01*
X469645904Y-370383619D01*
X469622095Y-370478857D01*
X469622095Y-370645523D01*
X469645904Y-370740761D01*
X469693523Y-370788380D01*
X469741142Y-370812190D01*
X469836380Y-370812190D01*
X469884000Y-370788380D01*
X469931619Y-370740761D01*
X469955428Y-370645523D01*
X469955428Y-370478857D01*
X469931619Y-370383619D01*
X469884000Y-370336000D01*
X469836380Y-370312190D01*
X469407809Y-370312190D02*
X469407809Y-370716952D01*
X469384000Y-370764571D01*
X469360190Y-370788380D01*
X469312571Y-370812190D01*
X469217333Y-370812190D01*
X469169714Y-370788380D01*
X469145904Y-370764571D01*
X469122095Y-370716952D01*
X469122095Y-370312190D01*
X468955428Y-370312190D02*
X468669714Y-370312190D01*
X468812571Y-370812190D02*
X468812571Y-370312190D01*
X468526857Y-370359809D02*
X468503047Y-370336000D01*
X468455428Y-370312190D01*
X468336380Y-370312190D01*
X468288761Y-370336000D01*
X468264952Y-370359809D01*
X468241142Y-370407428D01*
X468241142Y-370455047D01*
X468264952Y-370526476D01*
X468550666Y-370812190D01*
X468241142Y-370812190D01*
X468145904Y-370859809D02*
X467764952Y-370859809D01*
X467693523Y-370312190D02*
X467384000Y-370312190D01*
X467550666Y-370502666D01*
X467479238Y-370502666D01*
X467431619Y-370526476D01*
X467407809Y-370550285D01*
X467384000Y-370597904D01*
X467384000Y-370716952D01*
X467407809Y-370764571D01*
X467431619Y-370788380D01*
X467479238Y-370812190D01*
X467622095Y-370812190D01*
X467669714Y-370788380D01*
X467693523Y-370764571D01*
X470384000Y-375749333D02*
X470145904Y-375749333D01*
X470431619Y-375892190D02*
X470264952Y-375392190D01*
X470098285Y-375892190D01*
X469836380Y-375392190D02*
X469741142Y-375392190D01*
X469693523Y-375416000D01*
X469645904Y-375463619D01*
X469622095Y-375558857D01*
X469622095Y-375725523D01*
X469645904Y-375820761D01*
X469693523Y-375868380D01*
X469741142Y-375892190D01*
X469836380Y-375892190D01*
X469884000Y-375868380D01*
X469931619Y-375820761D01*
X469955428Y-375725523D01*
X469955428Y-375558857D01*
X469931619Y-375463619D01*
X469884000Y-375416000D01*
X469836380Y-375392190D01*
X469407809Y-375392190D02*
X469407809Y-375796952D01*
X469384000Y-375844571D01*
X469360190Y-375868380D01*
X469312571Y-375892190D01*
X469217333Y-375892190D01*
X469169714Y-375868380D01*
X469145904Y-375844571D01*
X469122095Y-375796952D01*
X469122095Y-375392190D01*
X468955428Y-375392190D02*
X468669714Y-375392190D01*
X468812571Y-375892190D02*
X468812571Y-375392190D01*
X468241142Y-375892190D02*
X468526857Y-375892190D01*
X468384000Y-375892190D02*
X468384000Y-375392190D01*
X468431619Y-375463619D01*
X468479238Y-375511238D01*
X468526857Y-375535047D01*
X468145904Y-375939809D02*
X467764952Y-375939809D01*
X467693523Y-375392190D02*
X467384000Y-375392190D01*
X467550666Y-375582666D01*
X467479238Y-375582666D01*
X467431619Y-375606476D01*
X467407809Y-375630285D01*
X467384000Y-375677904D01*
X467384000Y-375796952D01*
X467407809Y-375844571D01*
X467431619Y-375868380D01*
X467479238Y-375892190D01*
X467622095Y-375892190D01*
X467669714Y-375868380D01*
X467693523Y-375844571D01*
%TO.C,M12*%
X540548000Y-461070000D02*
X539778000Y-461070000D01*
X538198000Y-461070000D02*
X537238000Y-461070000D01*
X535658000Y-461070000D02*
X534698000Y-461070000D01*
X533118000Y-461070000D02*
X532348000Y-461070000D01*
X540548000Y-455770000D02*
X532348000Y-455770000D01*
X540548000Y-455310000D02*
X532348000Y-455310000D01*
X540548000Y-461630000D02*
X539778000Y-461630000D01*
X538198000Y-461630000D02*
X537238000Y-461630000D01*
X535658000Y-461630000D02*
X534698000Y-461630000D01*
X533118000Y-461630000D02*
X532348000Y-461630000D01*
X540548000Y-455310000D02*
X540548000Y-461630000D01*
X532348000Y-455310000D02*
X532348000Y-461630000D01*
X540788000Y-461130000D02*
X540788000Y-461870000D01*
X540788000Y-461870000D02*
X540288000Y-461870000D01*
%TO.C,M10*%
X530134000Y-461070000D02*
X529364000Y-461070000D01*
X527784000Y-461070000D02*
X526824000Y-461070000D01*
X525244000Y-461070000D02*
X524284000Y-461070000D01*
X522704000Y-461070000D02*
X521934000Y-461070000D01*
X530134000Y-455770000D02*
X521934000Y-455770000D01*
X530134000Y-455310000D02*
X521934000Y-455310000D01*
X530134000Y-461630000D02*
X529364000Y-461630000D01*
X527784000Y-461630000D02*
X526824000Y-461630000D01*
X525244000Y-461630000D02*
X524284000Y-461630000D01*
X522704000Y-461630000D02*
X521934000Y-461630000D01*
X530134000Y-455310000D02*
X530134000Y-461630000D01*
X521934000Y-455310000D02*
X521934000Y-461630000D01*
X530374000Y-461130000D02*
X530374000Y-461870000D01*
X530374000Y-461870000D02*
X529874000Y-461870000D01*
%TO.C,J3*%
X574548000Y-435864000D02*
X574548000Y-425704000D01*
X582168000Y-435864000D02*
X574548000Y-435864000D01*
X582168000Y-425704000D02*
X582168000Y-435864000D01*
X574548000Y-425704000D02*
X582168000Y-425704000D01*
X575818000Y-425704000D02*
X575818000Y-435864000D01*
%TO.C,M1*%
X580390000Y-325120000D02*
X580390000Y-345440000D01*
X572770000Y-325120000D02*
X572770000Y-345440000D01*
X579120000Y-345440000D02*
X579120000Y-325120000D01*
X580390000Y-345440000D02*
X572770000Y-345440000D01*
X572770000Y-325120000D02*
X580390000Y-325120000D01*
%TO.C,M2*%
X581406000Y-364744000D02*
X581406000Y-385064000D01*
X573786000Y-364744000D02*
X573786000Y-385064000D01*
X580136000Y-385064000D02*
X580136000Y-364744000D01*
X581406000Y-385064000D02*
X573786000Y-385064000D01*
X573786000Y-364744000D02*
X581406000Y-364744000D01*
%TO.C,M3*%
X478536000Y-451612000D02*
X478536000Y-459232000D01*
X453136000Y-451612000D02*
X453136000Y-459232000D01*
X478536000Y-451612000D02*
X453136000Y-451612000D01*
X478536000Y-457962000D02*
X453136000Y-457962000D01*
X478536000Y-459232000D02*
X453136000Y-459232000D01*
%TO.C,M4*%
X455930000Y-326390000D02*
X455930000Y-318770000D01*
X481330000Y-326390000D02*
X481330000Y-318770000D01*
X455930000Y-326390000D02*
X481330000Y-326390000D01*
X455930000Y-320040000D02*
X481330000Y-320040000D01*
X455930000Y-318770000D02*
X481330000Y-318770000D01*
%TO.C,M7*%
X574040000Y-401066000D02*
X574040000Y-390906000D01*
X581660000Y-401066000D02*
X574040000Y-401066000D01*
X581660000Y-390906000D02*
X581660000Y-401066000D01*
X574040000Y-390906000D02*
X581660000Y-390906000D01*
X575310000Y-390906000D02*
X575310000Y-401066000D01*
%TO.C,M8*%
X574040000Y-418084000D02*
X574040000Y-407924000D01*
X581660000Y-418084000D02*
X574040000Y-418084000D01*
X581660000Y-407924000D02*
X581660000Y-418084000D01*
X574040000Y-407924000D02*
X581660000Y-407924000D01*
X575310000Y-407924000D02*
X575310000Y-418084000D01*
%TO.C,M6*%
X463804000Y-424688000D02*
X463804000Y-434848000D01*
X456184000Y-424688000D02*
X463804000Y-424688000D01*
X456184000Y-434848000D02*
X456184000Y-424688000D01*
X463804000Y-434848000D02*
X456184000Y-434848000D01*
X462534000Y-434848000D02*
X462534000Y-424688000D01*
%TO.C,M9*%
X574040000Y-453898000D02*
X574040000Y-443738000D01*
X581660000Y-453898000D02*
X574040000Y-453898000D01*
X581660000Y-443738000D02*
X581660000Y-453898000D01*
X574040000Y-443738000D02*
X581660000Y-443738000D01*
X575310000Y-443738000D02*
X575310000Y-453898000D01*
%TO.C,M5*%
X455930000Y-393700000D02*
X463550000Y-393700000D01*
X455930000Y-419100000D02*
X463550000Y-419100000D01*
X455930000Y-393700000D02*
X455930000Y-419100000D01*
X462280000Y-393700000D02*
X462280000Y-419100000D01*
X463550000Y-393700000D02*
X463550000Y-419100000D01*
%TO.C,M11*%
X455930000Y-378460000D02*
X455930000Y-358140000D01*
X463550000Y-378460000D02*
X463550000Y-358140000D01*
X457200000Y-358140000D02*
X457200000Y-378460000D01*
X455930000Y-358140000D02*
X463550000Y-358140000D01*
X463550000Y-378460000D02*
X455930000Y-378460000D01*
%TO.C,J2*%
X541020000Y-319024000D02*
X551180000Y-319024000D01*
X541020000Y-326644000D02*
X541020000Y-319024000D01*
X551180000Y-326644000D02*
X541020000Y-326644000D01*
X551180000Y-319024000D02*
X551180000Y-326644000D01*
X551180000Y-320294000D02*
X541020000Y-320294000D01*
%TO.C,J1*%
X493268000Y-319024000D02*
X503428000Y-319024000D01*
X493268000Y-326644000D02*
X493268000Y-319024000D01*
X503428000Y-326644000D02*
X493268000Y-326644000D01*
X503428000Y-319024000D02*
X503428000Y-326644000D01*
X503428000Y-320294000D02*
X493268000Y-320294000D01*
%TO.C,M12*%
D11*
X537733714Y-454762380D02*
X537733714Y-453762380D01*
X537400380Y-454476666D01*
X537067047Y-453762380D01*
X537067047Y-454762380D01*
X536067047Y-454762380D02*
X536638476Y-454762380D01*
X536352761Y-454762380D02*
X536352761Y-453762380D01*
X536448000Y-453905238D01*
X536543238Y-454000476D01*
X536638476Y-454048095D01*
X535686095Y-453857619D02*
X535638476Y-453810000D01*
X535543238Y-453762380D01*
X535305142Y-453762380D01*
X535209904Y-453810000D01*
X535162285Y-453857619D01*
X535114666Y-453952857D01*
X535114666Y-454048095D01*
X535162285Y-454190952D01*
X535733714Y-454762380D01*
X535114666Y-454762380D01*
%TO.C,M10*%
X527319714Y-454762380D02*
X527319714Y-453762380D01*
X526986380Y-454476666D01*
X526653047Y-453762380D01*
X526653047Y-454762380D01*
X525653047Y-454762380D02*
X526224476Y-454762380D01*
X525938761Y-454762380D02*
X525938761Y-453762380D01*
X526034000Y-453905238D01*
X526129238Y-454000476D01*
X526224476Y-454048095D01*
X525034000Y-453762380D02*
X524938761Y-453762380D01*
X524843523Y-453810000D01*
X524795904Y-453857619D01*
X524748285Y-453952857D01*
X524700666Y-454143333D01*
X524700666Y-454381428D01*
X524748285Y-454571904D01*
X524795904Y-454667142D01*
X524843523Y-454714761D01*
X524938761Y-454762380D01*
X525034000Y-454762380D01*
X525129238Y-454714761D01*
X525176857Y-454667142D01*
X525224476Y-454571904D01*
X525272095Y-454381428D01*
X525272095Y-454143333D01*
X525224476Y-453952857D01*
X525176857Y-453857619D01*
X525129238Y-453810000D01*
X525034000Y-453762380D01*
%TO.C,J3*%
X583985619Y-431117333D02*
X583271333Y-431117333D01*
X583128476Y-431164952D01*
X583033238Y-431260190D01*
X582985619Y-431403047D01*
X582985619Y-431498285D01*
X583985619Y-430736380D02*
X583985619Y-430117333D01*
X583604666Y-430450666D01*
X583604666Y-430307809D01*
X583557047Y-430212571D01*
X583509428Y-430164952D01*
X583414190Y-430117333D01*
X583176095Y-430117333D01*
X583080857Y-430164952D01*
X583033238Y-430212571D01*
X582985619Y-430307809D01*
X582985619Y-430593523D01*
X583033238Y-430688761D01*
X583080857Y-430736380D01*
%TO.C,M1*%
X551378380Y-339804476D02*
X550378380Y-339804476D01*
X551092666Y-340137809D01*
X550378380Y-340471142D01*
X551378380Y-340471142D01*
X551378380Y-341471142D02*
X551378380Y-340899714D01*
X551378380Y-341185428D02*
X550378380Y-341185428D01*
X550521238Y-341090190D01*
X550616476Y-340994952D01*
X550664095Y-340899714D01*
%TO.C,M2*%
X552902380Y-373078476D02*
X551902380Y-373078476D01*
X552616666Y-373411809D01*
X551902380Y-373745142D01*
X552902380Y-373745142D01*
X551997619Y-374173714D02*
X551950000Y-374221333D01*
X551902380Y-374316571D01*
X551902380Y-374554666D01*
X551950000Y-374649904D01*
X551997619Y-374697523D01*
X552092857Y-374745142D01*
X552188095Y-374745142D01*
X552330952Y-374697523D01*
X552902380Y-374126095D01*
X552902380Y-374745142D01*
%TO.C,M3*%
X465883523Y-466288380D02*
X465883523Y-465288380D01*
X465550190Y-466002666D01*
X465216857Y-465288380D01*
X465216857Y-466288380D01*
X464835904Y-465288380D02*
X464216857Y-465288380D01*
X464550190Y-465669333D01*
X464407333Y-465669333D01*
X464312095Y-465716952D01*
X464264476Y-465764571D01*
X464216857Y-465859809D01*
X464216857Y-466097904D01*
X464264476Y-466193142D01*
X464312095Y-466240761D01*
X464407333Y-466288380D01*
X464693047Y-466288380D01*
X464788285Y-466240761D01*
X464835904Y-466193142D01*
%TO.C,M4*%
X469429523Y-317190380D02*
X469429523Y-316190380D01*
X469096190Y-316904666D01*
X468762857Y-316190380D01*
X468762857Y-317190380D01*
X467858095Y-316523714D02*
X467858095Y-317190380D01*
X468096190Y-316142761D02*
X468334285Y-316857047D01*
X467715238Y-316857047D01*
%TO.C,M7*%
X583382380Y-395176476D02*
X582382380Y-395176476D01*
X583096666Y-395509809D01*
X582382380Y-395843142D01*
X583382380Y-395843142D01*
X582382380Y-396224095D02*
X582382380Y-396890761D01*
X583382380Y-396462190D01*
%TO.C,M8*%
X583382380Y-412194476D02*
X582382380Y-412194476D01*
X583096666Y-412527809D01*
X582382380Y-412861142D01*
X583382380Y-412861142D01*
X582810952Y-413480190D02*
X582763333Y-413384952D01*
X582715714Y-413337333D01*
X582620476Y-413289714D01*
X582572857Y-413289714D01*
X582477619Y-413337333D01*
X582430000Y-413384952D01*
X582382380Y-413480190D01*
X582382380Y-413670666D01*
X582430000Y-413765904D01*
X582477619Y-413813523D01*
X582572857Y-413861142D01*
X582620476Y-413861142D01*
X582715714Y-413813523D01*
X582763333Y-413765904D01*
X582810952Y-413670666D01*
X582810952Y-413480190D01*
X582858571Y-413384952D01*
X582906190Y-413337333D01*
X583001428Y-413289714D01*
X583191904Y-413289714D01*
X583287142Y-413337333D01*
X583334761Y-413384952D01*
X583382380Y-413480190D01*
X583382380Y-413670666D01*
X583334761Y-413765904D01*
X583287142Y-413813523D01*
X583191904Y-413861142D01*
X583001428Y-413861142D01*
X582906190Y-413813523D01*
X582858571Y-413765904D01*
X582810952Y-413670666D01*
%TO.C,M6*%
X453588380Y-428196476D02*
X452588380Y-428196476D01*
X453302666Y-428529809D01*
X452588380Y-428863142D01*
X453588380Y-428863142D01*
X452588380Y-429767904D02*
X452588380Y-429577428D01*
X452636000Y-429482190D01*
X452683619Y-429434571D01*
X452826476Y-429339333D01*
X453016952Y-429291714D01*
X453397904Y-429291714D01*
X453493142Y-429339333D01*
X453540761Y-429386952D01*
X453588380Y-429482190D01*
X453588380Y-429672666D01*
X453540761Y-429767904D01*
X453493142Y-429815523D01*
X453397904Y-429863142D01*
X453159809Y-429863142D01*
X453064571Y-429815523D01*
X453016952Y-429767904D01*
X452969333Y-429672666D01*
X452969333Y-429482190D01*
X453016952Y-429386952D01*
X453064571Y-429339333D01*
X453159809Y-429291714D01*
%TO.C,M9*%
X583382380Y-448008476D02*
X582382380Y-448008476D01*
X583096666Y-448341809D01*
X582382380Y-448675142D01*
X583382380Y-448675142D01*
X583382380Y-449198952D02*
X583382380Y-449389428D01*
X583334761Y-449484666D01*
X583287142Y-449532285D01*
X583144285Y-449627523D01*
X582953809Y-449675142D01*
X582572857Y-449675142D01*
X582477619Y-449627523D01*
X582430000Y-449579904D01*
X582382380Y-449484666D01*
X582382380Y-449294190D01*
X582430000Y-449198952D01*
X582477619Y-449151333D01*
X582572857Y-449103714D01*
X582810952Y-449103714D01*
X582906190Y-449151333D01*
X582953809Y-449198952D01*
X583001428Y-449294190D01*
X583001428Y-449484666D01*
X582953809Y-449579904D01*
X582906190Y-449627523D01*
X582810952Y-449675142D01*
%TO.C,M5*%
X444444380Y-405336476D02*
X443444380Y-405336476D01*
X444158666Y-405669809D01*
X443444380Y-406003142D01*
X444444380Y-406003142D01*
X443444380Y-406955523D02*
X443444380Y-406479333D01*
X443920571Y-406431714D01*
X443872952Y-406479333D01*
X443825333Y-406574571D01*
X443825333Y-406812666D01*
X443872952Y-406907904D01*
X443920571Y-406955523D01*
X444015809Y-407003142D01*
X444253904Y-407003142D01*
X444349142Y-406955523D01*
X444396761Y-406907904D01*
X444444380Y-406812666D01*
X444444380Y-406574571D01*
X444396761Y-406479333D01*
X444349142Y-406431714D01*
%TO.C,M11*%
X446730380Y-366252285D02*
X445730380Y-366252285D01*
X446444666Y-366585619D01*
X445730380Y-366918952D01*
X446730380Y-366918952D01*
X446730380Y-367918952D02*
X446730380Y-367347523D01*
X446730380Y-367633238D02*
X445730380Y-367633238D01*
X445873238Y-367538000D01*
X445968476Y-367442761D01*
X446016095Y-367347523D01*
X446730380Y-368871333D02*
X446730380Y-368299904D01*
X446730380Y-368585619D02*
X445730380Y-368585619D01*
X445873238Y-368490380D01*
X445968476Y-368395142D01*
X446016095Y-368299904D01*
%TO.C,J2*%
X546179333Y-314412380D02*
X546179333Y-315126666D01*
X546226952Y-315269523D01*
X546322190Y-315364761D01*
X546465047Y-315412380D01*
X546560285Y-315412380D01*
X545750761Y-314507619D02*
X545703142Y-314460000D01*
X545607904Y-314412380D01*
X545369809Y-314412380D01*
X545274571Y-314460000D01*
X545226952Y-314507619D01*
X545179333Y-314602857D01*
X545179333Y-314698095D01*
X545226952Y-314840952D01*
X545798380Y-315412380D01*
X545179333Y-315412380D01*
%TO.C,J1*%
X498427333Y-316444380D02*
X498427333Y-317158666D01*
X498474952Y-317301523D01*
X498570190Y-317396761D01*
X498713047Y-317444380D01*
X498808285Y-317444380D01*
X497427333Y-317444380D02*
X497998761Y-317444380D01*
X497713047Y-317444380D02*
X497713047Y-316444380D01*
X497808285Y-316587238D01*
X497903523Y-316682476D01*
X497998761Y-316730095D01*
%TD*%
M02*
