%TF.GenerationSoftware,KiCad,Pcbnew,(5.1.7)-1*%
%TF.CreationDate,2021-02-21T17:24:45-05:00*%
%TF.ProjectId,Overall Schematics,4f766572-616c-46c2-9053-6368656d6174,rev?*%
%TF.SameCoordinates,Original*%
%TF.FileFunction,Legend,Bot*%
%TF.FilePolarity,Positive*%
%FSLAX46Y46*%
G04 Gerber Fmt 4.6, Leading zero omitted, Abs format (unit mm)*
G04 Created by KiCad (PCBNEW (5.1.7)-1) date 2021-02-21 17:24:45*
%MOMM*%
%LPD*%
G01*
G04 APERTURE LIST*
%ADD10C,0.120000*%
%ADD11C,0.150000*%
G04 APERTURE END LIST*
D10*
X496919047Y-327886190D02*
X496919047Y-327386190D01*
X496728571Y-327386190D01*
X496680952Y-327410000D01*
X496657142Y-327433809D01*
X496633333Y-327481428D01*
X496633333Y-327552857D01*
X496657142Y-327600476D01*
X496680952Y-327624285D01*
X496728571Y-327648095D01*
X496919047Y-327648095D01*
X496466666Y-327386190D02*
X496347619Y-327886190D01*
X496252380Y-327529047D01*
X496157142Y-327886190D01*
X496038095Y-327386190D01*
X495561904Y-327886190D02*
X495728571Y-327648095D01*
X495847619Y-327886190D02*
X495847619Y-327386190D01*
X495657142Y-327386190D01*
X495609523Y-327410000D01*
X495585714Y-327433809D01*
X495561904Y-327481428D01*
X495561904Y-327552857D01*
X495585714Y-327600476D01*
X495609523Y-327624285D01*
X495657142Y-327648095D01*
X495847619Y-327648095D01*
X495466666Y-327933809D02*
X495085714Y-327933809D01*
X494704761Y-327410000D02*
X494752380Y-327386190D01*
X494823809Y-327386190D01*
X494895238Y-327410000D01*
X494942857Y-327457619D01*
X494966666Y-327505238D01*
X494990476Y-327600476D01*
X494990476Y-327671904D01*
X494966666Y-327767142D01*
X494942857Y-327814761D01*
X494895238Y-327862380D01*
X494823809Y-327886190D01*
X494776190Y-327886190D01*
X494704761Y-327862380D01*
X494680952Y-327838571D01*
X494680952Y-327671904D01*
X494776190Y-327671904D01*
X494466666Y-327886190D02*
X494466666Y-327386190D01*
X494180952Y-327886190D01*
X494180952Y-327386190D01*
X493942857Y-327886190D02*
X493942857Y-327386190D01*
X493823809Y-327386190D01*
X493752380Y-327410000D01*
X493704761Y-327457619D01*
X493680952Y-327505238D01*
X493657142Y-327600476D01*
X493657142Y-327671904D01*
X493680952Y-327767142D01*
X493704761Y-327814761D01*
X493752380Y-327862380D01*
X493823809Y-327886190D01*
X493942857Y-327886190D01*
X545179047Y-327886190D02*
X545179047Y-327386190D01*
X544988571Y-327386190D01*
X544940952Y-327410000D01*
X544917142Y-327433809D01*
X544893333Y-327481428D01*
X544893333Y-327552857D01*
X544917142Y-327600476D01*
X544940952Y-327624285D01*
X544988571Y-327648095D01*
X545179047Y-327648095D01*
X544726666Y-327386190D02*
X544607619Y-327886190D01*
X544512380Y-327529047D01*
X544417142Y-327886190D01*
X544298095Y-327386190D01*
X543821904Y-327886190D02*
X543988571Y-327648095D01*
X544107619Y-327886190D02*
X544107619Y-327386190D01*
X543917142Y-327386190D01*
X543869523Y-327410000D01*
X543845714Y-327433809D01*
X543821904Y-327481428D01*
X543821904Y-327552857D01*
X543845714Y-327600476D01*
X543869523Y-327624285D01*
X543917142Y-327648095D01*
X544107619Y-327648095D01*
X543726666Y-327933809D02*
X543345714Y-327933809D01*
X542964761Y-327410000D02*
X543012380Y-327386190D01*
X543083809Y-327386190D01*
X543155238Y-327410000D01*
X543202857Y-327457619D01*
X543226666Y-327505238D01*
X543250476Y-327600476D01*
X543250476Y-327671904D01*
X543226666Y-327767142D01*
X543202857Y-327814761D01*
X543155238Y-327862380D01*
X543083809Y-327886190D01*
X543036190Y-327886190D01*
X542964761Y-327862380D01*
X542940952Y-327838571D01*
X542940952Y-327671904D01*
X543036190Y-327671904D01*
X542726666Y-327886190D02*
X542726666Y-327386190D01*
X542440952Y-327886190D01*
X542440952Y-327386190D01*
X542202857Y-327886190D02*
X542202857Y-327386190D01*
X542083809Y-327386190D01*
X542012380Y-327410000D01*
X541964761Y-327457619D01*
X541940952Y-327505238D01*
X541917142Y-327600476D01*
X541917142Y-327671904D01*
X541940952Y-327767142D01*
X541964761Y-327814761D01*
X542012380Y-327862380D01*
X542083809Y-327886190D01*
X542202857Y-327886190D01*
X572488190Y-426624952D02*
X571988190Y-426624952D01*
X571988190Y-426815428D01*
X572012000Y-426863047D01*
X572035809Y-426886857D01*
X572083428Y-426910666D01*
X572154857Y-426910666D01*
X572202476Y-426886857D01*
X572226285Y-426863047D01*
X572250095Y-426815428D01*
X572250095Y-426624952D01*
X571988190Y-427077333D02*
X572488190Y-427196380D01*
X572131047Y-427291619D01*
X572488190Y-427386857D01*
X571988190Y-427505904D01*
X572488190Y-427982095D02*
X572250095Y-427815428D01*
X572488190Y-427696380D02*
X571988190Y-427696380D01*
X571988190Y-427886857D01*
X572012000Y-427934476D01*
X572035809Y-427958285D01*
X572083428Y-427982095D01*
X572154857Y-427982095D01*
X572202476Y-427958285D01*
X572226285Y-427934476D01*
X572250095Y-427886857D01*
X572250095Y-427696380D01*
X572535809Y-428077333D02*
X572535809Y-428458285D01*
X572012000Y-428839238D02*
X571988190Y-428791619D01*
X571988190Y-428720190D01*
X572012000Y-428648761D01*
X572059619Y-428601142D01*
X572107238Y-428577333D01*
X572202476Y-428553523D01*
X572273904Y-428553523D01*
X572369142Y-428577333D01*
X572416761Y-428601142D01*
X572464380Y-428648761D01*
X572488190Y-428720190D01*
X572488190Y-428767809D01*
X572464380Y-428839238D01*
X572440571Y-428863047D01*
X572273904Y-428863047D01*
X572273904Y-428767809D01*
X572488190Y-429077333D02*
X571988190Y-429077333D01*
X572488190Y-429363047D01*
X571988190Y-429363047D01*
X572488190Y-429601142D02*
X571988190Y-429601142D01*
X571988190Y-429720190D01*
X572012000Y-429791619D01*
X572059619Y-429839238D01*
X572107238Y-429863047D01*
X572202476Y-429886857D01*
X572273904Y-429886857D01*
X572369142Y-429863047D01*
X572416761Y-429839238D01*
X572464380Y-429791619D01*
X572488190Y-429720190D01*
X572488190Y-429601142D01*
X536797238Y-464038190D02*
X537035333Y-464038190D01*
X537059142Y-464276285D01*
X537035333Y-464252476D01*
X536987714Y-464228666D01*
X536868666Y-464228666D01*
X536821047Y-464252476D01*
X536797238Y-464276285D01*
X536773428Y-464323904D01*
X536773428Y-464442952D01*
X536797238Y-464490571D01*
X536821047Y-464514380D01*
X536868666Y-464538190D01*
X536987714Y-464538190D01*
X537035333Y-464514380D01*
X537059142Y-464490571D01*
X536630571Y-464038190D02*
X536463904Y-464538190D01*
X536297238Y-464038190D01*
X525875238Y-464038190D02*
X526113333Y-464038190D01*
X526137142Y-464276285D01*
X526113333Y-464252476D01*
X526065714Y-464228666D01*
X525946666Y-464228666D01*
X525899047Y-464252476D01*
X525875238Y-464276285D01*
X525851428Y-464323904D01*
X525851428Y-464442952D01*
X525875238Y-464490571D01*
X525899047Y-464514380D01*
X525946666Y-464538190D01*
X526065714Y-464538190D01*
X526113333Y-464514380D01*
X526137142Y-464490571D01*
X525708571Y-464038190D02*
X525541904Y-464538190D01*
X525375238Y-464038190D01*
X534288952Y-460125000D02*
X534336571Y-460101190D01*
X534408000Y-460101190D01*
X534479428Y-460125000D01*
X534527047Y-460172619D01*
X534550857Y-460220238D01*
X534574666Y-460315476D01*
X534574666Y-460386904D01*
X534550857Y-460482142D01*
X534527047Y-460529761D01*
X534479428Y-460577380D01*
X534408000Y-460601190D01*
X534360380Y-460601190D01*
X534288952Y-460577380D01*
X534265142Y-460553571D01*
X534265142Y-460386904D01*
X534360380Y-460386904D01*
X534050857Y-460601190D02*
X534050857Y-460101190D01*
X533765142Y-460601190D01*
X533765142Y-460101190D01*
X533527047Y-460601190D02*
X533527047Y-460101190D01*
X533408000Y-460101190D01*
X533336571Y-460125000D01*
X533288952Y-460172619D01*
X533265142Y-460220238D01*
X533241333Y-460315476D01*
X533241333Y-460386904D01*
X533265142Y-460482142D01*
X533288952Y-460529761D01*
X533336571Y-460577380D01*
X533408000Y-460601190D01*
X533527047Y-460601190D01*
X523747952Y-460125000D02*
X523795571Y-460101190D01*
X523867000Y-460101190D01*
X523938428Y-460125000D01*
X523986047Y-460172619D01*
X524009857Y-460220238D01*
X524033666Y-460315476D01*
X524033666Y-460386904D01*
X524009857Y-460482142D01*
X523986047Y-460529761D01*
X523938428Y-460577380D01*
X523867000Y-460601190D01*
X523819380Y-460601190D01*
X523747952Y-460577380D01*
X523724142Y-460553571D01*
X523724142Y-460386904D01*
X523819380Y-460386904D01*
X523509857Y-460601190D02*
X523509857Y-460101190D01*
X523224142Y-460601190D01*
X523224142Y-460101190D01*
X522986047Y-460601190D02*
X522986047Y-460101190D01*
X522867000Y-460101190D01*
X522795571Y-460125000D01*
X522747952Y-460172619D01*
X522724142Y-460220238D01*
X522700333Y-460315476D01*
X522700333Y-460386904D01*
X522724142Y-460482142D01*
X522747952Y-460529761D01*
X522795571Y-460577380D01*
X522867000Y-460601190D01*
X522986047Y-460601190D01*
X461517952Y-461776000D02*
X461565571Y-461752190D01*
X461637000Y-461752190D01*
X461708428Y-461776000D01*
X461756047Y-461823619D01*
X461779857Y-461871238D01*
X461803666Y-461966476D01*
X461803666Y-462037904D01*
X461779857Y-462133142D01*
X461756047Y-462180761D01*
X461708428Y-462228380D01*
X461637000Y-462252190D01*
X461589380Y-462252190D01*
X461517952Y-462228380D01*
X461494142Y-462204571D01*
X461494142Y-462037904D01*
X461589380Y-462037904D01*
X461279857Y-462252190D02*
X461279857Y-461752190D01*
X460994142Y-462252190D01*
X460994142Y-461752190D01*
X460756047Y-462252190D02*
X460756047Y-461752190D01*
X460637000Y-461752190D01*
X460565571Y-461776000D01*
X460517952Y-461823619D01*
X460494142Y-461871238D01*
X460470333Y-461966476D01*
X460470333Y-462037904D01*
X460494142Y-462133142D01*
X460517952Y-462180761D01*
X460565571Y-462228380D01*
X460637000Y-462252190D01*
X460756047Y-462252190D01*
X466597952Y-461903000D02*
X466645571Y-461879190D01*
X466717000Y-461879190D01*
X466788428Y-461903000D01*
X466836047Y-461950619D01*
X466859857Y-461998238D01*
X466883666Y-462093476D01*
X466883666Y-462164904D01*
X466859857Y-462260142D01*
X466836047Y-462307761D01*
X466788428Y-462355380D01*
X466717000Y-462379190D01*
X466669380Y-462379190D01*
X466597952Y-462355380D01*
X466574142Y-462331571D01*
X466574142Y-462164904D01*
X466669380Y-462164904D01*
X466359857Y-462379190D02*
X466359857Y-461879190D01*
X466074142Y-462379190D01*
X466074142Y-461879190D01*
X465836047Y-462379190D02*
X465836047Y-461879190D01*
X465717000Y-461879190D01*
X465645571Y-461903000D01*
X465597952Y-461950619D01*
X465574142Y-461998238D01*
X465550333Y-462093476D01*
X465550333Y-462164904D01*
X465574142Y-462260142D01*
X465597952Y-462307761D01*
X465645571Y-462355380D01*
X465717000Y-462379190D01*
X465836047Y-462379190D01*
X465816190Y-410741904D02*
X465816190Y-411051428D01*
X466006666Y-410884761D01*
X466006666Y-410956190D01*
X466030476Y-411003809D01*
X466054285Y-411027619D01*
X466101904Y-411051428D01*
X466220952Y-411051428D01*
X466268571Y-411027619D01*
X466292380Y-411003809D01*
X466316190Y-410956190D01*
X466316190Y-410813333D01*
X466292380Y-410765714D01*
X466268571Y-410741904D01*
X466268571Y-411265714D02*
X466292380Y-411289523D01*
X466316190Y-411265714D01*
X466292380Y-411241904D01*
X466268571Y-411265714D01*
X466316190Y-411265714D01*
X465816190Y-411456190D02*
X465816190Y-411765714D01*
X466006666Y-411599047D01*
X466006666Y-411670476D01*
X466030476Y-411718095D01*
X466054285Y-411741904D01*
X466101904Y-411765714D01*
X466220952Y-411765714D01*
X466268571Y-411741904D01*
X466292380Y-411718095D01*
X466316190Y-411670476D01*
X466316190Y-411527619D01*
X466292380Y-411480000D01*
X466268571Y-411456190D01*
X465816190Y-411908571D02*
X466316190Y-412075238D01*
X465816190Y-412241904D01*
X465840000Y-406019047D02*
X465816190Y-405971428D01*
X465816190Y-405900000D01*
X465840000Y-405828571D01*
X465887619Y-405780952D01*
X465935238Y-405757142D01*
X466030476Y-405733333D01*
X466101904Y-405733333D01*
X466197142Y-405757142D01*
X466244761Y-405780952D01*
X466292380Y-405828571D01*
X466316190Y-405900000D01*
X466316190Y-405947619D01*
X466292380Y-406019047D01*
X466268571Y-406042857D01*
X466101904Y-406042857D01*
X466101904Y-405947619D01*
X466316190Y-406257142D02*
X465816190Y-406257142D01*
X466316190Y-406542857D01*
X465816190Y-406542857D01*
X466316190Y-406780952D02*
X465816190Y-406780952D01*
X465816190Y-406900000D01*
X465840000Y-406971428D01*
X465887619Y-407019047D01*
X465935238Y-407042857D01*
X466030476Y-407066666D01*
X466101904Y-407066666D01*
X466197142Y-407042857D01*
X466244761Y-407019047D01*
X466292380Y-406971428D01*
X466316190Y-406900000D01*
X466316190Y-406780952D01*
X480603476Y-314043190D02*
X480841571Y-314043190D01*
X480841571Y-313543190D01*
X480436809Y-314043190D02*
X480436809Y-313543190D01*
X480198714Y-314043190D02*
X480198714Y-313543190D01*
X479913000Y-314043190D01*
X479913000Y-313543190D01*
X479793952Y-314090809D02*
X479413000Y-314090809D01*
X479317761Y-314019380D02*
X479246333Y-314043190D01*
X479127285Y-314043190D01*
X479079666Y-314019380D01*
X479055857Y-313995571D01*
X479032047Y-313947952D01*
X479032047Y-313900333D01*
X479055857Y-313852714D01*
X479079666Y-313828904D01*
X479127285Y-313805095D01*
X479222523Y-313781285D01*
X479270142Y-313757476D01*
X479293952Y-313733666D01*
X479317761Y-313686047D01*
X479317761Y-313638428D01*
X479293952Y-313590809D01*
X479270142Y-313567000D01*
X479222523Y-313543190D01*
X479103476Y-313543190D01*
X479032047Y-313567000D01*
X478817761Y-314043190D02*
X478817761Y-313543190D01*
X478317761Y-313567000D02*
X478365380Y-313543190D01*
X478436809Y-313543190D01*
X478508238Y-313567000D01*
X478555857Y-313614619D01*
X478579666Y-313662238D01*
X478603476Y-313757476D01*
X478603476Y-313828904D01*
X478579666Y-313924142D01*
X478555857Y-313971761D01*
X478508238Y-314019380D01*
X478436809Y-314043190D01*
X478389190Y-314043190D01*
X478317761Y-314019380D01*
X478293952Y-313995571D01*
X478293952Y-313828904D01*
X478389190Y-313828904D01*
X478079666Y-314043190D02*
X478079666Y-313543190D01*
X477793952Y-314043190D01*
X477793952Y-313543190D01*
X477579666Y-313900333D02*
X477341571Y-313900333D01*
X477627285Y-314043190D02*
X477460619Y-313543190D01*
X477293952Y-314043190D01*
X476889190Y-314043190D02*
X477127285Y-314043190D01*
X477127285Y-313543190D01*
X476770142Y-313543190D02*
X476460619Y-313543190D01*
X476627285Y-313733666D01*
X476555857Y-313733666D01*
X476508238Y-313757476D01*
X476484428Y-313781285D01*
X476460619Y-313828904D01*
X476460619Y-313947952D01*
X476484428Y-313995571D01*
X476508238Y-314019380D01*
X476555857Y-314043190D01*
X476698714Y-314043190D01*
X476746333Y-314019380D01*
X476770142Y-313995571D01*
X474321095Y-313543190D02*
X474011571Y-313543190D01*
X474178238Y-313733666D01*
X474106809Y-313733666D01*
X474059190Y-313757476D01*
X474035380Y-313781285D01*
X474011571Y-313828904D01*
X474011571Y-313947952D01*
X474035380Y-313995571D01*
X474059190Y-314019380D01*
X474106809Y-314043190D01*
X474249666Y-314043190D01*
X474297285Y-314019380D01*
X474321095Y-313995571D01*
X473797285Y-313995571D02*
X473773476Y-314019380D01*
X473797285Y-314043190D01*
X473821095Y-314019380D01*
X473797285Y-313995571D01*
X473797285Y-314043190D01*
X473606809Y-313543190D02*
X473297285Y-313543190D01*
X473463952Y-313733666D01*
X473392523Y-313733666D01*
X473344904Y-313757476D01*
X473321095Y-313781285D01*
X473297285Y-313828904D01*
X473297285Y-313947952D01*
X473321095Y-313995571D01*
X473344904Y-314019380D01*
X473392523Y-314043190D01*
X473535380Y-314043190D01*
X473583000Y-314019380D01*
X473606809Y-313995571D01*
X473154428Y-313543190D02*
X472987761Y-314043190D01*
X472821095Y-313543190D01*
X469010952Y-313694000D02*
X469058571Y-313670190D01*
X469130000Y-313670190D01*
X469201428Y-313694000D01*
X469249047Y-313741619D01*
X469272857Y-313789238D01*
X469296666Y-313884476D01*
X469296666Y-313955904D01*
X469272857Y-314051142D01*
X469249047Y-314098761D01*
X469201428Y-314146380D01*
X469130000Y-314170190D01*
X469082380Y-314170190D01*
X469010952Y-314146380D01*
X468987142Y-314122571D01*
X468987142Y-313955904D01*
X469082380Y-313955904D01*
X468772857Y-314170190D02*
X468772857Y-313670190D01*
X468487142Y-314170190D01*
X468487142Y-313670190D01*
X468249047Y-314170190D02*
X468249047Y-313670190D01*
X468130000Y-313670190D01*
X468058571Y-313694000D01*
X468010952Y-313741619D01*
X467987142Y-313789238D01*
X467963333Y-313884476D01*
X467963333Y-313955904D01*
X467987142Y-314051142D01*
X468010952Y-314098761D01*
X468058571Y-314146380D01*
X468130000Y-314170190D01*
X468249047Y-314170190D01*
X539924523Y-460577380D02*
X539853095Y-460601190D01*
X539734047Y-460601190D01*
X539686428Y-460577380D01*
X539662619Y-460553571D01*
X539638809Y-460505952D01*
X539638809Y-460458333D01*
X539662619Y-460410714D01*
X539686428Y-460386904D01*
X539734047Y-460363095D01*
X539829285Y-460339285D01*
X539876904Y-460315476D01*
X539900714Y-460291666D01*
X539924523Y-460244047D01*
X539924523Y-460196428D01*
X539900714Y-460148809D01*
X539876904Y-460125000D01*
X539829285Y-460101190D01*
X539710238Y-460101190D01*
X539638809Y-460125000D01*
X539448333Y-460577380D02*
X539376904Y-460601190D01*
X539257857Y-460601190D01*
X539210238Y-460577380D01*
X539186428Y-460553571D01*
X539162619Y-460505952D01*
X539162619Y-460458333D01*
X539186428Y-460410714D01*
X539210238Y-460386904D01*
X539257857Y-460363095D01*
X539353095Y-460339285D01*
X539400714Y-460315476D01*
X539424523Y-460291666D01*
X539448333Y-460244047D01*
X539448333Y-460196428D01*
X539424523Y-460148809D01*
X539400714Y-460125000D01*
X539353095Y-460101190D01*
X539234047Y-460101190D01*
X539162619Y-460125000D01*
X539067380Y-460648809D02*
X538686428Y-460648809D01*
X538591190Y-460148809D02*
X538567380Y-460125000D01*
X538519761Y-460101190D01*
X538400714Y-460101190D01*
X538353095Y-460125000D01*
X538329285Y-460148809D01*
X538305476Y-460196428D01*
X538305476Y-460244047D01*
X538329285Y-460315476D01*
X538615000Y-460601190D01*
X538305476Y-460601190D01*
X529129523Y-464514380D02*
X529058095Y-464538190D01*
X528939047Y-464538190D01*
X528891428Y-464514380D01*
X528867619Y-464490571D01*
X528843809Y-464442952D01*
X528843809Y-464395333D01*
X528867619Y-464347714D01*
X528891428Y-464323904D01*
X528939047Y-464300095D01*
X529034285Y-464276285D01*
X529081904Y-464252476D01*
X529105714Y-464228666D01*
X529129523Y-464181047D01*
X529129523Y-464133428D01*
X529105714Y-464085809D01*
X529081904Y-464062000D01*
X529034285Y-464038190D01*
X528915238Y-464038190D01*
X528843809Y-464062000D01*
X528653333Y-464514380D02*
X528581904Y-464538190D01*
X528462857Y-464538190D01*
X528415238Y-464514380D01*
X528391428Y-464490571D01*
X528367619Y-464442952D01*
X528367619Y-464395333D01*
X528391428Y-464347714D01*
X528415238Y-464323904D01*
X528462857Y-464300095D01*
X528558095Y-464276285D01*
X528605714Y-464252476D01*
X528629523Y-464228666D01*
X528653333Y-464181047D01*
X528653333Y-464133428D01*
X528629523Y-464085809D01*
X528605714Y-464062000D01*
X528558095Y-464038190D01*
X528439047Y-464038190D01*
X528367619Y-464062000D01*
X528272380Y-464585809D02*
X527891428Y-464585809D01*
X527510476Y-464538190D02*
X527796190Y-464538190D01*
X527653333Y-464538190D02*
X527653333Y-464038190D01*
X527700952Y-464109619D01*
X527748571Y-464157238D01*
X527796190Y-464181047D01*
X465863809Y-418500476D02*
X465863809Y-418738571D01*
X466363809Y-418738571D01*
X465863809Y-418333809D02*
X466363809Y-418333809D01*
X465863809Y-418095714D02*
X466363809Y-418095714D01*
X465863809Y-417810000D01*
X466363809Y-417810000D01*
X465816190Y-417690952D02*
X465816190Y-417310000D01*
X465887619Y-417214761D02*
X465863809Y-417143333D01*
X465863809Y-417024285D01*
X465887619Y-416976666D01*
X465911428Y-416952857D01*
X465959047Y-416929047D01*
X466006666Y-416929047D01*
X466054285Y-416952857D01*
X466078095Y-416976666D01*
X466101904Y-417024285D01*
X466125714Y-417119523D01*
X466149523Y-417167142D01*
X466173333Y-417190952D01*
X466220952Y-417214761D01*
X466268571Y-417214761D01*
X466316190Y-417190952D01*
X466340000Y-417167142D01*
X466363809Y-417119523D01*
X466363809Y-417000476D01*
X466340000Y-416929047D01*
X465863809Y-416714761D02*
X466363809Y-416714761D01*
X466340000Y-416214761D02*
X466363809Y-416262380D01*
X466363809Y-416333809D01*
X466340000Y-416405238D01*
X466292380Y-416452857D01*
X466244761Y-416476666D01*
X466149523Y-416500476D01*
X466078095Y-416500476D01*
X465982857Y-416476666D01*
X465935238Y-416452857D01*
X465887619Y-416405238D01*
X465863809Y-416333809D01*
X465863809Y-416286190D01*
X465887619Y-416214761D01*
X465911428Y-416190952D01*
X466078095Y-416190952D01*
X466078095Y-416286190D01*
X465863809Y-415976666D02*
X466363809Y-415976666D01*
X465863809Y-415690952D01*
X466363809Y-415690952D01*
X466006666Y-415476666D02*
X466006666Y-415238571D01*
X465863809Y-415524285D02*
X466363809Y-415357619D01*
X465863809Y-415190952D01*
X465863809Y-414786190D02*
X465863809Y-415024285D01*
X466363809Y-415024285D01*
X465863809Y-414357619D02*
X465863809Y-414643333D01*
X465863809Y-414500476D02*
X466363809Y-414500476D01*
X466292380Y-414548095D01*
X466244761Y-414595714D01*
X466220952Y-414643333D01*
X457997476Y-462252190D02*
X458235571Y-462252190D01*
X458235571Y-461752190D01*
X457830809Y-462252190D02*
X457830809Y-461752190D01*
X457592714Y-462252190D02*
X457592714Y-461752190D01*
X457307000Y-462252190D01*
X457307000Y-461752190D01*
X457187952Y-462299809D02*
X456807000Y-462299809D01*
X456711761Y-462228380D02*
X456640333Y-462252190D01*
X456521285Y-462252190D01*
X456473666Y-462228380D01*
X456449857Y-462204571D01*
X456426047Y-462156952D01*
X456426047Y-462109333D01*
X456449857Y-462061714D01*
X456473666Y-462037904D01*
X456521285Y-462014095D01*
X456616523Y-461990285D01*
X456664142Y-461966476D01*
X456687952Y-461942666D01*
X456711761Y-461895047D01*
X456711761Y-461847428D01*
X456687952Y-461799809D01*
X456664142Y-461776000D01*
X456616523Y-461752190D01*
X456497476Y-461752190D01*
X456426047Y-461776000D01*
X456211761Y-462252190D02*
X456211761Y-461752190D01*
X455711761Y-461776000D02*
X455759380Y-461752190D01*
X455830809Y-461752190D01*
X455902238Y-461776000D01*
X455949857Y-461823619D01*
X455973666Y-461871238D01*
X455997476Y-461966476D01*
X455997476Y-462037904D01*
X455973666Y-462133142D01*
X455949857Y-462180761D01*
X455902238Y-462228380D01*
X455830809Y-462252190D01*
X455783190Y-462252190D01*
X455711761Y-462228380D01*
X455687952Y-462204571D01*
X455687952Y-462037904D01*
X455783190Y-462037904D01*
X455473666Y-462252190D02*
X455473666Y-461752190D01*
X455187952Y-462252190D01*
X455187952Y-461752190D01*
X454973666Y-462109333D02*
X454735571Y-462109333D01*
X455021285Y-462252190D02*
X454854619Y-461752190D01*
X454687952Y-462252190D01*
X454283190Y-462252190D02*
X454521285Y-462252190D01*
X454521285Y-461752190D01*
X454140333Y-461799809D02*
X454116523Y-461776000D01*
X454068904Y-461752190D01*
X453949857Y-461752190D01*
X453902238Y-461776000D01*
X453878428Y-461799809D01*
X453854619Y-461847428D01*
X453854619Y-461895047D01*
X453878428Y-461966476D01*
X454164142Y-462252190D01*
X453854619Y-462252190D01*
X572353285Y-432653380D02*
X572377095Y-432724809D01*
X572400904Y-432748619D01*
X572448523Y-432772428D01*
X572519952Y-432772428D01*
X572567571Y-432748619D01*
X572591380Y-432724809D01*
X572615190Y-432677190D01*
X572615190Y-432486714D01*
X572115190Y-432486714D01*
X572115190Y-432653380D01*
X572139000Y-432701000D01*
X572162809Y-432724809D01*
X572210428Y-432748619D01*
X572258047Y-432748619D01*
X572305666Y-432724809D01*
X572329476Y-432701000D01*
X572353285Y-432653380D01*
X572353285Y-432486714D01*
X572472333Y-432962904D02*
X572472333Y-433201000D01*
X572615190Y-432915285D02*
X572115190Y-433081952D01*
X572615190Y-433248619D01*
X572115190Y-433343857D02*
X572115190Y-433629571D01*
X572615190Y-433486714D02*
X572115190Y-433486714D01*
X572115190Y-433724809D02*
X572115190Y-434010523D01*
X572615190Y-433867666D02*
X572115190Y-433867666D01*
X572615190Y-434439095D02*
X572615190Y-434153380D01*
X572615190Y-434296238D02*
X572115190Y-434296238D01*
X572186619Y-434248619D01*
X572234238Y-434201000D01*
X572258047Y-434153380D01*
X549437619Y-327624285D02*
X549366190Y-327648095D01*
X549342380Y-327671904D01*
X549318571Y-327719523D01*
X549318571Y-327790952D01*
X549342380Y-327838571D01*
X549366190Y-327862380D01*
X549413809Y-327886190D01*
X549604285Y-327886190D01*
X549604285Y-327386190D01*
X549437619Y-327386190D01*
X549390000Y-327410000D01*
X549366190Y-327433809D01*
X549342380Y-327481428D01*
X549342380Y-327529047D01*
X549366190Y-327576666D01*
X549390000Y-327600476D01*
X549437619Y-327624285D01*
X549604285Y-327624285D01*
X549128095Y-327743333D02*
X548890000Y-327743333D01*
X549175714Y-327886190D02*
X549009047Y-327386190D01*
X548842380Y-327886190D01*
X548747142Y-327386190D02*
X548461428Y-327386190D01*
X548604285Y-327886190D02*
X548604285Y-327386190D01*
X548366190Y-327386190D02*
X548080476Y-327386190D01*
X548223333Y-327886190D02*
X548223333Y-327386190D01*
X547651904Y-327886190D02*
X547937619Y-327886190D01*
X547794761Y-327886190D02*
X547794761Y-327386190D01*
X547842380Y-327457619D01*
X547890000Y-327505238D01*
X547937619Y-327529047D01*
X501685619Y-327624285D02*
X501614190Y-327648095D01*
X501590380Y-327671904D01*
X501566571Y-327719523D01*
X501566571Y-327790952D01*
X501590380Y-327838571D01*
X501614190Y-327862380D01*
X501661809Y-327886190D01*
X501852285Y-327886190D01*
X501852285Y-327386190D01*
X501685619Y-327386190D01*
X501638000Y-327410000D01*
X501614190Y-327433809D01*
X501590380Y-327481428D01*
X501590380Y-327529047D01*
X501614190Y-327576666D01*
X501638000Y-327600476D01*
X501685619Y-327624285D01*
X501852285Y-327624285D01*
X501376095Y-327743333D02*
X501138000Y-327743333D01*
X501423714Y-327886190D02*
X501257047Y-327386190D01*
X501090380Y-327886190D01*
X500995142Y-327386190D02*
X500709428Y-327386190D01*
X500852285Y-327886190D02*
X500852285Y-327386190D01*
X500614190Y-327386190D02*
X500328476Y-327386190D01*
X500471333Y-327886190D02*
X500471333Y-327386190D01*
X499899904Y-327886190D02*
X500185619Y-327886190D01*
X500042761Y-327886190D02*
X500042761Y-327386190D01*
X500090380Y-327457619D01*
X500138000Y-327505238D01*
X500185619Y-327529047D01*
X473058904Y-461752190D02*
X472963666Y-461752190D01*
X472916047Y-461776000D01*
X472868428Y-461823619D01*
X472844619Y-461918857D01*
X472844619Y-462085523D01*
X472868428Y-462180761D01*
X472916047Y-462228380D01*
X472963666Y-462252190D01*
X473058904Y-462252190D01*
X473106523Y-462228380D01*
X473154142Y-462180761D01*
X473177952Y-462085523D01*
X473177952Y-461918857D01*
X473154142Y-461823619D01*
X473106523Y-461776000D01*
X473058904Y-461752190D01*
X472630333Y-461752190D02*
X472630333Y-462156952D01*
X472606523Y-462204571D01*
X472582714Y-462228380D01*
X472535095Y-462252190D01*
X472439857Y-462252190D01*
X472392238Y-462228380D01*
X472368428Y-462204571D01*
X472344619Y-462156952D01*
X472344619Y-461752190D01*
X472177952Y-461752190D02*
X471892238Y-461752190D01*
X472035095Y-462252190D02*
X472035095Y-461752190D01*
X471558904Y-461990285D02*
X471487476Y-462014095D01*
X471463666Y-462037904D01*
X471439857Y-462085523D01*
X471439857Y-462156952D01*
X471463666Y-462204571D01*
X471487476Y-462228380D01*
X471535095Y-462252190D01*
X471725571Y-462252190D01*
X471725571Y-461752190D01*
X471558904Y-461752190D01*
X471511285Y-461776000D01*
X471487476Y-461799809D01*
X471463666Y-461847428D01*
X471463666Y-461895047D01*
X471487476Y-461942666D01*
X471511285Y-461966476D01*
X471558904Y-461990285D01*
X471725571Y-461990285D01*
X471249380Y-461799809D02*
X471225571Y-461776000D01*
X471177952Y-461752190D01*
X471058904Y-461752190D01*
X471011285Y-461776000D01*
X470987476Y-461799809D01*
X470963666Y-461847428D01*
X470963666Y-461895047D01*
X470987476Y-461966476D01*
X471273190Y-462252190D01*
X470963666Y-462252190D01*
X470868428Y-462299809D02*
X470487476Y-462299809D01*
X470130333Y-462252190D02*
X470368428Y-462252190D01*
X470368428Y-461752190D01*
X469963666Y-462252190D02*
X469963666Y-461752190D01*
X469725571Y-462252190D02*
X469725571Y-461752190D01*
X469439857Y-462252190D01*
X469439857Y-461752190D01*
X478103190Y-461752190D02*
X478007952Y-461752190D01*
X477960333Y-461776000D01*
X477912714Y-461823619D01*
X477888904Y-461918857D01*
X477888904Y-462085523D01*
X477912714Y-462180761D01*
X477960333Y-462228380D01*
X478007952Y-462252190D01*
X478103190Y-462252190D01*
X478150809Y-462228380D01*
X478198428Y-462180761D01*
X478222238Y-462085523D01*
X478222238Y-461918857D01*
X478198428Y-461823619D01*
X478150809Y-461776000D01*
X478103190Y-461752190D01*
X477674619Y-461752190D02*
X477674619Y-462156952D01*
X477650809Y-462204571D01*
X477627000Y-462228380D01*
X477579380Y-462252190D01*
X477484142Y-462252190D01*
X477436523Y-462228380D01*
X477412714Y-462204571D01*
X477388904Y-462156952D01*
X477388904Y-461752190D01*
X477222238Y-461752190D02*
X476936523Y-461752190D01*
X477079380Y-462252190D02*
X477079380Y-461752190D01*
X476793666Y-462109333D02*
X476555571Y-462109333D01*
X476841285Y-462252190D02*
X476674619Y-461752190D01*
X476507952Y-462252190D01*
X476365095Y-461799809D02*
X476341285Y-461776000D01*
X476293666Y-461752190D01*
X476174619Y-461752190D01*
X476127000Y-461776000D01*
X476103190Y-461799809D01*
X476079380Y-461847428D01*
X476079380Y-461895047D01*
X476103190Y-461966476D01*
X476388904Y-462252190D01*
X476079380Y-462252190D01*
X475984142Y-462299809D02*
X475603190Y-462299809D01*
X475246047Y-462252190D02*
X475484142Y-462252190D01*
X475484142Y-461752190D01*
X475079380Y-462252190D02*
X475079380Y-461752190D01*
X474841285Y-462252190D02*
X474841285Y-461752190D01*
X474555571Y-462252190D01*
X474555571Y-461752190D01*
X459688190Y-313670190D02*
X459592952Y-313670190D01*
X459545333Y-313694000D01*
X459497714Y-313741619D01*
X459473904Y-313836857D01*
X459473904Y-314003523D01*
X459497714Y-314098761D01*
X459545333Y-314146380D01*
X459592952Y-314170190D01*
X459688190Y-314170190D01*
X459735809Y-314146380D01*
X459783428Y-314098761D01*
X459807238Y-314003523D01*
X459807238Y-313836857D01*
X459783428Y-313741619D01*
X459735809Y-313694000D01*
X459688190Y-313670190D01*
X459259619Y-313670190D02*
X459259619Y-314074952D01*
X459235809Y-314122571D01*
X459212000Y-314146380D01*
X459164380Y-314170190D01*
X459069142Y-314170190D01*
X459021523Y-314146380D01*
X458997714Y-314122571D01*
X458973904Y-314074952D01*
X458973904Y-313670190D01*
X458807238Y-313670190D02*
X458521523Y-313670190D01*
X458664380Y-314170190D02*
X458664380Y-313670190D01*
X458378666Y-314027333D02*
X458140571Y-314027333D01*
X458426285Y-314170190D02*
X458259619Y-313670190D01*
X458092952Y-314170190D01*
X457973904Y-313670190D02*
X457664380Y-313670190D01*
X457831047Y-313860666D01*
X457759619Y-313860666D01*
X457712000Y-313884476D01*
X457688190Y-313908285D01*
X457664380Y-313955904D01*
X457664380Y-314074952D01*
X457688190Y-314122571D01*
X457712000Y-314146380D01*
X457759619Y-314170190D01*
X457902476Y-314170190D01*
X457950095Y-314146380D01*
X457973904Y-314122571D01*
X457569142Y-314217809D02*
X457188190Y-314217809D01*
X456831047Y-314170190D02*
X457069142Y-314170190D01*
X457069142Y-313670190D01*
X456664380Y-314170190D02*
X456664380Y-313670190D01*
X456426285Y-314170190D02*
X456426285Y-313670190D01*
X456140571Y-314170190D01*
X456140571Y-313670190D01*
X465311904Y-313670190D02*
X465216666Y-313670190D01*
X465169047Y-313694000D01*
X465121428Y-313741619D01*
X465097619Y-313836857D01*
X465097619Y-314003523D01*
X465121428Y-314098761D01*
X465169047Y-314146380D01*
X465216666Y-314170190D01*
X465311904Y-314170190D01*
X465359523Y-314146380D01*
X465407142Y-314098761D01*
X465430952Y-314003523D01*
X465430952Y-313836857D01*
X465407142Y-313741619D01*
X465359523Y-313694000D01*
X465311904Y-313670190D01*
X464883333Y-313670190D02*
X464883333Y-314074952D01*
X464859523Y-314122571D01*
X464835714Y-314146380D01*
X464788095Y-314170190D01*
X464692857Y-314170190D01*
X464645238Y-314146380D01*
X464621428Y-314122571D01*
X464597619Y-314074952D01*
X464597619Y-313670190D01*
X464430952Y-313670190D02*
X464145238Y-313670190D01*
X464288095Y-314170190D02*
X464288095Y-313670190D01*
X463811904Y-313908285D02*
X463740476Y-313932095D01*
X463716666Y-313955904D01*
X463692857Y-314003523D01*
X463692857Y-314074952D01*
X463716666Y-314122571D01*
X463740476Y-314146380D01*
X463788095Y-314170190D01*
X463978571Y-314170190D01*
X463978571Y-313670190D01*
X463811904Y-313670190D01*
X463764285Y-313694000D01*
X463740476Y-313717809D01*
X463716666Y-313765428D01*
X463716666Y-313813047D01*
X463740476Y-313860666D01*
X463764285Y-313884476D01*
X463811904Y-313908285D01*
X463978571Y-313908285D01*
X463526190Y-313670190D02*
X463216666Y-313670190D01*
X463383333Y-313860666D01*
X463311904Y-313860666D01*
X463264285Y-313884476D01*
X463240476Y-313908285D01*
X463216666Y-313955904D01*
X463216666Y-314074952D01*
X463240476Y-314122571D01*
X463264285Y-314146380D01*
X463311904Y-314170190D01*
X463454761Y-314170190D01*
X463502380Y-314146380D01*
X463526190Y-314122571D01*
X463121428Y-314217809D02*
X462740476Y-314217809D01*
X462383333Y-314170190D02*
X462621428Y-314170190D01*
X462621428Y-313670190D01*
X462216666Y-314170190D02*
X462216666Y-313670190D01*
X461978571Y-314170190D02*
X461978571Y-313670190D01*
X461692857Y-314170190D01*
X461692857Y-313670190D01*
X466363809Y-397966190D02*
X466363809Y-397870952D01*
X466340000Y-397823333D01*
X466292380Y-397775714D01*
X466197142Y-397751904D01*
X466030476Y-397751904D01*
X465935238Y-397775714D01*
X465887619Y-397823333D01*
X465863809Y-397870952D01*
X465863809Y-397966190D01*
X465887619Y-398013809D01*
X465935238Y-398061428D01*
X466030476Y-398085238D01*
X466197142Y-398085238D01*
X466292380Y-398061428D01*
X466340000Y-398013809D01*
X466363809Y-397966190D01*
X466363809Y-397537619D02*
X465959047Y-397537619D01*
X465911428Y-397513809D01*
X465887619Y-397490000D01*
X465863809Y-397442380D01*
X465863809Y-397347142D01*
X465887619Y-397299523D01*
X465911428Y-397275714D01*
X465959047Y-397251904D01*
X466363809Y-397251904D01*
X466363809Y-397085238D02*
X466363809Y-396799523D01*
X465863809Y-396942380D02*
X466363809Y-396942380D01*
X466006666Y-396656666D02*
X466006666Y-396418571D01*
X465863809Y-396704285D02*
X466363809Y-396537619D01*
X465863809Y-396370952D01*
X465863809Y-395942380D02*
X465863809Y-396228095D01*
X465863809Y-396085238D02*
X466363809Y-396085238D01*
X466292380Y-396132857D01*
X466244761Y-396180476D01*
X466220952Y-396228095D01*
X465816190Y-395847142D02*
X465816190Y-395466190D01*
X465863809Y-395109047D02*
X465863809Y-395347142D01*
X466363809Y-395347142D01*
X465863809Y-394942380D02*
X466363809Y-394942380D01*
X465863809Y-394704285D02*
X466363809Y-394704285D01*
X465863809Y-394418571D01*
X466363809Y-394418571D01*
X466363809Y-403081904D02*
X466363809Y-402986666D01*
X466340000Y-402939047D01*
X466292380Y-402891428D01*
X466197142Y-402867619D01*
X466030476Y-402867619D01*
X465935238Y-402891428D01*
X465887619Y-402939047D01*
X465863809Y-402986666D01*
X465863809Y-403081904D01*
X465887619Y-403129523D01*
X465935238Y-403177142D01*
X466030476Y-403200952D01*
X466197142Y-403200952D01*
X466292380Y-403177142D01*
X466340000Y-403129523D01*
X466363809Y-403081904D01*
X466363809Y-402653333D02*
X465959047Y-402653333D01*
X465911428Y-402629523D01*
X465887619Y-402605714D01*
X465863809Y-402558095D01*
X465863809Y-402462857D01*
X465887619Y-402415238D01*
X465911428Y-402391428D01*
X465959047Y-402367619D01*
X466363809Y-402367619D01*
X466363809Y-402200952D02*
X466363809Y-401915238D01*
X465863809Y-402058095D02*
X466363809Y-402058095D01*
X466125714Y-401581904D02*
X466101904Y-401510476D01*
X466078095Y-401486666D01*
X466030476Y-401462857D01*
X465959047Y-401462857D01*
X465911428Y-401486666D01*
X465887619Y-401510476D01*
X465863809Y-401558095D01*
X465863809Y-401748571D01*
X466363809Y-401748571D01*
X466363809Y-401581904D01*
X466340000Y-401534285D01*
X466316190Y-401510476D01*
X466268571Y-401486666D01*
X466220952Y-401486666D01*
X466173333Y-401510476D01*
X466149523Y-401534285D01*
X466125714Y-401581904D01*
X466125714Y-401748571D01*
X465863809Y-400986666D02*
X465863809Y-401272380D01*
X465863809Y-401129523D02*
X466363809Y-401129523D01*
X466292380Y-401177142D01*
X466244761Y-401224761D01*
X466220952Y-401272380D01*
X465816190Y-400891428D02*
X465816190Y-400510476D01*
X465863809Y-400153333D02*
X465863809Y-400391428D01*
X466363809Y-400391428D01*
X465863809Y-399986666D02*
X466363809Y-399986666D01*
X465863809Y-399748571D02*
X466363809Y-399748571D01*
X465863809Y-399462857D01*
X466363809Y-399462857D01*
X465093809Y-427862857D02*
X465093809Y-427767619D01*
X465070000Y-427720000D01*
X465022380Y-427672380D01*
X464927142Y-427648571D01*
X464760476Y-427648571D01*
X464665238Y-427672380D01*
X464617619Y-427720000D01*
X464593809Y-427767619D01*
X464593809Y-427862857D01*
X464617619Y-427910476D01*
X464665238Y-427958095D01*
X464760476Y-427981904D01*
X464927142Y-427981904D01*
X465022380Y-427958095D01*
X465070000Y-427910476D01*
X465093809Y-427862857D01*
X465093809Y-427434285D02*
X464689047Y-427434285D01*
X464641428Y-427410476D01*
X464617619Y-427386666D01*
X464593809Y-427339047D01*
X464593809Y-427243809D01*
X464617619Y-427196190D01*
X464641428Y-427172380D01*
X464689047Y-427148571D01*
X465093809Y-427148571D01*
X465093809Y-426981904D02*
X465093809Y-426696190D01*
X464593809Y-426839047D02*
X465093809Y-426839047D01*
X464736666Y-426553333D02*
X464736666Y-426315238D01*
X464593809Y-426600952D02*
X465093809Y-426434285D01*
X464593809Y-426267619D01*
X464546190Y-426220000D02*
X464546190Y-425839047D01*
X465093809Y-425767619D02*
X465093809Y-425458095D01*
X464903333Y-425624761D01*
X464903333Y-425553333D01*
X464879523Y-425505714D01*
X464855714Y-425481904D01*
X464808095Y-425458095D01*
X464689047Y-425458095D01*
X464641428Y-425481904D01*
X464617619Y-425505714D01*
X464593809Y-425553333D01*
X464593809Y-425696190D01*
X464617619Y-425743809D01*
X464641428Y-425767619D01*
X465093809Y-432978571D02*
X465093809Y-432883333D01*
X465070000Y-432835714D01*
X465022380Y-432788095D01*
X464927142Y-432764285D01*
X464760476Y-432764285D01*
X464665238Y-432788095D01*
X464617619Y-432835714D01*
X464593809Y-432883333D01*
X464593809Y-432978571D01*
X464617619Y-433026190D01*
X464665238Y-433073809D01*
X464760476Y-433097619D01*
X464927142Y-433097619D01*
X465022380Y-433073809D01*
X465070000Y-433026190D01*
X465093809Y-432978571D01*
X465093809Y-432550000D02*
X464689047Y-432550000D01*
X464641428Y-432526190D01*
X464617619Y-432502380D01*
X464593809Y-432454761D01*
X464593809Y-432359523D01*
X464617619Y-432311904D01*
X464641428Y-432288095D01*
X464689047Y-432264285D01*
X465093809Y-432264285D01*
X465093809Y-432097619D02*
X465093809Y-431811904D01*
X464593809Y-431954761D02*
X465093809Y-431954761D01*
X464855714Y-431478571D02*
X464831904Y-431407142D01*
X464808095Y-431383333D01*
X464760476Y-431359523D01*
X464689047Y-431359523D01*
X464641428Y-431383333D01*
X464617619Y-431407142D01*
X464593809Y-431454761D01*
X464593809Y-431645238D01*
X465093809Y-431645238D01*
X465093809Y-431478571D01*
X465070000Y-431430952D01*
X465046190Y-431407142D01*
X464998571Y-431383333D01*
X464950952Y-431383333D01*
X464903333Y-431407142D01*
X464879523Y-431430952D01*
X464855714Y-431478571D01*
X464855714Y-431645238D01*
X464546190Y-431264285D02*
X464546190Y-430883333D01*
X465093809Y-430811904D02*
X465093809Y-430502380D01*
X464903333Y-430669047D01*
X464903333Y-430597619D01*
X464879523Y-430550000D01*
X464855714Y-430526190D01*
X464808095Y-430502380D01*
X464689047Y-430502380D01*
X464641428Y-430526190D01*
X464617619Y-430550000D01*
X464593809Y-430597619D01*
X464593809Y-430740476D01*
X464617619Y-430788095D01*
X464641428Y-430811904D01*
X579119857Y-401427190D02*
X579024619Y-401427190D01*
X578977000Y-401451000D01*
X578929380Y-401498619D01*
X578905571Y-401593857D01*
X578905571Y-401760523D01*
X578929380Y-401855761D01*
X578977000Y-401903380D01*
X579024619Y-401927190D01*
X579119857Y-401927190D01*
X579167476Y-401903380D01*
X579215095Y-401855761D01*
X579238904Y-401760523D01*
X579238904Y-401593857D01*
X579215095Y-401498619D01*
X579167476Y-401451000D01*
X579119857Y-401427190D01*
X578691285Y-401427190D02*
X578691285Y-401831952D01*
X578667476Y-401879571D01*
X578643666Y-401903380D01*
X578596047Y-401927190D01*
X578500809Y-401927190D01*
X578453190Y-401903380D01*
X578429380Y-401879571D01*
X578405571Y-401831952D01*
X578405571Y-401427190D01*
X578238904Y-401427190D02*
X577953190Y-401427190D01*
X578096047Y-401927190D02*
X578096047Y-401427190D01*
X577810333Y-401784333D02*
X577572238Y-401784333D01*
X577857952Y-401927190D02*
X577691285Y-401427190D01*
X577524619Y-401927190D01*
X577477000Y-401974809D02*
X577096047Y-401974809D01*
X576762714Y-401593857D02*
X576762714Y-401927190D01*
X576881761Y-401403380D02*
X577000809Y-401760523D01*
X576691285Y-401760523D01*
X579028571Y-390124190D02*
X578933333Y-390124190D01*
X578885714Y-390148000D01*
X578838095Y-390195619D01*
X578814285Y-390290857D01*
X578814285Y-390457523D01*
X578838095Y-390552761D01*
X578885714Y-390600380D01*
X578933333Y-390624190D01*
X579028571Y-390624190D01*
X579076190Y-390600380D01*
X579123809Y-390552761D01*
X579147619Y-390457523D01*
X579147619Y-390290857D01*
X579123809Y-390195619D01*
X579076190Y-390148000D01*
X579028571Y-390124190D01*
X578600000Y-390124190D02*
X578600000Y-390528952D01*
X578576190Y-390576571D01*
X578552380Y-390600380D01*
X578504761Y-390624190D01*
X578409523Y-390624190D01*
X578361904Y-390600380D01*
X578338095Y-390576571D01*
X578314285Y-390528952D01*
X578314285Y-390124190D01*
X578147619Y-390124190D02*
X577861904Y-390124190D01*
X578004761Y-390624190D02*
X578004761Y-390124190D01*
X577528571Y-390362285D02*
X577457142Y-390386095D01*
X577433333Y-390409904D01*
X577409523Y-390457523D01*
X577409523Y-390528952D01*
X577433333Y-390576571D01*
X577457142Y-390600380D01*
X577504761Y-390624190D01*
X577695238Y-390624190D01*
X577695238Y-390124190D01*
X577528571Y-390124190D01*
X577480952Y-390148000D01*
X577457142Y-390171809D01*
X577433333Y-390219428D01*
X577433333Y-390267047D01*
X577457142Y-390314666D01*
X577480952Y-390338476D01*
X577528571Y-390362285D01*
X577695238Y-390362285D01*
X577314285Y-390671809D02*
X576933333Y-390671809D01*
X576600000Y-390290857D02*
X576600000Y-390624190D01*
X576719047Y-390100380D02*
X576838095Y-390457523D01*
X576528571Y-390457523D01*
X572242190Y-449707142D02*
X572242190Y-449802380D01*
X572266000Y-449850000D01*
X572313619Y-449897619D01*
X572408857Y-449921428D01*
X572575523Y-449921428D01*
X572670761Y-449897619D01*
X572718380Y-449850000D01*
X572742190Y-449802380D01*
X572742190Y-449707142D01*
X572718380Y-449659523D01*
X572670761Y-449611904D01*
X572575523Y-449588095D01*
X572408857Y-449588095D01*
X572313619Y-449611904D01*
X572266000Y-449659523D01*
X572242190Y-449707142D01*
X572242190Y-450135714D02*
X572646952Y-450135714D01*
X572694571Y-450159523D01*
X572718380Y-450183333D01*
X572742190Y-450230952D01*
X572742190Y-450326190D01*
X572718380Y-450373809D01*
X572694571Y-450397619D01*
X572646952Y-450421428D01*
X572242190Y-450421428D01*
X572242190Y-450588095D02*
X572242190Y-450873809D01*
X572742190Y-450730952D02*
X572242190Y-450730952D01*
X572599333Y-451016666D02*
X572599333Y-451254761D01*
X572742190Y-450969047D02*
X572242190Y-451135714D01*
X572742190Y-451302380D01*
X572789809Y-451350000D02*
X572789809Y-451730952D01*
X572289809Y-451826190D02*
X572266000Y-451850000D01*
X572242190Y-451897619D01*
X572242190Y-452016666D01*
X572266000Y-452064285D01*
X572289809Y-452088095D01*
X572337428Y-452111904D01*
X572385047Y-452111904D01*
X572456476Y-452088095D01*
X572742190Y-451802380D01*
X572742190Y-452111904D01*
X572369190Y-444337428D02*
X572369190Y-444432666D01*
X572393000Y-444480285D01*
X572440619Y-444527904D01*
X572535857Y-444551714D01*
X572702523Y-444551714D01*
X572797761Y-444527904D01*
X572845380Y-444480285D01*
X572869190Y-444432666D01*
X572869190Y-444337428D01*
X572845380Y-444289809D01*
X572797761Y-444242190D01*
X572702523Y-444218380D01*
X572535857Y-444218380D01*
X572440619Y-444242190D01*
X572393000Y-444289809D01*
X572369190Y-444337428D01*
X572369190Y-444766000D02*
X572773952Y-444766000D01*
X572821571Y-444789809D01*
X572845380Y-444813619D01*
X572869190Y-444861238D01*
X572869190Y-444956476D01*
X572845380Y-445004095D01*
X572821571Y-445027904D01*
X572773952Y-445051714D01*
X572369190Y-445051714D01*
X572369190Y-445218380D02*
X572369190Y-445504095D01*
X572869190Y-445361238D02*
X572369190Y-445361238D01*
X572607285Y-445837428D02*
X572631095Y-445908857D01*
X572654904Y-445932666D01*
X572702523Y-445956476D01*
X572773952Y-445956476D01*
X572821571Y-445932666D01*
X572845380Y-445908857D01*
X572869190Y-445861238D01*
X572869190Y-445670761D01*
X572369190Y-445670761D01*
X572369190Y-445837428D01*
X572393000Y-445885047D01*
X572416809Y-445908857D01*
X572464428Y-445932666D01*
X572512047Y-445932666D01*
X572559666Y-445908857D01*
X572583476Y-445885047D01*
X572607285Y-445837428D01*
X572607285Y-445670761D01*
X572916809Y-446051714D02*
X572916809Y-446432666D01*
X572416809Y-446527904D02*
X572393000Y-446551714D01*
X572369190Y-446599333D01*
X572369190Y-446718380D01*
X572393000Y-446766000D01*
X572416809Y-446789809D01*
X572464428Y-446813619D01*
X572512047Y-446813619D01*
X572583476Y-446789809D01*
X572869190Y-446504095D01*
X572869190Y-446813619D01*
X572496190Y-409031428D02*
X572496190Y-409126666D01*
X572520000Y-409174285D01*
X572567619Y-409221904D01*
X572662857Y-409245714D01*
X572829523Y-409245714D01*
X572924761Y-409221904D01*
X572972380Y-409174285D01*
X572996190Y-409126666D01*
X572996190Y-409031428D01*
X572972380Y-408983809D01*
X572924761Y-408936190D01*
X572829523Y-408912380D01*
X572662857Y-408912380D01*
X572567619Y-408936190D01*
X572520000Y-408983809D01*
X572496190Y-409031428D01*
X572496190Y-409460000D02*
X572900952Y-409460000D01*
X572948571Y-409483809D01*
X572972380Y-409507619D01*
X572996190Y-409555238D01*
X572996190Y-409650476D01*
X572972380Y-409698095D01*
X572948571Y-409721904D01*
X572900952Y-409745714D01*
X572496190Y-409745714D01*
X572496190Y-409912380D02*
X572496190Y-410198095D01*
X572996190Y-410055238D02*
X572496190Y-410055238D01*
X572734285Y-410531428D02*
X572758095Y-410602857D01*
X572781904Y-410626666D01*
X572829523Y-410650476D01*
X572900952Y-410650476D01*
X572948571Y-410626666D01*
X572972380Y-410602857D01*
X572996190Y-410555238D01*
X572996190Y-410364761D01*
X572496190Y-410364761D01*
X572496190Y-410531428D01*
X572520000Y-410579047D01*
X572543809Y-410602857D01*
X572591428Y-410626666D01*
X572639047Y-410626666D01*
X572686666Y-410602857D01*
X572710476Y-410579047D01*
X572734285Y-410531428D01*
X572734285Y-410364761D01*
X573043809Y-410745714D02*
X573043809Y-411126666D01*
X572996190Y-411507619D02*
X572996190Y-411221904D01*
X572996190Y-411364761D02*
X572496190Y-411364761D01*
X572567619Y-411317142D01*
X572615238Y-411269523D01*
X572639047Y-411221904D01*
X572623190Y-414020142D02*
X572623190Y-414115380D01*
X572647000Y-414163000D01*
X572694619Y-414210619D01*
X572789857Y-414234428D01*
X572956523Y-414234428D01*
X573051761Y-414210619D01*
X573099380Y-414163000D01*
X573123190Y-414115380D01*
X573123190Y-414020142D01*
X573099380Y-413972523D01*
X573051761Y-413924904D01*
X572956523Y-413901095D01*
X572789857Y-413901095D01*
X572694619Y-413924904D01*
X572647000Y-413972523D01*
X572623190Y-414020142D01*
X572623190Y-414448714D02*
X573027952Y-414448714D01*
X573075571Y-414472523D01*
X573099380Y-414496333D01*
X573123190Y-414543952D01*
X573123190Y-414639190D01*
X573099380Y-414686809D01*
X573075571Y-414710619D01*
X573027952Y-414734428D01*
X572623190Y-414734428D01*
X572623190Y-414901095D02*
X572623190Y-415186809D01*
X573123190Y-415043952D02*
X572623190Y-415043952D01*
X572980333Y-415329666D02*
X572980333Y-415567761D01*
X573123190Y-415282047D02*
X572623190Y-415448714D01*
X573123190Y-415615380D01*
X573170809Y-415663000D02*
X573170809Y-416043952D01*
X573123190Y-416424904D02*
X573123190Y-416139190D01*
X573123190Y-416282047D02*
X572623190Y-416282047D01*
X572694619Y-416234428D01*
X572742238Y-416186809D01*
X572766047Y-416139190D01*
X571083285Y-375971761D02*
X571107095Y-376043190D01*
X571130904Y-376067000D01*
X571178523Y-376090809D01*
X571249952Y-376090809D01*
X571297571Y-376067000D01*
X571321380Y-376043190D01*
X571345190Y-375995571D01*
X571345190Y-375805095D01*
X570845190Y-375805095D01*
X570845190Y-375971761D01*
X570869000Y-376019380D01*
X570892809Y-376043190D01*
X570940428Y-376067000D01*
X570988047Y-376067000D01*
X571035666Y-376043190D01*
X571059476Y-376019380D01*
X571083285Y-375971761D01*
X571083285Y-375805095D01*
X570845190Y-376400333D02*
X570845190Y-376495571D01*
X570869000Y-376543190D01*
X570916619Y-376590809D01*
X571011857Y-376614619D01*
X571178523Y-376614619D01*
X571273761Y-376590809D01*
X571321380Y-376543190D01*
X571345190Y-376495571D01*
X571345190Y-376400333D01*
X571321380Y-376352714D01*
X571273761Y-376305095D01*
X571178523Y-376281285D01*
X571011857Y-376281285D01*
X570916619Y-376305095D01*
X570869000Y-376352714D01*
X570845190Y-376400333D01*
X570845190Y-376828904D02*
X571249952Y-376828904D01*
X571297571Y-376852714D01*
X571321380Y-376876523D01*
X571345190Y-376924142D01*
X571345190Y-377019380D01*
X571321380Y-377067000D01*
X571297571Y-377090809D01*
X571249952Y-377114619D01*
X570845190Y-377114619D01*
X570845190Y-377281285D02*
X570845190Y-377567000D01*
X571345190Y-377424142D02*
X570845190Y-377424142D01*
X571345190Y-377995571D02*
X571345190Y-377709857D01*
X571345190Y-377852714D02*
X570845190Y-377852714D01*
X570916619Y-377805095D01*
X570964238Y-377757476D01*
X570988047Y-377709857D01*
X571392809Y-378090809D02*
X571392809Y-378471761D01*
X570892809Y-378567000D02*
X570869000Y-378590809D01*
X570845190Y-378638428D01*
X570845190Y-378757476D01*
X570869000Y-378805095D01*
X570892809Y-378828904D01*
X570940428Y-378852714D01*
X570988047Y-378852714D01*
X571059476Y-378828904D01*
X571345190Y-378543190D01*
X571345190Y-378852714D01*
X571075333Y-373483000D02*
X571075333Y-373244904D01*
X571218190Y-373530619D02*
X570718190Y-373363952D01*
X571218190Y-373197285D01*
X570718190Y-372935380D02*
X570718190Y-372840142D01*
X570742000Y-372792523D01*
X570789619Y-372744904D01*
X570884857Y-372721095D01*
X571051523Y-372721095D01*
X571146761Y-372744904D01*
X571194380Y-372792523D01*
X571218190Y-372840142D01*
X571218190Y-372935380D01*
X571194380Y-372983000D01*
X571146761Y-373030619D01*
X571051523Y-373054428D01*
X570884857Y-373054428D01*
X570789619Y-373030619D01*
X570742000Y-372983000D01*
X570718190Y-372935380D01*
X570718190Y-372506809D02*
X571122952Y-372506809D01*
X571170571Y-372483000D01*
X571194380Y-372459190D01*
X571218190Y-372411571D01*
X571218190Y-372316333D01*
X571194380Y-372268714D01*
X571170571Y-372244904D01*
X571122952Y-372221095D01*
X570718190Y-372221095D01*
X570718190Y-372054428D02*
X570718190Y-371768714D01*
X571218190Y-371911571D02*
X570718190Y-371911571D01*
X570765809Y-371625857D02*
X570742000Y-371602047D01*
X570718190Y-371554428D01*
X570718190Y-371435380D01*
X570742000Y-371387761D01*
X570765809Y-371363952D01*
X570813428Y-371340142D01*
X570861047Y-371340142D01*
X570932476Y-371363952D01*
X571218190Y-371649666D01*
X571218190Y-371340142D01*
X571265809Y-371244904D02*
X571265809Y-370863952D01*
X570765809Y-370768714D02*
X570742000Y-370744904D01*
X570718190Y-370697285D01*
X570718190Y-370578238D01*
X570742000Y-370530619D01*
X570765809Y-370506809D01*
X570813428Y-370483000D01*
X570861047Y-370483000D01*
X570932476Y-370506809D01*
X571218190Y-370792523D01*
X571218190Y-370483000D01*
X570956285Y-380797761D02*
X570980095Y-380869190D01*
X571003904Y-380893000D01*
X571051523Y-380916809D01*
X571122952Y-380916809D01*
X571170571Y-380893000D01*
X571194380Y-380869190D01*
X571218190Y-380821571D01*
X571218190Y-380631095D01*
X570718190Y-380631095D01*
X570718190Y-380797761D01*
X570742000Y-380845380D01*
X570765809Y-380869190D01*
X570813428Y-380893000D01*
X570861047Y-380893000D01*
X570908666Y-380869190D01*
X570932476Y-380845380D01*
X570956285Y-380797761D01*
X570956285Y-380631095D01*
X570718190Y-381226333D02*
X570718190Y-381321571D01*
X570742000Y-381369190D01*
X570789619Y-381416809D01*
X570884857Y-381440619D01*
X571051523Y-381440619D01*
X571146761Y-381416809D01*
X571194380Y-381369190D01*
X571218190Y-381321571D01*
X571218190Y-381226333D01*
X571194380Y-381178714D01*
X571146761Y-381131095D01*
X571051523Y-381107285D01*
X570884857Y-381107285D01*
X570789619Y-381131095D01*
X570742000Y-381178714D01*
X570718190Y-381226333D01*
X570718190Y-381654904D02*
X571122952Y-381654904D01*
X571170571Y-381678714D01*
X571194380Y-381702523D01*
X571218190Y-381750142D01*
X571218190Y-381845380D01*
X571194380Y-381893000D01*
X571170571Y-381916809D01*
X571122952Y-381940619D01*
X570718190Y-381940619D01*
X570718190Y-382107285D02*
X570718190Y-382393000D01*
X571218190Y-382250142D02*
X570718190Y-382250142D01*
X570765809Y-382535857D02*
X570742000Y-382559666D01*
X570718190Y-382607285D01*
X570718190Y-382726333D01*
X570742000Y-382773952D01*
X570765809Y-382797761D01*
X570813428Y-382821571D01*
X570861047Y-382821571D01*
X570932476Y-382797761D01*
X571218190Y-382512047D01*
X571218190Y-382821571D01*
X571265809Y-382916809D02*
X571265809Y-383297761D01*
X570765809Y-383393000D02*
X570742000Y-383416809D01*
X570718190Y-383464428D01*
X570718190Y-383583476D01*
X570742000Y-383631095D01*
X570765809Y-383654904D01*
X570813428Y-383678714D01*
X570861047Y-383678714D01*
X570932476Y-383654904D01*
X571218190Y-383369190D01*
X571218190Y-383678714D01*
X570948333Y-365530000D02*
X570948333Y-365768095D01*
X571091190Y-365482380D02*
X570591190Y-365649047D01*
X571091190Y-365815714D01*
X570591190Y-366077619D02*
X570591190Y-366172857D01*
X570615000Y-366220476D01*
X570662619Y-366268095D01*
X570757857Y-366291904D01*
X570924523Y-366291904D01*
X571019761Y-366268095D01*
X571067380Y-366220476D01*
X571091190Y-366172857D01*
X571091190Y-366077619D01*
X571067380Y-366030000D01*
X571019761Y-365982380D01*
X570924523Y-365958571D01*
X570757857Y-365958571D01*
X570662619Y-365982380D01*
X570615000Y-366030000D01*
X570591190Y-366077619D01*
X570591190Y-366506190D02*
X570995952Y-366506190D01*
X571043571Y-366530000D01*
X571067380Y-366553809D01*
X571091190Y-366601428D01*
X571091190Y-366696666D01*
X571067380Y-366744285D01*
X571043571Y-366768095D01*
X570995952Y-366791904D01*
X570591190Y-366791904D01*
X570591190Y-366958571D02*
X570591190Y-367244285D01*
X571091190Y-367101428D02*
X570591190Y-367101428D01*
X571091190Y-367672857D02*
X571091190Y-367387142D01*
X571091190Y-367530000D02*
X570591190Y-367530000D01*
X570662619Y-367482380D01*
X570710238Y-367434761D01*
X570734047Y-367387142D01*
X571138809Y-367768095D02*
X571138809Y-368149047D01*
X570638809Y-368244285D02*
X570615000Y-368268095D01*
X570591190Y-368315714D01*
X570591190Y-368434761D01*
X570615000Y-368482380D01*
X570638809Y-368506190D01*
X570686428Y-368530000D01*
X570734047Y-368530000D01*
X570805476Y-368506190D01*
X571091190Y-368220476D01*
X571091190Y-368530000D01*
X570313333Y-326414000D02*
X570313333Y-326652095D01*
X570456190Y-326366380D02*
X569956190Y-326533047D01*
X570456190Y-326699714D01*
X569956190Y-326961619D02*
X569956190Y-327056857D01*
X569980000Y-327104476D01*
X570027619Y-327152095D01*
X570122857Y-327175904D01*
X570289523Y-327175904D01*
X570384761Y-327152095D01*
X570432380Y-327104476D01*
X570456190Y-327056857D01*
X570456190Y-326961619D01*
X570432380Y-326914000D01*
X570384761Y-326866380D01*
X570289523Y-326842571D01*
X570122857Y-326842571D01*
X570027619Y-326866380D01*
X569980000Y-326914000D01*
X569956190Y-326961619D01*
X569956190Y-327390190D02*
X570360952Y-327390190D01*
X570408571Y-327414000D01*
X570432380Y-327437809D01*
X570456190Y-327485428D01*
X570456190Y-327580666D01*
X570432380Y-327628285D01*
X570408571Y-327652095D01*
X570360952Y-327675904D01*
X569956190Y-327675904D01*
X569956190Y-327842571D02*
X569956190Y-328128285D01*
X570456190Y-327985428D02*
X569956190Y-327985428D01*
X570456190Y-328556857D02*
X570456190Y-328271142D01*
X570456190Y-328414000D02*
X569956190Y-328414000D01*
X570027619Y-328366380D01*
X570075238Y-328318761D01*
X570099047Y-328271142D01*
X570503809Y-328652095D02*
X570503809Y-329033047D01*
X570456190Y-329414000D02*
X570456190Y-329128285D01*
X570456190Y-329271142D02*
X569956190Y-329271142D01*
X570027619Y-329223523D01*
X570075238Y-329175904D01*
X570099047Y-329128285D01*
X570194285Y-341681761D02*
X570218095Y-341753190D01*
X570241904Y-341777000D01*
X570289523Y-341800809D01*
X570360952Y-341800809D01*
X570408571Y-341777000D01*
X570432380Y-341753190D01*
X570456190Y-341705571D01*
X570456190Y-341515095D01*
X569956190Y-341515095D01*
X569956190Y-341681761D01*
X569980000Y-341729380D01*
X570003809Y-341753190D01*
X570051428Y-341777000D01*
X570099047Y-341777000D01*
X570146666Y-341753190D01*
X570170476Y-341729380D01*
X570194285Y-341681761D01*
X570194285Y-341515095D01*
X569956190Y-342110333D02*
X569956190Y-342205571D01*
X569980000Y-342253190D01*
X570027619Y-342300809D01*
X570122857Y-342324619D01*
X570289523Y-342324619D01*
X570384761Y-342300809D01*
X570432380Y-342253190D01*
X570456190Y-342205571D01*
X570456190Y-342110333D01*
X570432380Y-342062714D01*
X570384761Y-342015095D01*
X570289523Y-341991285D01*
X570122857Y-341991285D01*
X570027619Y-342015095D01*
X569980000Y-342062714D01*
X569956190Y-342110333D01*
X569956190Y-342538904D02*
X570360952Y-342538904D01*
X570408571Y-342562714D01*
X570432380Y-342586523D01*
X570456190Y-342634142D01*
X570456190Y-342729380D01*
X570432380Y-342777000D01*
X570408571Y-342800809D01*
X570360952Y-342824619D01*
X569956190Y-342824619D01*
X569956190Y-342991285D02*
X569956190Y-343277000D01*
X570456190Y-343134142D02*
X569956190Y-343134142D01*
X570003809Y-343419857D02*
X569980000Y-343443666D01*
X569956190Y-343491285D01*
X569956190Y-343610333D01*
X569980000Y-343657952D01*
X570003809Y-343681761D01*
X570051428Y-343705571D01*
X570099047Y-343705571D01*
X570170476Y-343681761D01*
X570456190Y-343396047D01*
X570456190Y-343705571D01*
X570503809Y-343800809D02*
X570503809Y-344181761D01*
X570456190Y-344562714D02*
X570456190Y-344277000D01*
X570456190Y-344419857D02*
X569956190Y-344419857D01*
X570027619Y-344372238D01*
X570075238Y-344324619D01*
X570099047Y-344277000D01*
X570313333Y-331494000D02*
X570313333Y-331732095D01*
X570456190Y-331446380D02*
X569956190Y-331613047D01*
X570456190Y-331779714D01*
X569956190Y-332041619D02*
X569956190Y-332136857D01*
X569980000Y-332184476D01*
X570027619Y-332232095D01*
X570122857Y-332255904D01*
X570289523Y-332255904D01*
X570384761Y-332232095D01*
X570432380Y-332184476D01*
X570456190Y-332136857D01*
X570456190Y-332041619D01*
X570432380Y-331994000D01*
X570384761Y-331946380D01*
X570289523Y-331922571D01*
X570122857Y-331922571D01*
X570027619Y-331946380D01*
X569980000Y-331994000D01*
X569956190Y-332041619D01*
X569956190Y-332470190D02*
X570360952Y-332470190D01*
X570408571Y-332494000D01*
X570432380Y-332517809D01*
X570456190Y-332565428D01*
X570456190Y-332660666D01*
X570432380Y-332708285D01*
X570408571Y-332732095D01*
X570360952Y-332755904D01*
X569956190Y-332755904D01*
X569956190Y-332922571D02*
X569956190Y-333208285D01*
X570456190Y-333065428D02*
X569956190Y-333065428D01*
X570003809Y-333351142D02*
X569980000Y-333374952D01*
X569956190Y-333422571D01*
X569956190Y-333541619D01*
X569980000Y-333589238D01*
X570003809Y-333613047D01*
X570051428Y-333636857D01*
X570099047Y-333636857D01*
X570170476Y-333613047D01*
X570456190Y-333327333D01*
X570456190Y-333636857D01*
X570503809Y-333732095D02*
X570503809Y-334113047D01*
X570456190Y-334494000D02*
X570456190Y-334208285D01*
X570456190Y-334351142D02*
X569956190Y-334351142D01*
X570027619Y-334303523D01*
X570075238Y-334255904D01*
X570099047Y-334208285D01*
X570194285Y-336474761D02*
X570218095Y-336546190D01*
X570241904Y-336570000D01*
X570289523Y-336593809D01*
X570360952Y-336593809D01*
X570408571Y-336570000D01*
X570432380Y-336546190D01*
X570456190Y-336498571D01*
X570456190Y-336308095D01*
X569956190Y-336308095D01*
X569956190Y-336474761D01*
X569980000Y-336522380D01*
X570003809Y-336546190D01*
X570051428Y-336570000D01*
X570099047Y-336570000D01*
X570146666Y-336546190D01*
X570170476Y-336522380D01*
X570194285Y-336474761D01*
X570194285Y-336308095D01*
X569956190Y-336903333D02*
X569956190Y-336998571D01*
X569980000Y-337046190D01*
X570027619Y-337093809D01*
X570122857Y-337117619D01*
X570289523Y-337117619D01*
X570384761Y-337093809D01*
X570432380Y-337046190D01*
X570456190Y-336998571D01*
X570456190Y-336903333D01*
X570432380Y-336855714D01*
X570384761Y-336808095D01*
X570289523Y-336784285D01*
X570122857Y-336784285D01*
X570027619Y-336808095D01*
X569980000Y-336855714D01*
X569956190Y-336903333D01*
X569956190Y-337331904D02*
X570360952Y-337331904D01*
X570408571Y-337355714D01*
X570432380Y-337379523D01*
X570456190Y-337427142D01*
X570456190Y-337522380D01*
X570432380Y-337570000D01*
X570408571Y-337593809D01*
X570360952Y-337617619D01*
X569956190Y-337617619D01*
X569956190Y-337784285D02*
X569956190Y-338070000D01*
X570456190Y-337927142D02*
X569956190Y-337927142D01*
X570456190Y-338498571D02*
X570456190Y-338212857D01*
X570456190Y-338355714D02*
X569956190Y-338355714D01*
X570027619Y-338308095D01*
X570075238Y-338260476D01*
X570099047Y-338212857D01*
X570503809Y-338593809D02*
X570503809Y-338974761D01*
X570456190Y-339355714D02*
X570456190Y-339070000D01*
X570456190Y-339212857D02*
X569956190Y-339212857D01*
X570027619Y-339165238D01*
X570075238Y-339117619D01*
X570099047Y-339070000D01*
X466054285Y-359334761D02*
X466078095Y-359406190D01*
X466101904Y-359430000D01*
X466149523Y-359453809D01*
X466220952Y-359453809D01*
X466268571Y-359430000D01*
X466292380Y-359406190D01*
X466316190Y-359358571D01*
X466316190Y-359168095D01*
X465816190Y-359168095D01*
X465816190Y-359334761D01*
X465840000Y-359382380D01*
X465863809Y-359406190D01*
X465911428Y-359430000D01*
X465959047Y-359430000D01*
X466006666Y-359406190D01*
X466030476Y-359382380D01*
X466054285Y-359334761D01*
X466054285Y-359168095D01*
X465816190Y-359763333D02*
X465816190Y-359858571D01*
X465840000Y-359906190D01*
X465887619Y-359953809D01*
X465982857Y-359977619D01*
X466149523Y-359977619D01*
X466244761Y-359953809D01*
X466292380Y-359906190D01*
X466316190Y-359858571D01*
X466316190Y-359763333D01*
X466292380Y-359715714D01*
X466244761Y-359668095D01*
X466149523Y-359644285D01*
X465982857Y-359644285D01*
X465887619Y-359668095D01*
X465840000Y-359715714D01*
X465816190Y-359763333D01*
X465816190Y-360191904D02*
X466220952Y-360191904D01*
X466268571Y-360215714D01*
X466292380Y-360239523D01*
X466316190Y-360287142D01*
X466316190Y-360382380D01*
X466292380Y-360430000D01*
X466268571Y-360453809D01*
X466220952Y-360477619D01*
X465816190Y-360477619D01*
X465816190Y-360644285D02*
X465816190Y-360930000D01*
X466316190Y-360787142D02*
X465816190Y-360787142D01*
X465863809Y-361072857D02*
X465840000Y-361096666D01*
X465816190Y-361144285D01*
X465816190Y-361263333D01*
X465840000Y-361310952D01*
X465863809Y-361334761D01*
X465911428Y-361358571D01*
X465959047Y-361358571D01*
X466030476Y-361334761D01*
X466316190Y-361049047D01*
X466316190Y-361358571D01*
X466363809Y-361453809D02*
X466363809Y-361834761D01*
X465816190Y-361906190D02*
X465816190Y-362215714D01*
X466006666Y-362049047D01*
X466006666Y-362120476D01*
X466030476Y-362168095D01*
X466054285Y-362191904D01*
X466101904Y-362215714D01*
X466220952Y-362215714D01*
X466268571Y-362191904D01*
X466292380Y-362168095D01*
X466316190Y-362120476D01*
X466316190Y-361977619D01*
X466292380Y-361930000D01*
X466268571Y-361906190D01*
X466054285Y-364414761D02*
X466078095Y-364486190D01*
X466101904Y-364510000D01*
X466149523Y-364533809D01*
X466220952Y-364533809D01*
X466268571Y-364510000D01*
X466292380Y-364486190D01*
X466316190Y-364438571D01*
X466316190Y-364248095D01*
X465816190Y-364248095D01*
X465816190Y-364414761D01*
X465840000Y-364462380D01*
X465863809Y-364486190D01*
X465911428Y-364510000D01*
X465959047Y-364510000D01*
X466006666Y-364486190D01*
X466030476Y-364462380D01*
X466054285Y-364414761D01*
X466054285Y-364248095D01*
X465816190Y-364843333D02*
X465816190Y-364938571D01*
X465840000Y-364986190D01*
X465887619Y-365033809D01*
X465982857Y-365057619D01*
X466149523Y-365057619D01*
X466244761Y-365033809D01*
X466292380Y-364986190D01*
X466316190Y-364938571D01*
X466316190Y-364843333D01*
X466292380Y-364795714D01*
X466244761Y-364748095D01*
X466149523Y-364724285D01*
X465982857Y-364724285D01*
X465887619Y-364748095D01*
X465840000Y-364795714D01*
X465816190Y-364843333D01*
X465816190Y-365271904D02*
X466220952Y-365271904D01*
X466268571Y-365295714D01*
X466292380Y-365319523D01*
X466316190Y-365367142D01*
X466316190Y-365462380D01*
X466292380Y-365510000D01*
X466268571Y-365533809D01*
X466220952Y-365557619D01*
X465816190Y-365557619D01*
X465816190Y-365724285D02*
X465816190Y-366010000D01*
X466316190Y-365867142D02*
X465816190Y-365867142D01*
X466316190Y-366438571D02*
X466316190Y-366152857D01*
X466316190Y-366295714D02*
X465816190Y-366295714D01*
X465887619Y-366248095D01*
X465935238Y-366200476D01*
X465959047Y-366152857D01*
X466363809Y-366533809D02*
X466363809Y-366914761D01*
X465816190Y-366986190D02*
X465816190Y-367295714D01*
X466006666Y-367129047D01*
X466006666Y-367200476D01*
X466030476Y-367248095D01*
X466054285Y-367271904D01*
X466101904Y-367295714D01*
X466220952Y-367295714D01*
X466268571Y-367271904D01*
X466292380Y-367248095D01*
X466316190Y-367200476D01*
X466316190Y-367057619D01*
X466292380Y-367010000D01*
X466268571Y-366986190D01*
X466173333Y-369340000D02*
X466173333Y-369578095D01*
X466316190Y-369292380D02*
X465816190Y-369459047D01*
X466316190Y-369625714D01*
X465816190Y-369887619D02*
X465816190Y-369982857D01*
X465840000Y-370030476D01*
X465887619Y-370078095D01*
X465982857Y-370101904D01*
X466149523Y-370101904D01*
X466244761Y-370078095D01*
X466292380Y-370030476D01*
X466316190Y-369982857D01*
X466316190Y-369887619D01*
X466292380Y-369840000D01*
X466244761Y-369792380D01*
X466149523Y-369768571D01*
X465982857Y-369768571D01*
X465887619Y-369792380D01*
X465840000Y-369840000D01*
X465816190Y-369887619D01*
X465816190Y-370316190D02*
X466220952Y-370316190D01*
X466268571Y-370340000D01*
X466292380Y-370363809D01*
X466316190Y-370411428D01*
X466316190Y-370506666D01*
X466292380Y-370554285D01*
X466268571Y-370578095D01*
X466220952Y-370601904D01*
X465816190Y-370601904D01*
X465816190Y-370768571D02*
X465816190Y-371054285D01*
X466316190Y-370911428D02*
X465816190Y-370911428D01*
X465863809Y-371197142D02*
X465840000Y-371220952D01*
X465816190Y-371268571D01*
X465816190Y-371387619D01*
X465840000Y-371435238D01*
X465863809Y-371459047D01*
X465911428Y-371482857D01*
X465959047Y-371482857D01*
X466030476Y-371459047D01*
X466316190Y-371173333D01*
X466316190Y-371482857D01*
X466363809Y-371578095D02*
X466363809Y-371959047D01*
X465816190Y-372030476D02*
X465816190Y-372340000D01*
X466006666Y-372173333D01*
X466006666Y-372244761D01*
X466030476Y-372292380D01*
X466054285Y-372316190D01*
X466101904Y-372340000D01*
X466220952Y-372340000D01*
X466268571Y-372316190D01*
X466292380Y-372292380D01*
X466316190Y-372244761D01*
X466316190Y-372101904D01*
X466292380Y-372054285D01*
X466268571Y-372030476D01*
X466173333Y-374420000D02*
X466173333Y-374658095D01*
X466316190Y-374372380D02*
X465816190Y-374539047D01*
X466316190Y-374705714D01*
X465816190Y-374967619D02*
X465816190Y-375062857D01*
X465840000Y-375110476D01*
X465887619Y-375158095D01*
X465982857Y-375181904D01*
X466149523Y-375181904D01*
X466244761Y-375158095D01*
X466292380Y-375110476D01*
X466316190Y-375062857D01*
X466316190Y-374967619D01*
X466292380Y-374920000D01*
X466244761Y-374872380D01*
X466149523Y-374848571D01*
X465982857Y-374848571D01*
X465887619Y-374872380D01*
X465840000Y-374920000D01*
X465816190Y-374967619D01*
X465816190Y-375396190D02*
X466220952Y-375396190D01*
X466268571Y-375420000D01*
X466292380Y-375443809D01*
X466316190Y-375491428D01*
X466316190Y-375586666D01*
X466292380Y-375634285D01*
X466268571Y-375658095D01*
X466220952Y-375681904D01*
X465816190Y-375681904D01*
X465816190Y-375848571D02*
X465816190Y-376134285D01*
X466316190Y-375991428D02*
X465816190Y-375991428D01*
X466316190Y-376562857D02*
X466316190Y-376277142D01*
X466316190Y-376420000D02*
X465816190Y-376420000D01*
X465887619Y-376372380D01*
X465935238Y-376324761D01*
X465959047Y-376277142D01*
X466363809Y-376658095D02*
X466363809Y-377039047D01*
X465816190Y-377110476D02*
X465816190Y-377420000D01*
X466006666Y-377253333D01*
X466006666Y-377324761D01*
X466030476Y-377372380D01*
X466054285Y-377396190D01*
X466101904Y-377420000D01*
X466220952Y-377420000D01*
X466268571Y-377396190D01*
X466292380Y-377372380D01*
X466316190Y-377324761D01*
X466316190Y-377181904D01*
X466292380Y-377134285D01*
X466268571Y-377110476D01*
%TO.C,M12*%
X540548000Y-461070000D02*
X539778000Y-461070000D01*
X538198000Y-461070000D02*
X537238000Y-461070000D01*
X535658000Y-461070000D02*
X534698000Y-461070000D01*
X533118000Y-461070000D02*
X532348000Y-461070000D01*
X540548000Y-455770000D02*
X532348000Y-455770000D01*
X540548000Y-455310000D02*
X532348000Y-455310000D01*
X540548000Y-461630000D02*
X539778000Y-461630000D01*
X538198000Y-461630000D02*
X537238000Y-461630000D01*
X535658000Y-461630000D02*
X534698000Y-461630000D01*
X533118000Y-461630000D02*
X532348000Y-461630000D01*
X540548000Y-455310000D02*
X540548000Y-461630000D01*
X532348000Y-455310000D02*
X532348000Y-461630000D01*
X540788000Y-461130000D02*
X540788000Y-461870000D01*
X540788000Y-461870000D02*
X540288000Y-461870000D01*
%TO.C,M10*%
X530134000Y-461070000D02*
X529364000Y-461070000D01*
X527784000Y-461070000D02*
X526824000Y-461070000D01*
X525244000Y-461070000D02*
X524284000Y-461070000D01*
X522704000Y-461070000D02*
X521934000Y-461070000D01*
X530134000Y-455770000D02*
X521934000Y-455770000D01*
X530134000Y-455310000D02*
X521934000Y-455310000D01*
X530134000Y-461630000D02*
X529364000Y-461630000D01*
X527784000Y-461630000D02*
X526824000Y-461630000D01*
X525244000Y-461630000D02*
X524284000Y-461630000D01*
X522704000Y-461630000D02*
X521934000Y-461630000D01*
X530134000Y-455310000D02*
X530134000Y-461630000D01*
X521934000Y-455310000D02*
X521934000Y-461630000D01*
X530374000Y-461130000D02*
X530374000Y-461870000D01*
X530374000Y-461870000D02*
X529874000Y-461870000D01*
%TO.C,J3*%
X574548000Y-435864000D02*
X574548000Y-425704000D01*
X582168000Y-435864000D02*
X574548000Y-435864000D01*
X582168000Y-425704000D02*
X582168000Y-435864000D01*
X574548000Y-425704000D02*
X582168000Y-425704000D01*
X575818000Y-425704000D02*
X575818000Y-435864000D01*
%TO.C,M1*%
X580390000Y-325120000D02*
X580390000Y-345440000D01*
X572770000Y-325120000D02*
X572770000Y-345440000D01*
X579120000Y-345440000D02*
X579120000Y-325120000D01*
X580390000Y-345440000D02*
X572770000Y-345440000D01*
X572770000Y-325120000D02*
X580390000Y-325120000D01*
%TO.C,M2*%
X581406000Y-364744000D02*
X581406000Y-385064000D01*
X573786000Y-364744000D02*
X573786000Y-385064000D01*
X580136000Y-385064000D02*
X580136000Y-364744000D01*
X581406000Y-385064000D02*
X573786000Y-385064000D01*
X573786000Y-364744000D02*
X581406000Y-364744000D01*
%TO.C,M3*%
X478536000Y-451612000D02*
X478536000Y-459232000D01*
X453136000Y-451612000D02*
X453136000Y-459232000D01*
X478536000Y-451612000D02*
X453136000Y-451612000D01*
X478536000Y-457962000D02*
X453136000Y-457962000D01*
X478536000Y-459232000D02*
X453136000Y-459232000D01*
%TO.C,M4*%
X455930000Y-326390000D02*
X455930000Y-318770000D01*
X481330000Y-326390000D02*
X481330000Y-318770000D01*
X455930000Y-326390000D02*
X481330000Y-326390000D01*
X455930000Y-320040000D02*
X481330000Y-320040000D01*
X455930000Y-318770000D02*
X481330000Y-318770000D01*
%TO.C,M7*%
X574040000Y-401066000D02*
X574040000Y-390906000D01*
X581660000Y-401066000D02*
X574040000Y-401066000D01*
X581660000Y-390906000D02*
X581660000Y-401066000D01*
X574040000Y-390906000D02*
X581660000Y-390906000D01*
X575310000Y-390906000D02*
X575310000Y-401066000D01*
%TO.C,M8*%
X574040000Y-418084000D02*
X574040000Y-407924000D01*
X581660000Y-418084000D02*
X574040000Y-418084000D01*
X581660000Y-407924000D02*
X581660000Y-418084000D01*
X574040000Y-407924000D02*
X581660000Y-407924000D01*
X575310000Y-407924000D02*
X575310000Y-418084000D01*
%TO.C,M6*%
X463804000Y-424688000D02*
X463804000Y-434848000D01*
X456184000Y-424688000D02*
X463804000Y-424688000D01*
X456184000Y-434848000D02*
X456184000Y-424688000D01*
X463804000Y-434848000D02*
X456184000Y-434848000D01*
X462534000Y-434848000D02*
X462534000Y-424688000D01*
%TO.C,M9*%
X574040000Y-453898000D02*
X574040000Y-443738000D01*
X581660000Y-453898000D02*
X574040000Y-453898000D01*
X581660000Y-443738000D02*
X581660000Y-453898000D01*
X574040000Y-443738000D02*
X581660000Y-443738000D01*
X575310000Y-443738000D02*
X575310000Y-453898000D01*
%TO.C,M5*%
X455930000Y-393700000D02*
X463550000Y-393700000D01*
X455930000Y-419100000D02*
X463550000Y-419100000D01*
X455930000Y-393700000D02*
X455930000Y-419100000D01*
X462280000Y-393700000D02*
X462280000Y-419100000D01*
X463550000Y-393700000D02*
X463550000Y-419100000D01*
%TO.C,M11*%
X455930000Y-378460000D02*
X455930000Y-358140000D01*
X463550000Y-378460000D02*
X463550000Y-358140000D01*
X457200000Y-358140000D02*
X457200000Y-378460000D01*
X455930000Y-358140000D02*
X463550000Y-358140000D01*
X463550000Y-378460000D02*
X455930000Y-378460000D01*
%TO.C,J2*%
X541020000Y-319024000D02*
X551180000Y-319024000D01*
X541020000Y-326644000D02*
X541020000Y-319024000D01*
X551180000Y-326644000D02*
X541020000Y-326644000D01*
X551180000Y-319024000D02*
X551180000Y-326644000D01*
X551180000Y-320294000D02*
X541020000Y-320294000D01*
%TO.C,J1*%
X493268000Y-319024000D02*
X503428000Y-319024000D01*
X493268000Y-326644000D02*
X493268000Y-319024000D01*
X503428000Y-326644000D02*
X493268000Y-326644000D01*
X503428000Y-319024000D02*
X503428000Y-326644000D01*
X503428000Y-320294000D02*
X493268000Y-320294000D01*
%TO.C,M12*%
D11*
X537733714Y-454762380D02*
X537733714Y-453762380D01*
X537400380Y-454476666D01*
X537067047Y-453762380D01*
X537067047Y-454762380D01*
X536067047Y-454762380D02*
X536638476Y-454762380D01*
X536352761Y-454762380D02*
X536352761Y-453762380D01*
X536448000Y-453905238D01*
X536543238Y-454000476D01*
X536638476Y-454048095D01*
X535686095Y-453857619D02*
X535638476Y-453810000D01*
X535543238Y-453762380D01*
X535305142Y-453762380D01*
X535209904Y-453810000D01*
X535162285Y-453857619D01*
X535114666Y-453952857D01*
X535114666Y-454048095D01*
X535162285Y-454190952D01*
X535733714Y-454762380D01*
X535114666Y-454762380D01*
%TO.C,M10*%
X527319714Y-454762380D02*
X527319714Y-453762380D01*
X526986380Y-454476666D01*
X526653047Y-453762380D01*
X526653047Y-454762380D01*
X525653047Y-454762380D02*
X526224476Y-454762380D01*
X525938761Y-454762380D02*
X525938761Y-453762380D01*
X526034000Y-453905238D01*
X526129238Y-454000476D01*
X526224476Y-454048095D01*
X525034000Y-453762380D02*
X524938761Y-453762380D01*
X524843523Y-453810000D01*
X524795904Y-453857619D01*
X524748285Y-453952857D01*
X524700666Y-454143333D01*
X524700666Y-454381428D01*
X524748285Y-454571904D01*
X524795904Y-454667142D01*
X524843523Y-454714761D01*
X524938761Y-454762380D01*
X525034000Y-454762380D01*
X525129238Y-454714761D01*
X525176857Y-454667142D01*
X525224476Y-454571904D01*
X525272095Y-454381428D01*
X525272095Y-454143333D01*
X525224476Y-453952857D01*
X525176857Y-453857619D01*
X525129238Y-453810000D01*
X525034000Y-453762380D01*
%TO.C,J3*%
X583985619Y-431117333D02*
X583271333Y-431117333D01*
X583128476Y-431164952D01*
X583033238Y-431260190D01*
X582985619Y-431403047D01*
X582985619Y-431498285D01*
X583985619Y-430736380D02*
X583985619Y-430117333D01*
X583604666Y-430450666D01*
X583604666Y-430307809D01*
X583557047Y-430212571D01*
X583509428Y-430164952D01*
X583414190Y-430117333D01*
X583176095Y-430117333D01*
X583080857Y-430164952D01*
X583033238Y-430212571D01*
X582985619Y-430307809D01*
X582985619Y-430593523D01*
X583033238Y-430688761D01*
X583080857Y-430736380D01*
%TO.C,M1*%
X572232380Y-334450476D02*
X571232380Y-334450476D01*
X571946666Y-334783809D01*
X571232380Y-335117142D01*
X572232380Y-335117142D01*
X572232380Y-336117142D02*
X572232380Y-335545714D01*
X572232380Y-335831428D02*
X571232380Y-335831428D01*
X571375238Y-335736190D01*
X571470476Y-335640952D01*
X571518095Y-335545714D01*
%TO.C,M2*%
X573248380Y-374074476D02*
X572248380Y-374074476D01*
X572962666Y-374407809D01*
X572248380Y-374741142D01*
X573248380Y-374741142D01*
X572343619Y-375169714D02*
X572296000Y-375217333D01*
X572248380Y-375312571D01*
X572248380Y-375550666D01*
X572296000Y-375645904D01*
X572343619Y-375693523D01*
X572438857Y-375741142D01*
X572534095Y-375741142D01*
X572676952Y-375693523D01*
X573248380Y-375122095D01*
X573248380Y-375741142D01*
%TO.C,M3*%
X466655523Y-451324380D02*
X466655523Y-450324380D01*
X466322190Y-451038666D01*
X465988857Y-450324380D01*
X465988857Y-451324380D01*
X465607904Y-450324380D02*
X464988857Y-450324380D01*
X465322190Y-450705333D01*
X465179333Y-450705333D01*
X465084095Y-450752952D01*
X465036476Y-450800571D01*
X464988857Y-450895809D01*
X464988857Y-451133904D01*
X465036476Y-451229142D01*
X465084095Y-451276761D01*
X465179333Y-451324380D01*
X465465047Y-451324380D01*
X465560285Y-451276761D01*
X465607904Y-451229142D01*
%TO.C,M4*%
X469429523Y-327582380D02*
X469429523Y-326582380D01*
X469096190Y-327296666D01*
X468762857Y-326582380D01*
X468762857Y-327582380D01*
X467858095Y-326915714D02*
X467858095Y-327582380D01*
X468096190Y-326534761D02*
X468334285Y-327249047D01*
X467715238Y-327249047D01*
%TO.C,M7*%
X583382380Y-395176476D02*
X582382380Y-395176476D01*
X583096666Y-395509809D01*
X582382380Y-395843142D01*
X583382380Y-395843142D01*
X582382380Y-396224095D02*
X582382380Y-396890761D01*
X583382380Y-396462190D01*
%TO.C,M8*%
X583382380Y-412194476D02*
X582382380Y-412194476D01*
X583096666Y-412527809D01*
X582382380Y-412861142D01*
X583382380Y-412861142D01*
X582810952Y-413480190D02*
X582763333Y-413384952D01*
X582715714Y-413337333D01*
X582620476Y-413289714D01*
X582572857Y-413289714D01*
X582477619Y-413337333D01*
X582430000Y-413384952D01*
X582382380Y-413480190D01*
X582382380Y-413670666D01*
X582430000Y-413765904D01*
X582477619Y-413813523D01*
X582572857Y-413861142D01*
X582620476Y-413861142D01*
X582715714Y-413813523D01*
X582763333Y-413765904D01*
X582810952Y-413670666D01*
X582810952Y-413480190D01*
X582858571Y-413384952D01*
X582906190Y-413337333D01*
X583001428Y-413289714D01*
X583191904Y-413289714D01*
X583287142Y-413337333D01*
X583334761Y-413384952D01*
X583382380Y-413480190D01*
X583382380Y-413670666D01*
X583334761Y-413765904D01*
X583287142Y-413813523D01*
X583191904Y-413861142D01*
X583001428Y-413861142D01*
X582906190Y-413813523D01*
X582858571Y-413765904D01*
X582810952Y-413670666D01*
%TO.C,M6*%
X455366380Y-428958476D02*
X454366380Y-428958476D01*
X455080666Y-429291809D01*
X454366380Y-429625142D01*
X455366380Y-429625142D01*
X454366380Y-430529904D02*
X454366380Y-430339428D01*
X454414000Y-430244190D01*
X454461619Y-430196571D01*
X454604476Y-430101333D01*
X454794952Y-430053714D01*
X455175904Y-430053714D01*
X455271142Y-430101333D01*
X455318761Y-430148952D01*
X455366380Y-430244190D01*
X455366380Y-430434666D01*
X455318761Y-430529904D01*
X455271142Y-430577523D01*
X455175904Y-430625142D01*
X454937809Y-430625142D01*
X454842571Y-430577523D01*
X454794952Y-430529904D01*
X454747333Y-430434666D01*
X454747333Y-430244190D01*
X454794952Y-430148952D01*
X454842571Y-430101333D01*
X454937809Y-430053714D01*
%TO.C,M9*%
X583382380Y-448008476D02*
X582382380Y-448008476D01*
X583096666Y-448341809D01*
X582382380Y-448675142D01*
X583382380Y-448675142D01*
X583382380Y-449198952D02*
X583382380Y-449389428D01*
X583334761Y-449484666D01*
X583287142Y-449532285D01*
X583144285Y-449627523D01*
X582953809Y-449675142D01*
X582572857Y-449675142D01*
X582477619Y-449627523D01*
X582430000Y-449579904D01*
X582382380Y-449484666D01*
X582382380Y-449294190D01*
X582430000Y-449198952D01*
X582477619Y-449151333D01*
X582572857Y-449103714D01*
X582810952Y-449103714D01*
X582906190Y-449151333D01*
X582953809Y-449198952D01*
X583001428Y-449294190D01*
X583001428Y-449484666D01*
X582953809Y-449579904D01*
X582906190Y-449627523D01*
X582810952Y-449675142D01*
%TO.C,M5*%
X455642380Y-405580476D02*
X454642380Y-405580476D01*
X455356666Y-405913809D01*
X454642380Y-406247142D01*
X455642380Y-406247142D01*
X454642380Y-407199523D02*
X454642380Y-406723333D01*
X455118571Y-406675714D01*
X455070952Y-406723333D01*
X455023333Y-406818571D01*
X455023333Y-407056666D01*
X455070952Y-407151904D01*
X455118571Y-407199523D01*
X455213809Y-407247142D01*
X455451904Y-407247142D01*
X455547142Y-407199523D01*
X455594761Y-407151904D01*
X455642380Y-407056666D01*
X455642380Y-406818571D01*
X455594761Y-406723333D01*
X455547142Y-406675714D01*
%TO.C,M11*%
X464992380Y-367034285D02*
X463992380Y-367034285D01*
X464706666Y-367367619D01*
X463992380Y-367700952D01*
X464992380Y-367700952D01*
X464992380Y-368700952D02*
X464992380Y-368129523D01*
X464992380Y-368415238D02*
X463992380Y-368415238D01*
X464135238Y-368320000D01*
X464230476Y-368224761D01*
X464278095Y-368129523D01*
X464992380Y-369653333D02*
X464992380Y-369081904D01*
X464992380Y-369367619D02*
X463992380Y-369367619D01*
X464135238Y-369272380D01*
X464230476Y-369177142D01*
X464278095Y-369081904D01*
%TO.C,J2*%
X546433333Y-327366380D02*
X546433333Y-328080666D01*
X546480952Y-328223523D01*
X546576190Y-328318761D01*
X546719047Y-328366380D01*
X546814285Y-328366380D01*
X546004761Y-327461619D02*
X545957142Y-327414000D01*
X545861904Y-327366380D01*
X545623809Y-327366380D01*
X545528571Y-327414000D01*
X545480952Y-327461619D01*
X545433333Y-327556857D01*
X545433333Y-327652095D01*
X545480952Y-327794952D01*
X546052380Y-328366380D01*
X545433333Y-328366380D01*
%TO.C,J1*%
X498681333Y-327366380D02*
X498681333Y-328080666D01*
X498728952Y-328223523D01*
X498824190Y-328318761D01*
X498967047Y-328366380D01*
X499062285Y-328366380D01*
X497681333Y-328366380D02*
X498252761Y-328366380D01*
X497967047Y-328366380D02*
X497967047Y-327366380D01*
X498062285Y-327509238D01*
X498157523Y-327604476D01*
X498252761Y-327652095D01*
%TD*%
M02*
