M48
; DRILL file {KiCad (5.1.7)-1} date 02/21/21 17:25:52
; FORMAT={-:-/ absolute / inch / decimal}
; #@! TF.CreationDate,2021-02-21T17:25:52-05:00
; #@! TF.GenerationSoftware,Kicad,Pcbnew,(5.1.7)-1
FMAT,2
INCH
T1C0.0236
T2C0.0402
T3C0.0433
T4C0.0598
T5C0.1260
%
G90
G05
T1
X19.73Y-16.38
T2
X17.64Y-15.69
X17.64Y-15.79
X17.64Y-15.89
X17.64Y-15.99
X17.64Y-16.09
X17.64Y-16.19
X17.64Y-16.29
X17.64Y-16.39
X19.04Y-15.49
X19.04Y-15.59
X19.04Y-15.69
X19.04Y-15.79
X19.04Y-15.89
X19.04Y-15.99
X19.04Y-16.09
X19.04Y-16.19
X19.04Y-16.29
X19.04Y-16.39
X21.76Y-17.07
X21.76Y-17.17
X21.76Y-17.27
X21.76Y-17.37
X21.76Y-17.47
X21.76Y-17.57
X21.76Y-17.67
X21.76Y-17.77
X21.76Y-17.87
X21.76Y-17.97
X23.16Y-17.07
X23.16Y-17.17
X23.16Y-17.27
X23.16Y-17.37
X23.16Y-17.47
X23.16Y-17.57
X23.16Y-17.67
X23.16Y-17.77
X21.91Y-14.16
X21.91Y-14.26
X21.91Y-14.36
X21.91Y-14.46
X21.91Y-14.56
X21.91Y-14.66
X21.91Y-14.76
X21.91Y-14.86
X21.91Y-14.96
X21.91Y-15.06
X21.91Y-15.16
X21.91Y-15.26
X22.11Y-15.26
X22.21Y-15.26
X22.31Y-15.26
X22.41Y-15.26
X23.11Y-14.36
X23.11Y-14.46
X23.11Y-14.56
X23.11Y-14.66
X23.11Y-14.76
X23.11Y-14.86
X23.11Y-14.96
X23.11Y-15.06
X20.175Y-17.5925
X20.175Y-17.6925
X20.175Y-17.7925
X20.175Y-17.8925
X20.175Y-17.9925
X20.175Y-18.0925
X20.275Y-17.5925
X20.275Y-17.6925
X20.275Y-17.7925
X20.275Y-17.8925
X20.275Y-17.9925
X20.275Y-18.0925
X20.375Y-17.5925
X20.375Y-17.6925
X20.375Y-17.7925
X20.375Y-17.8925
X20.375Y-17.9925
X20.375Y-18.0925
X17.76Y-14.16
X17.76Y-14.26
X17.76Y-14.36
X17.76Y-14.46
X17.76Y-14.56
X17.76Y-14.66
X17.76Y-14.76
X17.76Y-14.86
X18.46Y-13.96
X18.56Y-13.96
X18.66Y-13.96
X18.76Y-13.96
X18.96Y-13.96
X18.96Y-14.06
X18.96Y-14.16
X18.96Y-14.26
X18.96Y-14.36
X18.96Y-14.46
X18.96Y-14.56
X18.96Y-14.66
X18.96Y-14.76
X18.96Y-14.86
X18.96Y-14.96
X18.96Y-15.06
X17.64Y-16.94
X17.64Y-17.04
X17.64Y-17.14
X17.64Y-17.24
X17.64Y-17.34
X17.64Y-17.44
X17.64Y-17.54
X17.64Y-17.64
X19.04Y-16.74
X19.04Y-16.84
X19.04Y-16.94
X19.04Y-17.04
X19.04Y-17.14
X19.04Y-17.24
X19.04Y-17.34
X19.04Y-17.44
X19.04Y-17.54
X19.04Y-17.64
X19.8Y-15.09
X19.8Y-15.19
X19.8Y-15.29
X19.8Y-15.39
X19.8Y-15.49
X19.8Y-15.59
X19.8Y-15.69
X19.8Y-15.79
X19.8Y-15.89
X19.8Y-15.99
X21.2Y-15.09
X21.2Y-15.19
X21.2Y-15.29
X21.2Y-15.39
X21.2Y-15.49
X21.2Y-15.59
X21.2Y-15.69
X21.2Y-15.79
X21.92Y-12.6
X21.92Y-12.7
X21.92Y-12.8
X21.92Y-12.9
X21.92Y-13.0
X21.92Y-13.1
X21.92Y-13.2
X21.92Y-13.3
X21.92Y-13.4
X21.92Y-13.5
X21.92Y-13.6
X21.92Y-13.7
X22.12Y-13.7
X22.22Y-13.7
X22.32Y-13.7
X22.42Y-13.7
X23.12Y-12.8
X23.12Y-12.9
X23.12Y-13.0
X23.12Y-13.1
X23.12Y-13.2
X23.12Y-13.3
X23.12Y-13.4
X23.12Y-13.5
X19.8Y-16.5
X19.8Y-16.6
X19.8Y-16.7
X19.8Y-16.8
X19.8Y-16.9
X19.8Y-17.0
X19.8Y-17.1
X19.8Y-17.2
X21.2Y-16.3
X21.2Y-16.4
X21.2Y-16.5
X21.2Y-16.6
X21.2Y-16.7
X21.2Y-16.8
X21.2Y-16.9
X21.2Y-17.0
X21.2Y-17.1
X21.2Y-17.2
X21.76Y-15.76
X21.76Y-15.86
X21.76Y-15.96
X21.76Y-16.06
X21.76Y-16.16
X21.76Y-16.26
X21.76Y-16.36
X21.76Y-16.46
X21.76Y-16.56
X21.76Y-16.66
X23.16Y-15.76
X23.16Y-15.86
X23.16Y-15.96
X23.16Y-16.06
X23.16Y-16.16
X23.16Y-16.26
X23.16Y-16.36
X23.16Y-16.46
X19.325Y-18.125
X19.425Y-18.125
X19.525Y-18.125
X19.625Y-18.125
X19.725Y-18.125
X17.71Y-12.87
X17.71Y-12.97
X17.71Y-13.07
X17.71Y-13.17
X17.71Y-13.27
X17.71Y-13.37
X17.71Y-13.47
X17.71Y-13.57
X19.11Y-12.67
X19.11Y-12.77
X19.11Y-12.87
X19.11Y-12.97
X19.11Y-13.07
X19.11Y-13.17
X19.11Y-13.27
X19.11Y-13.37
X19.11Y-13.47
X19.11Y-13.57
T3
X20.61Y-18.05
X20.71Y-18.05
X20.81Y-18.05
X21.02Y-18.05
X21.12Y-18.05
X21.22Y-18.05
X20.15Y-12.52
X20.15Y-12.62
X20.15Y-12.72
X20.15Y-12.82
X20.15Y-12.92
X20.15Y-13.02
X20.15Y-13.12
X20.15Y-13.22
X20.15Y-13.32
X20.15Y-13.42
X20.15Y-13.52
X20.15Y-13.62
X20.15Y-13.72
X20.15Y-13.82
X20.15Y-13.92
X20.15Y-14.02
X20.15Y-14.12
X20.15Y-14.22
X20.15Y-14.32
X20.15Y-14.42
X20.15Y-14.52
X20.15Y-14.62
X20.15Y-14.72
X20.15Y-14.82
X20.75Y-12.52
X20.75Y-12.62
X20.75Y-12.72
X20.75Y-12.82
X20.75Y-12.92
X20.75Y-13.02
X20.75Y-13.12
X20.75Y-13.22
X20.75Y-13.32
X20.75Y-13.42
X20.75Y-13.52
X20.75Y-13.62
X20.75Y-13.72
X20.75Y-13.82
X20.75Y-13.92
X20.75Y-14.02
X20.75Y-14.12
X20.75Y-14.22
X20.75Y-14.32
X20.75Y-14.42
X20.75Y-14.52
X20.75Y-14.62
X20.75Y-14.72
X20.75Y-14.82
T4
X19.52Y-12.71
X19.72Y-12.71
X18.05Y-12.7
X18.25Y-12.7
X18.45Y-12.7
X18.65Y-12.7
X18.85Y-12.7
X22.74Y-14.46
X22.74Y-14.66
X22.74Y-14.86
X22.74Y-15.06
X17.94Y-17.93
X18.14Y-17.93
X18.34Y-17.93
X18.54Y-17.93
X18.74Y-17.93
X21.4Y-12.71
X21.6Y-12.71
X18.1Y-15.6
X18.1Y-15.8
X18.1Y-16.0
X18.1Y-16.2
X18.1Y-16.4
X22.77Y-16.86
X22.77Y-17.06
X22.7Y-12.9
X22.7Y-13.1
X22.7Y-13.3
X22.7Y-13.5
X22.75Y-17.57
X22.75Y-17.77
X22.75Y-15.49
X22.75Y-15.69
X18.11Y-16.82
X18.11Y-17.02
X18.1Y-14.2
X18.1Y-14.4
X18.1Y-14.6
X18.1Y-14.8
X22.75Y-16.16
X22.75Y-16.36
T5
X17.72Y-12.26
X22.9Y-18.3468
X22.9Y-12.26
X17.72Y-18.35
T0
M30
