%TF.GenerationSoftware,KiCad,Pcbnew,(5.1.7)-1*%
%TF.CreationDate,2021-02-21T17:24:45-05:00*%
%TF.ProjectId,Overall Schematics,4f766572-616c-46c2-9053-6368656d6174,rev?*%
%TF.SameCoordinates,Original*%
%TF.FileFunction,Soldermask,Bot*%
%TF.FilePolarity,Negative*%
%FSLAX46Y46*%
G04 Gerber Fmt 4.6, Leading zero omitted, Abs format (unit mm)*
G04 Created by KiCad (PCBNEW (5.1.7)-1) date 2021-02-21 17:24:45*
%MOMM*%
%LPD*%
G01*
G04 APERTURE LIST*
%ADD10C,3.200000*%
%ADD11C,2.200000*%
%ADD12R,2.200000X2.200000*%
%ADD13C,1.300000*%
%ADD14C,3.000000*%
%ADD15R,3.000000X3.000000*%
%ADD16C,1.400000*%
%ADD17C,1.600000*%
%ADD18R,1.600000X1.600000*%
G04 APERTURE END LIST*
D10*
%TO.C,H2*%
X581660000Y-466008000D03*
%TD*%
D11*
%TO.C,M12*%
X533908000Y-458470000D03*
X536448000Y-458470000D03*
D12*
X538988000Y-458470000D03*
%TD*%
D11*
%TO.C,M10*%
X523494000Y-458470000D03*
X526034000Y-458470000D03*
D12*
X528574000Y-458470000D03*
%TD*%
D13*
%TO.C,U10*%
X538480000Y-383286000D03*
X538480000Y-385826000D03*
X538480000Y-388366000D03*
X538480000Y-390906000D03*
X538480000Y-393446000D03*
X538480000Y-395986000D03*
X538480000Y-398526000D03*
X538480000Y-401066000D03*
X502920000Y-383286000D03*
X502920000Y-385826000D03*
X502920000Y-388366000D03*
X502920000Y-390906000D03*
X502920000Y-393446000D03*
X502920000Y-395986000D03*
X502920000Y-398526000D03*
X502920000Y-401066000D03*
X502920000Y-403606000D03*
X502920000Y-406146000D03*
%TD*%
D14*
%TO.C,J3*%
X578358000Y-428244000D03*
D15*
X578358000Y-433324000D03*
%TD*%
D16*
%TO.C,U13*%
X501015000Y-460375000D03*
X498475000Y-460375000D03*
X495935000Y-460375000D03*
X493395000Y-460375000D03*
X490855000Y-460375000D03*
%TD*%
D14*
%TO.C,M1*%
X576580000Y-342900000D03*
D15*
X576580000Y-327660000D03*
D14*
X576580000Y-337820000D03*
X576580000Y-332740000D03*
%TD*%
%TO.C,M2*%
X577596000Y-382524000D03*
D15*
X577596000Y-367284000D03*
D14*
X577596000Y-377444000D03*
X577596000Y-372364000D03*
%TD*%
%TO.C,M3*%
X455676000Y-455422000D03*
X460756000Y-455422000D03*
D15*
X475996000Y-455422000D03*
D14*
X465836000Y-455422000D03*
X470916000Y-455422000D03*
%TD*%
%TO.C,M4*%
X478790000Y-322580000D03*
X473710000Y-322580000D03*
D15*
X458470000Y-322580000D03*
D14*
X468630000Y-322580000D03*
X463550000Y-322580000D03*
%TD*%
%TO.C,M7*%
X577850000Y-393446000D03*
D15*
X577850000Y-398526000D03*
%TD*%
D14*
%TO.C,M8*%
X577850000Y-410464000D03*
D15*
X577850000Y-415544000D03*
%TD*%
D14*
%TO.C,M6*%
X459994000Y-432308000D03*
D15*
X459994000Y-427228000D03*
%TD*%
D14*
%TO.C,M9*%
X577850000Y-446278000D03*
D15*
X577850000Y-451358000D03*
%TD*%
D14*
%TO.C,M5*%
X459740000Y-416560000D03*
X459740000Y-411480000D03*
D15*
X459740000Y-396240000D03*
D14*
X459740000Y-406400000D03*
X459740000Y-401320000D03*
%TD*%
D13*
%TO.C,U9*%
X502920000Y-436880000D03*
X502920000Y-434340000D03*
X502920000Y-431800000D03*
X502920000Y-429260000D03*
X502920000Y-426720000D03*
X502920000Y-424180000D03*
X502920000Y-421640000D03*
X502920000Y-419100000D03*
X538480000Y-436880000D03*
X538480000Y-434340000D03*
X538480000Y-431800000D03*
X538480000Y-429260000D03*
X538480000Y-426720000D03*
X538480000Y-424180000D03*
X538480000Y-421640000D03*
X538480000Y-419100000D03*
X538480000Y-416560000D03*
X538480000Y-414020000D03*
%TD*%
D14*
%TO.C,M11*%
X459740000Y-360680000D03*
D15*
X459740000Y-375920000D03*
D14*
X459740000Y-365760000D03*
X459740000Y-370840000D03*
%TD*%
D13*
%TO.C,U11*%
X517525000Y-446850001D03*
X517525000Y-449390001D03*
X517525000Y-451930001D03*
X517525000Y-454470001D03*
X517525000Y-457010001D03*
X517525000Y-459550001D03*
X514985000Y-459550001D03*
X514985000Y-457010001D03*
X514985000Y-454470001D03*
X514985000Y-451930001D03*
X514985000Y-449390001D03*
X514985000Y-446850001D03*
X512445000Y-446850001D03*
X512445000Y-449390001D03*
X512445000Y-451930001D03*
X512445000Y-454470001D03*
X512445000Y-457010001D03*
X512445000Y-459550001D03*
%TD*%
D14*
%TO.C,J2*%
X548640000Y-322834000D03*
D15*
X543560000Y-322834000D03*
%TD*%
D14*
%TO.C,J1*%
X500888000Y-322834000D03*
D15*
X495808000Y-322834000D03*
%TD*%
D17*
%TO.C,U1*%
X511810000Y-358648000D03*
X511810000Y-361188000D03*
X511810000Y-363728000D03*
X511810000Y-366268000D03*
X511810000Y-356108000D03*
X511810000Y-353568000D03*
X511810000Y-351028000D03*
X511810000Y-368808000D03*
X511810000Y-371348000D03*
X511810000Y-373888000D03*
X511810000Y-376428000D03*
X527050000Y-376428000D03*
X527050000Y-373888000D03*
X527050000Y-371348000D03*
X527050000Y-368808000D03*
X527050000Y-366268000D03*
X527050000Y-363728000D03*
X527050000Y-361188000D03*
X527050000Y-358648000D03*
X527050000Y-356108000D03*
X527050000Y-353568000D03*
X511810000Y-348488000D03*
X511810000Y-345948000D03*
X511810000Y-343408000D03*
X511810000Y-340868000D03*
X511810000Y-338328000D03*
X511810000Y-335788000D03*
X511810000Y-333248000D03*
X511810000Y-330708000D03*
X511810000Y-328168000D03*
X511810000Y-325628000D03*
X511810000Y-323088000D03*
X511810000Y-320548000D03*
D18*
X511810000Y-318008000D03*
D17*
X527050000Y-351028000D03*
X527050000Y-348488000D03*
X527050000Y-345948000D03*
X527050000Y-343408000D03*
X527050000Y-340868000D03*
X527050000Y-338328000D03*
X527050000Y-335788000D03*
X527050000Y-333248000D03*
X527050000Y-330708000D03*
X527050000Y-328168000D03*
X527050000Y-325628000D03*
X527050000Y-323088000D03*
X527050000Y-320548000D03*
X527050000Y-318008000D03*
%TD*%
D13*
%TO.C,U7*%
X588264000Y-400304000D03*
X588264000Y-402844000D03*
X588264000Y-405384000D03*
X588264000Y-407924000D03*
X588264000Y-410464000D03*
X588264000Y-413004000D03*
X588264000Y-415544000D03*
X588264000Y-418084000D03*
X552704000Y-400304000D03*
X552704000Y-402844000D03*
X552704000Y-405384000D03*
X552704000Y-407924000D03*
X552704000Y-410464000D03*
X552704000Y-413004000D03*
X552704000Y-415544000D03*
X552704000Y-418084000D03*
X552704000Y-420624000D03*
X552704000Y-423164000D03*
%TD*%
%TO.C,U2*%
X569468000Y-347980000D03*
X566928000Y-347980000D03*
X564388000Y-347980000D03*
X561848000Y-347980000D03*
X587248000Y-342900000D03*
X587248000Y-340360000D03*
X587248000Y-337820000D03*
X587248000Y-335280000D03*
X587248000Y-332740000D03*
X587248000Y-330200000D03*
X587248000Y-327660000D03*
X587248000Y-325120000D03*
X556768000Y-347980000D03*
X556768000Y-345440000D03*
X556768000Y-342900000D03*
X556768000Y-340360000D03*
X556768000Y-337820000D03*
X556768000Y-335280000D03*
X556768000Y-332740000D03*
X556768000Y-330200000D03*
X556768000Y-327660000D03*
X556768000Y-325120000D03*
X556768000Y-322580000D03*
X556768000Y-320040000D03*
%TD*%
%TO.C,U3*%
X569214000Y-387604000D03*
X566674000Y-387604000D03*
X564134000Y-387604000D03*
X561594000Y-387604000D03*
X586994000Y-382524000D03*
X586994000Y-379984000D03*
X586994000Y-377444000D03*
X586994000Y-374904000D03*
X586994000Y-372364000D03*
X586994000Y-369824000D03*
X586994000Y-367284000D03*
X586994000Y-364744000D03*
X556514000Y-387604000D03*
X556514000Y-385064000D03*
X556514000Y-382524000D03*
X556514000Y-379984000D03*
X556514000Y-377444000D03*
X556514000Y-374904000D03*
X556514000Y-372364000D03*
X556514000Y-369824000D03*
X556514000Y-367284000D03*
X556514000Y-364744000D03*
X556514000Y-362204000D03*
X556514000Y-359664000D03*
%TD*%
%TO.C,U4*%
X448056000Y-448056000D03*
X448056000Y-445516000D03*
X448056000Y-442976000D03*
X448056000Y-440436000D03*
X448056000Y-437896000D03*
X448056000Y-435356000D03*
X448056000Y-432816000D03*
X448056000Y-430276000D03*
X483616000Y-448056000D03*
X483616000Y-445516000D03*
X483616000Y-442976000D03*
X483616000Y-440436000D03*
X483616000Y-437896000D03*
X483616000Y-435356000D03*
X483616000Y-432816000D03*
X483616000Y-430276000D03*
X483616000Y-427736000D03*
X483616000Y-425196000D03*
%TD*%
%TO.C,U5*%
X449834000Y-344678000D03*
X449834000Y-342138000D03*
X449834000Y-339598000D03*
X449834000Y-337058000D03*
X449834000Y-334518000D03*
X449834000Y-331978000D03*
X449834000Y-329438000D03*
X449834000Y-326898000D03*
X485394000Y-344678000D03*
X485394000Y-342138000D03*
X485394000Y-339598000D03*
X485394000Y-337058000D03*
X485394000Y-334518000D03*
X485394000Y-331978000D03*
X485394000Y-329438000D03*
X485394000Y-326898000D03*
X485394000Y-324358000D03*
X485394000Y-321818000D03*
%TD*%
%TO.C,U6*%
X448056000Y-416306000D03*
X448056000Y-413766000D03*
X448056000Y-411226000D03*
X448056000Y-408686000D03*
X448056000Y-406146000D03*
X448056000Y-403606000D03*
X448056000Y-401066000D03*
X448056000Y-398526000D03*
X483616000Y-416306000D03*
X483616000Y-413766000D03*
X483616000Y-411226000D03*
X483616000Y-408686000D03*
X483616000Y-406146000D03*
X483616000Y-403606000D03*
X483616000Y-401066000D03*
X483616000Y-398526000D03*
X483616000Y-395986000D03*
X483616000Y-393446000D03*
%TD*%
%TO.C,U8*%
X588264000Y-433578000D03*
X588264000Y-436118000D03*
X588264000Y-438658000D03*
X588264000Y-441198000D03*
X588264000Y-443738000D03*
X588264000Y-446278000D03*
X588264000Y-448818000D03*
X588264000Y-451358000D03*
X552704000Y-433578000D03*
X552704000Y-436118000D03*
X552704000Y-438658000D03*
X552704000Y-441198000D03*
X552704000Y-443738000D03*
X552704000Y-446278000D03*
X552704000Y-448818000D03*
X552704000Y-451358000D03*
X552704000Y-453898000D03*
X552704000Y-456438000D03*
%TD*%
%TO.C,U12*%
X468884000Y-354584000D03*
X471424000Y-354584000D03*
X473964000Y-354584000D03*
X476504000Y-354584000D03*
X451104000Y-359664000D03*
X451104000Y-362204000D03*
X451104000Y-364744000D03*
X451104000Y-367284000D03*
X451104000Y-369824000D03*
X451104000Y-372364000D03*
X451104000Y-374904000D03*
X451104000Y-377444000D03*
X481584000Y-354584000D03*
X481584000Y-357124000D03*
X481584000Y-359664000D03*
X481584000Y-362204000D03*
X481584000Y-364744000D03*
X481584000Y-367284000D03*
X481584000Y-369824000D03*
X481584000Y-372364000D03*
X481584000Y-374904000D03*
X481584000Y-377444000D03*
X481584000Y-379984000D03*
X481584000Y-382524000D03*
%TD*%
D10*
%TO.C,H1*%
X450088000Y-466090000D03*
%TD*%
%TO.C,H3*%
X581660000Y-311404000D03*
%TD*%
%TO.C,H4*%
X450088000Y-311404000D03*
%TD*%
M02*
